<?xml version="1.0" encoding="UTF-8" standalone="no"?>
<svg
   width="1920"
   height="1080"
   version="1.1"
   id="svg3"
   sodipodi:docname="diagram.svg"
   inkscape:version="1.4.2 (ebf0e940d0, 2025-05-08)"
   xml:space="preserve"
   xmlns:inkscape="http://www.inkscape.org/namespaces/inkscape"
   xmlns:sodipodi="http://sodipodi.sourceforge.net/DTD/sodipodi-0.dtd"
   xmlns="http://www.w3.org/2000/svg"
   xmlns:svg="http://www.w3.org/2000/svg"><sodipodi:namedview
     id="namedview3"
     pagecolor="#ffffff"
     bordercolor="#000000"
     borderopacity="0.25"
     inkscape:showpageshadow="2"
     inkscape:pageopacity="0.0"
     inkscape:pagecheckerboard="0"
     inkscape:deskcolor="#d1d1d1"
     inkscape:zoom="0.35355339"
     inkscape:cx="1383.1009"
     inkscape:cy="592.55548"
     inkscape:window-width="1920"
     inkscape:window-height="1016"
     inkscape:window-x="0"
     inkscape:window-y="0"
     inkscape:window-maximized="1"
     inkscape:current-layer="svg3"
     showgrid="false"
     showguides="false" /><rect
     style="fill:#ffffff;stroke:none;stroke-width:4;stroke-linecap:round;stroke-linejoin:round;stroke-dasharray:none"
     id="rect17"
     width="1920"
     height="1080"
     x="0"
     y="0"
     inkscape:label="background" /><!-- Tank --><!-- Inlet arrow --><!-- Outlet arrow --><!-- Labels --><!-- Arrowhead definition --><defs
     id="defs3"><marker
       style="overflow:visible"
       id="Triangle"
       refX="0"
       refY="0"
       orient="auto-start-reverse"
       inkscape:stockid="Triangle arrow"
       markerWidth="1"
       markerHeight="1"
       viewBox="0 0 1 1"
       inkscape:isstock="true"
       inkscape:collect="always"
       preserveAspectRatio="xMidYMid"><path
         transform="scale(0.5)"
         style="fill:context-stroke;fill-rule:evenodd;stroke:context-stroke;stroke-width:1pt"
         d="M 5.77,0 -2.88,5 V -5 Z"
         id="path135" /></marker></defs><g
     id="g39"
     transform="rotate(180,937.06188,571.23315)"
     inkscape:label="ceiling"><path
       style="fill:none;stroke:#000000;stroke-width:7.99998;stroke-linecap:round;stroke-linejoin:miter;stroke-dasharray:none"
       d="m 127.5337,927.33331 1573.1801,-10e-6"
       id="path10-5-0-7-7-0-2"
       sodipodi:nodetypes="cc" /><path
       style="fill:none;stroke:#000000;stroke-width:7.99999;stroke-linecap:round;stroke-linejoin:miter;stroke-dasharray:none"
       d="M 77.267757,977.59925 127.5337,927.33331"
       id="path10-5-0-7-7-0-1-1-6-6-5-3"
       sodipodi:nodetypes="cc" /><path
       style="fill:none;stroke:#000000;stroke-width:7.99999;stroke-linecap:round;stroke-linejoin:miter;stroke-dasharray:none"
       d="m 892.99077,977.59931 50.26594,-50.266"
       id="path10-5-0-7-7-0-1-4"
       sodipodi:nodetypes="cc" /><path
       style="fill:none;stroke:#000000;stroke-width:7.99999;stroke-linecap:round;stroke-linejoin:miter;stroke-dasharray:none"
       d="m 834.72484,977.59931 50.26594,-50.266"
       id="path10-5-0-7-7-0-1-1-52"
       sodipodi:nodetypes="cc" /><path
       style="fill:none;stroke:#000000;stroke-width:7.99999;stroke-linecap:round;stroke-linejoin:miter;stroke-dasharray:none"
       d="m 776.45891,977.59931 50.26594,-50.266"
       id="path10-5-0-7-7-0-1-1-6-5"
       sodipodi:nodetypes="cc" /><path
       style="fill:none;stroke:#000000;stroke-width:7.99999;stroke-linecap:round;stroke-linejoin:miter;stroke-dasharray:none"
       d="m 718.19298,977.59931 50.26594,-50.266"
       id="path10-5-0-7-7-0-1-2-4"
       sodipodi:nodetypes="cc" /><path
       style="fill:none;stroke:#000000;stroke-width:7.99999;stroke-linecap:round;stroke-linejoin:miter;stroke-dasharray:none"
       d="m 659.92706,977.59931 50.26594,-50.266"
       id="path10-5-0-7-7-0-1-1-0-7"
       sodipodi:nodetypes="cc" /><path
       style="fill:none;stroke:#000000;stroke-width:7.99999;stroke-linecap:round;stroke-linejoin:miter;stroke-dasharray:none"
       d="m 601.66113,977.59931 50.26594,-50.266"
       id="path10-5-0-7-7-0-1-1-6-6-4"
       sodipodi:nodetypes="cc" /><path
       style="fill:none;stroke:#000000;stroke-width:7.99999;stroke-linecap:round;stroke-linejoin:miter;stroke-dasharray:none"
       d="m 543.39521,977.59931 50.26593,-50.266"
       id="path10-5-0-7-7-0-1-5-4"
       sodipodi:nodetypes="cc" /><path
       style="fill:none;stroke:#000000;stroke-width:7.99999;stroke-linecap:round;stroke-linejoin:miter;stroke-dasharray:none"
       d="m 485.12932,977.59931 50.2659,-50.266"
       id="path10-5-0-7-7-0-1-1-5-3"
       sodipodi:nodetypes="cc" /><path
       style="fill:none;stroke:#000000;stroke-width:7.99999;stroke-linecap:round;stroke-linejoin:miter;stroke-dasharray:none"
       d="m 426.86333,977.59931 50.266,-50.266"
       id="path10-5-0-7-7-0-1-1-6-4-0"
       sodipodi:nodetypes="cc" /><path
       style="fill:none;stroke:#000000;stroke-width:7.99999;stroke-linecap:round;stroke-linejoin:miter;stroke-dasharray:none"
       d="m 368.59744,977.59931 50.2659,-50.266"
       id="path10-5-0-7-7-0-1-2-7-7"
       sodipodi:nodetypes="cc" /><path
       style="fill:none;stroke:#000000;stroke-width:7.99999;stroke-linecap:round;stroke-linejoin:miter;stroke-dasharray:none"
       d="m 310.33155,977.59931 50.2659,-50.266"
       id="path10-5-0-7-7-0-1-1-0-6-8"
       sodipodi:nodetypes="cc" /><path
       style="fill:none;stroke:#000000;stroke-width:7.99999;stroke-linecap:round;stroke-linejoin:miter;stroke-dasharray:none"
       d="m 252.06557,977.59931 50.266,-50.266"
       id="path10-5-0-7-7-0-1-1-6-6-5-6"
       sodipodi:nodetypes="cc" /><path
       style="fill:none;stroke:#000000;stroke-width:7.99999;stroke-linecap:round;stroke-linejoin:miter;stroke-dasharray:none"
       d="m 1592.182,977.59932 50.2659,-50.26602"
       id="path10-5-0-7-7-0-1-4-3"
       sodipodi:nodetypes="cc" /><path
       style="fill:none;stroke:#000000;stroke-width:7.99999;stroke-linecap:round;stroke-linejoin:miter;stroke-dasharray:none"
       d="m 1650.4479,977.59932 50.2659,-50.26602"
       id="path10-5-0-7-7-0-1-4-3-9"
       sodipodi:nodetypes="cc" /><path
       style="fill:none;stroke:#000000;stroke-width:7.99999;stroke-linecap:round;stroke-linejoin:miter;stroke-dasharray:none"
       d="m 1533.916,977.59932 50.266,-50.26602"
       id="path10-5-0-7-7-0-1-1-52-1"
       sodipodi:nodetypes="cc" /><path
       style="fill:none;stroke:#000000;stroke-width:7.99999;stroke-linecap:round;stroke-linejoin:miter;stroke-dasharray:none"
       d="M 1475.6501,977.59932 1525.916,927.3333"
       id="path10-5-0-7-7-0-1-1-6-5-4"
       sodipodi:nodetypes="cc" /><path
       style="fill:none;stroke:#000000;stroke-width:7.99999;stroke-linecap:round;stroke-linejoin:miter;stroke-dasharray:none"
       d="m 1417.3842,977.59932 50.2659,-50.26602"
       id="path10-5-0-7-7-0-1-2-4-9"
       sodipodi:nodetypes="cc" /><path
       style="fill:none;stroke:#000000;stroke-width:7.99999;stroke-linecap:round;stroke-linejoin:miter;stroke-dasharray:none"
       d="m 1359.1183,977.59932 50.266,-50.26602"
       id="path10-5-0-7-7-0-1-1-0-7-2"
       sodipodi:nodetypes="cc" /><path
       style="fill:none;stroke:#000000;stroke-width:7.99999;stroke-linecap:round;stroke-linejoin:miter;stroke-dasharray:none"
       d="m 1300.8523,977.59932 50.266,-50.26602"
       id="path10-5-0-7-7-0-1-1-6-6-4-0"
       sodipodi:nodetypes="cc" /><path
       style="fill:none;stroke:#000000;stroke-width:7.99999;stroke-linecap:round;stroke-linejoin:miter;stroke-dasharray:none"
       d="m 1242.5864,977.59932 50.2659,-50.26602"
       id="path10-5-0-7-7-0-1-5-4-6"
       sodipodi:nodetypes="cc" /><path
       style="fill:none;stroke:#000000;stroke-width:7.99999;stroke-linecap:round;stroke-linejoin:miter;stroke-dasharray:none"
       d="m 1184.3205,977.59932 50.2659,-50.26602"
       id="path10-5-0-7-7-0-1-1-5-3-8"
       sodipodi:nodetypes="cc" /><path
       style="fill:none;stroke:#000000;stroke-width:7.99999;stroke-linecap:round;stroke-linejoin:miter;stroke-dasharray:none"
       d="m 1126.0545,977.59932 50.266,-50.26602"
       id="path10-5-0-7-7-0-1-1-6-4-0-9"
       sodipodi:nodetypes="cc" /><path
       style="fill:none;stroke:#000000;stroke-width:7.99999;stroke-linecap:round;stroke-linejoin:miter;stroke-dasharray:none"
       d="m 1067.7886,977.59932 50.2659,-50.26602"
       id="path10-5-0-7-7-0-1-2-7-7-2"
       sodipodi:nodetypes="cc" /><path
       style="fill:none;stroke:#000000;stroke-width:7.99999;stroke-linecap:round;stroke-linejoin:miter;stroke-dasharray:none"
       d="m 1009.5227,977.59932 50.2659,-50.26602"
       id="path10-5-0-7-7-0-1-1-0-6-8-6"
       sodipodi:nodetypes="cc" /><path
       style="fill:none;stroke:#000000;stroke-width:7.99999;stroke-linecap:round;stroke-linejoin:miter;stroke-dasharray:none"
       d="m 951.2567,977.59932 50.266,-50.26602"
       id="path10-5-0-7-7-0-1-1-6-6-5-6-6"
       sodipodi:nodetypes="cc" /><path
       style="fill:none;stroke:#000000;stroke-width:7.99999;stroke-linecap:round;stroke-linejoin:miter;stroke-dasharray:none"
       d="m 193.79958,977.59931 50.266,-50.266"
       id="path10-5-0-7-7-0-1-1-0-6-9-8"
       sodipodi:nodetypes="cc" /><path
       style="fill:none;stroke:#000000;stroke-width:7.99999;stroke-linecap:round;stroke-linejoin:miter;stroke-dasharray:none"
       d="m 135.53369,977.59931 50.2659,-50.266"
       id="path10-5-0-7-7-0-1-1-6-6-5-3-8"
       sodipodi:nodetypes="cc" /></g><path
     id="use1-9"
     d="m 1101.1059,257.23238 c -1.2225,-4.08456 -1.4844,-5.19392 6.8447,-10.00272 2.5554,-1.4754 3.2179,-1.8579 2.1808,-3.65429 -0.5459,-0.94545 -1.587,-0.34435 -1.9656,-0.1258 -1.8929,1.0929 -3.9607,2.53882 -5.8536,3.63172 l -12.6829,7.32245 c -1.7983,1.03825 -3.9896,2.05133 -5.788,3.08963 -0.7572,0.43715 -1.7983,1.03825 -0.7612,2.83462 0.5459,0.94547 1.3978,0.45362 2.8175,-0.36603 5.7735,-3.33335 6.2102,-2.57698 6.8106,-1.53697 0.1092,0.18907 0.4367,0.75637 0.8769,2.39316 l 16.59,58.24299 c 1.0587,3.80091 1.4153,4.85568 -5.2101,8.68083 -1.7983,1.03825 -2.7448,1.5847 -1.7622,3.28653 0.6004,1.04001 1.1683,0.71216 3.0613,-0.38074 l 42.4022,-24.48095 c 2.0823,-1.2022 2.1223,-1.3514 1.8023,-3.43572 l -4.339,-24.34603 c -0.084,-0.58203 -0.2219,-1.25861 -0.3856,-1.54225 -0.3275,-0.56727 -1.0191,-0.67226 -1.4924,-0.39901 -0.095,0.0546 -0.5678,0.32785 -0.5388,0.81534 -0.1347,0.20384 -0.025,0.39293 0.2544,2.62647 1.7749,10.06872 3.684,23.21146 -12.3114,32.44646 l -9.0863,5.24595 c -1.325,0.765 -1.5143,0.8743 -2.1368,1.1076 -1.0957,0.50655 -1.2995,0.37212 -1.7362,-0.38425 -0.3821,-0.66184 -0.5203,-1.33841 -0.8224,-2.29857 z"
     style="fill:#a51d2d;stroke-width:1.50667"
     inkscape:label="L" /><g
     id="g4"
     inkscape:label="angle"><path
       id="path1"
       style="fill:none;stroke:#a51d2d;stroke-width:3.99998;stroke-linecap:round;stroke-linejoin:round"
       d="m 960,379.29691 c 28.7574,10e-6 57.008,-7.56163 81.9125,-21.92489"
       sodipodi:nodetypes="cc"
       inkscape:label="theta" /><path
       id="use3-6"
       d="m 1033.286,409.77358 c 0,-11.13561 -3.4973,-21.94371 -12.459,-21.94371 -15.3006,0 -31.58483,31.9876 -31.58483,56.0056 0,5.02194 1.0929,21.94372 12.56833,21.94372 14.8634,0 31.4755,-31.2234 31.4755,-56.00561 z m -33.1148,15.39336 c 1.6393,-6.44119 3.9344,-15.6117 8.306,-23.36296 3.6066,-6.55037 7.4317,-11.79066 12.2405,-11.79066 3.6065,0 6.0109,3.05684 6.0109,13.53742 0,3.93022 -0.3279,9.38885 -3.4973,21.6162 z m 22.2951,3.27518 c -2.7322,10.69892 -5.0273,17.5768 -8.9618,24.45468 -3.1694,5.56781 -6.9945,10.69893 -11.5847,10.69893 -3.38799,0 -6.12024,-2.62015 -6.12024,-13.42824 0,-7.09623 1.74864,-14.51997 3.49728,-21.72537 z"
       style="fill:#a51d2d;stroke-width:1.50667" /></g><path
     id="use3"
     d="m 1491.3204,520.36968 c 0.2178,-0.65398 2.9419,-6.10327 6.9759,-9.58961 2.8344,-2.61495 6.5421,-4.35735 10.7956,-4.35545 4.3628,0.002 5.8913,3.27312 5.8933,7.63346 3e-4,0.65407 0,2.83423 -1.3052,7.95707 l -2.7214,11.22677 c -0.8711,3.26983 -2.9396,11.33558 -3.1572,12.53458 -0.4356,1.63494 -1.0886,4.46888 -1.0884,4.90492 7e-4,1.52615 1.2011,2.72582 2.8371,2.72658 3.272,0.002 3.8162,-2.50544 4.7959,-6.42935 l 6.532,-26.05022 c 0.2178,-0.87198 5.883,-14.49556 17.8804,-14.49 4.3628,0.002 5.8912,3.27302 5.8932,7.63339 0,6.10456 -4.2453,17.9846 -6.6417,24.52411 -0.9803,2.61581 -1.5251,4.03261 -1.5241,5.99484 0,4.90539 3.3852,8.83131 8.6204,8.83371 10.1433,0.005 13.9533,-16.0179 13.9531,-16.67193 -3e-4,-0.54507 -0.4368,-0.98129 -1.0911,-0.98156 -0.9817,-4.9e-4 -1.0907,0.32649 -1.6352,2.17936 -2.5044,8.71967 -6.5379,13.29617 -10.9005,13.29414 -1.0908,-5.6e-4 -2.8359,-0.11032 -2.8376,-3.59866 0,-2.83426 1.306,-6.32193 1.7417,-7.52085 1.9608,-5.23156 6.8628,-18.09238 6.8599,-24.41492 0,-6.54061 -3.8226,-11.44778 -12.1119,-11.45168 -7.3076,-0.003 -13.1952,4.13631 -17.555,10.56581 -0.3299,-5.88667 -3.9314,-10.57578 -12.1114,-10.57955 -9.7071,-0.004 -14.8301,6.86072 -16.7921,9.58508 -0.33,-6.21372 -4.8033,-9.59508 -9.6025,-9.59734 -3.1629,-10e-4 -5.6708,1.52351 -7.7411,5.6649 -1.9614,3.92344 -3.4853,10.57228 -3.4851,11.00833 3e-4,0.43609 0.4367,0.9813 1.2003,0.98166 0.8724,4.1e-4 0.9815,-0.10854 1.6345,-2.61558 1.633,-6.43082 3.7023,-12.86146 8.0651,-12.85942 2.5086,0.001 3.3819,1.74575 3.3833,5.01601 0,2.39823 -1.0875,6.6491 -1.8494,10.028 l -3.0484,11.77167 c -0.4354,2.07093 -1.6329,6.97583 -2.1773,8.93777 -0.7621,2.83387 -1.9594,7.95681 -1.9592,8.50182 8e-4,1.52614 1.201,2.72581 2.837,2.72658 1.3088,5.5e-4 2.8355,-0.65277 3.7073,-2.28749 0.2177,-0.54508 1.1977,-4.35981 1.742,-6.53977 l 2.395,-9.80975 z"
     style="stroke-width:1.50668"
     inkscape:label="m" /><path
     style="fill:none;stroke:#000000;stroke-width:4;stroke-linecap:round;stroke-linejoin:miter;stroke-dasharray:4, 8;stroke-dashoffset:9.6"
     d="M 960,613.05653 V 215.64741"
     id="path10-5-0-7-7-0-2-6-5"
     sodipodi:nodetypes="cc"
     inkscape:label="vertical-line" /><g
     id="g5"
     transform="rotate(-30,1019.633,1159.6691)"
     inkscape:label="pendulum"><rect
       style="fill:#ffffff;stroke:#000000;stroke-width:8;stroke-linecap:round;stroke-linejoin:round;stroke-dasharray:none;stroke-dashoffset:19.2"
       id="rect1"
       width="32.270702"
       height="634.99646"
       x="1423.8647"
       y="295.6474" /><circle
       style="fill:#000000;stroke:none;stroke-width:8;stroke-linecap:round;stroke-linejoin:round;stroke-dasharray:none;stroke-dashoffset:19.2"
       id="path2"
       cx="1440.0001"
       cy="613.14563"
       r="9.5" /><circle
       style="fill:#000000;stroke:none;stroke-width:8;stroke-linecap:round;stroke-linejoin:round;stroke-dasharray:none;stroke-dashoffset:19.2"
       id="path2-5"
       cx="1440.0001"
       cy="312.30585"
       r="9.5" /></g><path
     id="use1"
     style="fill:#a51d2d;stroke-width:1.50667"
     d="m 987.66406,181.60156 -0.5879,0.33984 c -0.91894,0.53055 -0.93343,0.58815 -0.4453,1.43361 0.38199,0.66164 0.43972,0.67772 0.65039,0.70312 1.62757,0.18753 5.35516,0.53372 9.03516,2.91797 3.04638,1.9659 5.41539,4.37047 7.26169,7.56835 l 57.0039,98.73243 c 2.5679,4.44762 8.7708,10.86407 19.8906,11.10937 -5.3997,9.83188 -2.8283,18.4439 -0.3242,22.78126 l 57.002,98.73046 c 1.7402,3.01409 4.9841,10.50125 1.1152,18.91016 -0.2656,0.64345 -0.2804,0.70165 0.1016,1.36328 0.4881,0.84541 0.5459,0.86062 1.4648,0.33008 l 0.5879,-0.33985 c 5.4411,-8.82654 4.2603,-17.40723 1.1407,-22.81055 l -57.0234,-98.76762 c -1.7826,-3.08761 -5.5345,-11.11519 -1.7422,-20.16602 0.2133,-0.56425 0.2297,-0.62157 -0.1523,-1.28321 -0.382,-0.66164 -0.4419,-0.67797 -1.0371,-0.77539 -1.3802,-0.18337 -5.0396,-0.66748 -8.9473,-3.36133 -3.1313,-2.11292 -5.7558,-4.95906 -7.6445,-8.23046 l -57.0235,-98.76758 c -3.1408,-5.44008 -9.98281,-10.75358 -20.32615,-10.41797 z"
     sodipodi:nodetypes="ccsccccccccsccsccscccscc"
     inkscape:label="}" /><path
     style="fill:none;stroke:#000000;stroke-width:7.99998;stroke-linecap:round;stroke-linejoin:miter;stroke-dasharray:none;marker-end:url(#Triangle)"
     d="m 1135.3471,459.78284 c 0,0 61.4134,-41.61456 158.2953,-43.43087 96.8819,-1.81631 157.9072,55.08036 157.9072,55.08036"
     id="path10-5-0-7-7-0-2-2"
     sodipodi:nodetypes="czc"
     inkscape:label="center-of-mass-arrow" /></svg>
