<?xml version="1.0" encoding="UTF-8" standalone="no"?>
<svg
   width="1920"
   height="1080"
   version="1.1"
   id="svg3"
   sodipodi:docname="diagram.svg"
   inkscape:version="1.4.2 (ebf0e940d0, 2025-05-08)"
   xml:space="preserve"
   xmlns:inkscape="http://www.inkscape.org/namespaces/inkscape"
   xmlns:sodipodi="http://sodipodi.sourceforge.net/DTD/sodipodi-0.dtd"
   xmlns="http://www.w3.org/2000/svg"
   xmlns:svg="http://www.w3.org/2000/svg"><sodipodi:namedview
     id="namedview3"
     pagecolor="#ffffff"
     bordercolor="#000000"
     borderopacity="0.25"
     inkscape:showpageshadow="2"
     inkscape:pageopacity="0.0"
     inkscape:pagecheckerboard="0"
     inkscape:deskcolor="#d1d1d1"
     inkscape:zoom="0.25"
     inkscape:cx="1404"
     inkscape:cy="674"
     inkscape:window-width="1920"
     inkscape:window-height="1016"
     inkscape:window-x="0"
     inkscape:window-y="0"
     inkscape:window-maximized="1"
     inkscape:current-layer="svg3"
     showgrid="false"
     showguides="true" /><rect
     style="fill:#ffffff;stroke:none;stroke-width:4;stroke-linecap:round;stroke-linejoin:round;stroke-dasharray:none"
     id="rect17"
     width="1920"
     height="1080"
     x="0"
     y="0"
     inkscape:label="background" /><!-- Tank --><!-- Inlet arrow --><!-- Outlet arrow --><!-- Labels --><!-- Arrowhead definition --><defs
     id="defs3" /><g
     id="g39"
     transform="rotate(180,937.06188,571.23315)"
     inkscape:label="ceiling"><path
       style="fill:none;stroke:#000000;stroke-width:7.99998;stroke-linecap:round;stroke-linejoin:miter;stroke-dasharray:none"
       d="m 127.5337,927.33331 1573.1801,-10e-6"
       id="path10-5-0-7-7-0-2"
       sodipodi:nodetypes="cc" /><path
       style="fill:none;stroke:#000000;stroke-width:7.99999;stroke-linecap:round;stroke-linejoin:miter;stroke-dasharray:none"
       d="M 77.267757,977.59925 127.5337,927.33331"
       id="path10-5-0-7-7-0-1-1-6-6-5-3"
       sodipodi:nodetypes="cc" /><path
       style="fill:none;stroke:#000000;stroke-width:7.99999;stroke-linecap:round;stroke-linejoin:miter;stroke-dasharray:none"
       d="m 892.99077,977.59931 50.26594,-50.266"
       id="path10-5-0-7-7-0-1-4"
       sodipodi:nodetypes="cc" /><path
       style="fill:none;stroke:#000000;stroke-width:7.99999;stroke-linecap:round;stroke-linejoin:miter;stroke-dasharray:none"
       d="m 834.72484,977.59931 50.26594,-50.266"
       id="path10-5-0-7-7-0-1-1-52"
       sodipodi:nodetypes="cc" /><path
       style="fill:none;stroke:#000000;stroke-width:7.99999;stroke-linecap:round;stroke-linejoin:miter;stroke-dasharray:none"
       d="m 776.45891,977.59931 50.26594,-50.266"
       id="path10-5-0-7-7-0-1-1-6-5"
       sodipodi:nodetypes="cc" /><path
       style="fill:none;stroke:#000000;stroke-width:7.99999;stroke-linecap:round;stroke-linejoin:miter;stroke-dasharray:none"
       d="m 718.19298,977.59931 50.26594,-50.266"
       id="path10-5-0-7-7-0-1-2-4"
       sodipodi:nodetypes="cc" /><path
       style="fill:none;stroke:#000000;stroke-width:7.99999;stroke-linecap:round;stroke-linejoin:miter;stroke-dasharray:none"
       d="m 659.92706,977.59931 50.26594,-50.266"
       id="path10-5-0-7-7-0-1-1-0-7"
       sodipodi:nodetypes="cc" /><path
       style="fill:none;stroke:#000000;stroke-width:7.99999;stroke-linecap:round;stroke-linejoin:miter;stroke-dasharray:none"
       d="m 601.66113,977.59931 50.26594,-50.266"
       id="path10-5-0-7-7-0-1-1-6-6-4"
       sodipodi:nodetypes="cc" /><path
       style="fill:none;stroke:#000000;stroke-width:7.99999;stroke-linecap:round;stroke-linejoin:miter;stroke-dasharray:none"
       d="m 543.39521,977.59931 50.26593,-50.266"
       id="path10-5-0-7-7-0-1-5-4"
       sodipodi:nodetypes="cc" /><path
       style="fill:none;stroke:#000000;stroke-width:7.99999;stroke-linecap:round;stroke-linejoin:miter;stroke-dasharray:none"
       d="m 485.12932,977.59931 50.2659,-50.266"
       id="path10-5-0-7-7-0-1-1-5-3"
       sodipodi:nodetypes="cc" /><path
       style="fill:none;stroke:#000000;stroke-width:7.99999;stroke-linecap:round;stroke-linejoin:miter;stroke-dasharray:none"
       d="m 426.86333,977.59931 50.266,-50.266"
       id="path10-5-0-7-7-0-1-1-6-4-0"
       sodipodi:nodetypes="cc" /><path
       style="fill:none;stroke:#000000;stroke-width:7.99999;stroke-linecap:round;stroke-linejoin:miter;stroke-dasharray:none"
       d="m 368.59744,977.59931 50.2659,-50.266"
       id="path10-5-0-7-7-0-1-2-7-7"
       sodipodi:nodetypes="cc" /><path
       style="fill:none;stroke:#000000;stroke-width:7.99999;stroke-linecap:round;stroke-linejoin:miter;stroke-dasharray:none"
       d="m 310.33155,977.59931 50.2659,-50.266"
       id="path10-5-0-7-7-0-1-1-0-6-8"
       sodipodi:nodetypes="cc" /><path
       style="fill:none;stroke:#000000;stroke-width:7.99999;stroke-linecap:round;stroke-linejoin:miter;stroke-dasharray:none"
       d="m 252.06557,977.59931 50.266,-50.266"
       id="path10-5-0-7-7-0-1-1-6-6-5-6"
       sodipodi:nodetypes="cc" /><path
       style="fill:none;stroke:#000000;stroke-width:7.99999;stroke-linecap:round;stroke-linejoin:miter;stroke-dasharray:none"
       d="m 1592.182,977.59932 50.2659,-50.26602"
       id="path10-5-0-7-7-0-1-4-3"
       sodipodi:nodetypes="cc" /><path
       style="fill:none;stroke:#000000;stroke-width:7.99999;stroke-linecap:round;stroke-linejoin:miter;stroke-dasharray:none"
       d="m 1650.4479,977.59932 50.2659,-50.26602"
       id="path10-5-0-7-7-0-1-4-3-9"
       sodipodi:nodetypes="cc" /><path
       style="fill:none;stroke:#000000;stroke-width:7.99999;stroke-linecap:round;stroke-linejoin:miter;stroke-dasharray:none"
       d="m 1533.916,977.59932 50.266,-50.26602"
       id="path10-5-0-7-7-0-1-1-52-1"
       sodipodi:nodetypes="cc" /><path
       style="fill:none;stroke:#000000;stroke-width:7.99999;stroke-linecap:round;stroke-linejoin:miter;stroke-dasharray:none"
       d="M 1475.6501,977.59932 1525.916,927.3333"
       id="path10-5-0-7-7-0-1-1-6-5-4"
       sodipodi:nodetypes="cc" /><path
       style="fill:none;stroke:#000000;stroke-width:7.99999;stroke-linecap:round;stroke-linejoin:miter;stroke-dasharray:none"
       d="m 1417.3842,977.59932 50.2659,-50.26602"
       id="path10-5-0-7-7-0-1-2-4-9"
       sodipodi:nodetypes="cc" /><path
       style="fill:none;stroke:#000000;stroke-width:7.99999;stroke-linecap:round;stroke-linejoin:miter;stroke-dasharray:none"
       d="m 1359.1183,977.59932 50.266,-50.26602"
       id="path10-5-0-7-7-0-1-1-0-7-2"
       sodipodi:nodetypes="cc" /><path
       style="fill:none;stroke:#000000;stroke-width:7.99999;stroke-linecap:round;stroke-linejoin:miter;stroke-dasharray:none"
       d="m 1300.8523,977.59932 50.266,-50.26602"
       id="path10-5-0-7-7-0-1-1-6-6-4-0"
       sodipodi:nodetypes="cc" /><path
       style="fill:none;stroke:#000000;stroke-width:7.99999;stroke-linecap:round;stroke-linejoin:miter;stroke-dasharray:none"
       d="m 1242.5864,977.59932 50.2659,-50.26602"
       id="path10-5-0-7-7-0-1-5-4-6"
       sodipodi:nodetypes="cc" /><path
       style="fill:none;stroke:#000000;stroke-width:7.99999;stroke-linecap:round;stroke-linejoin:miter;stroke-dasharray:none"
       d="m 1184.3205,977.59932 50.2659,-50.26602"
       id="path10-5-0-7-7-0-1-1-5-3-8"
       sodipodi:nodetypes="cc" /><path
       style="fill:none;stroke:#000000;stroke-width:7.99999;stroke-linecap:round;stroke-linejoin:miter;stroke-dasharray:none"
       d="m 1126.0545,977.59932 50.266,-50.26602"
       id="path10-5-0-7-7-0-1-1-6-4-0-9"
       sodipodi:nodetypes="cc" /><path
       style="fill:none;stroke:#000000;stroke-width:7.99999;stroke-linecap:round;stroke-linejoin:miter;stroke-dasharray:none"
       d="m 1067.7886,977.59932 50.2659,-50.26602"
       id="path10-5-0-7-7-0-1-2-7-7-2"
       sodipodi:nodetypes="cc" /><path
       style="fill:none;stroke:#000000;stroke-width:7.99999;stroke-linecap:round;stroke-linejoin:miter;stroke-dasharray:none"
       d="m 1009.5227,977.59932 50.2659,-50.26602"
       id="path10-5-0-7-7-0-1-1-0-6-8-6"
       sodipodi:nodetypes="cc" /><path
       style="fill:none;stroke:#000000;stroke-width:7.99999;stroke-linecap:round;stroke-linejoin:miter;stroke-dasharray:none"
       d="m 951.2567,977.59932 50.266,-50.26602"
       id="path10-5-0-7-7-0-1-1-6-6-5-6-6"
       sodipodi:nodetypes="cc" /><path
       style="fill:none;stroke:#000000;stroke-width:7.99999;stroke-linecap:round;stroke-linejoin:miter;stroke-dasharray:none"
       d="m 193.79958,977.59931 50.266,-50.266"
       id="path10-5-0-7-7-0-1-1-0-6-9-8"
       sodipodi:nodetypes="cc" /><path
       style="fill:none;stroke:#000000;stroke-width:7.99999;stroke-linecap:round;stroke-linejoin:miter;stroke-dasharray:none"
       d="m 135.53369,977.59931 50.2659,-50.266"
       id="path10-5-0-7-7-0-1-1-6-6-5-3-8"
       sodipodi:nodetypes="cc" /></g><path
     id="use1-9"
     d="m 1183.5843,435.21083 c 0.9836,-4.14857 1.3114,-5.24029 10.929,-5.24029 2.9508,0 3.7158,0 3.7158,-2.07429 0,-1.09172 -1.2022,-1.09172 -1.6393,-1.09172 -2.1858,0 -4.6995,0.21833 -6.8853,0.21833 h -14.6449 c -2.0765,0 -4.4808,-0.21833 -6.5574,-0.21833 -0.8743,0 -2.0765,0 -2.0765,2.07428 0,1.09173 0.9837,1.09173 2.623,1.09173 6.6667,0 6.6667,0.87338 6.6667,2.07428 0,0.21832 0,0.87338 -0.4372,2.51097 l -14.7541,58.73492 c -0.9836,3.82104 -1.2022,4.91277 -8.8525,4.91277 -2.0765,0 -3.1694,0 -3.1694,1.96511 0,1.2009 0.6557,1.2009 2.8415,1.2009 h 48.9619 c 2.4044,0 2.5137,-0.10918 3.2787,-2.07428 l 8.4153,-23.25379 c 0.2186,-0.54587 0.4372,-1.2009 0.4372,-1.52842 0,-0.65503 -0.5464,-1.09173 -1.0929,-1.09173 -0.1093,0 -0.6557,0 -0.8743,0.4367 -0.2186,0.10917 -0.2186,0.32751 -1.0929,2.4018 -3.4973,9.60719 -8.4153,21.94371 -26.8853,21.94371 h -10.4919 c -1.53,0 -1.7486,0 -2.4043,-0.10918 -1.2022,-0.10917 -1.3115,-0.32751 -1.3115,-1.20089 0,-0.76422 0.2186,-1.41925 0.4371,-2.4018 z"
     style="fill:#a51d2d;stroke-width:1.50667"
     inkscape:label="L" /><g
     id="g4"
     inkscape:label="angle"><path
       id="path1"
       style="fill:none;stroke:#a51d2d;stroke-width:3.99998;stroke-linecap:round;stroke-linejoin:round"
       d="m 960,379.29691 c 28.7574,10e-6 57.008,-7.56163 81.9125,-21.92489"
       sodipodi:nodetypes="cc"
       inkscape:label="theta" /><path
       id="use3-6"
       d="m 1033.286,409.77358 c 0,-11.13561 -3.4973,-21.94371 -12.459,-21.94371 -15.3006,0 -31.58483,31.9876 -31.58483,56.0056 0,5.02194 1.0929,21.94372 12.56833,21.94372 14.8634,0 31.4755,-31.2234 31.4755,-56.00561 z m -33.1148,15.39336 c 1.6393,-6.44119 3.9344,-15.6117 8.306,-23.36296 3.6066,-6.55037 7.4317,-11.79066 12.2405,-11.79066 3.6065,0 6.0109,3.05684 6.0109,13.53742 0,3.93022 -0.3279,9.38885 -3.4973,21.6162 z m 22.2951,3.27518 c -2.7322,10.69892 -5.0273,17.5768 -8.9618,24.45468 -3.1694,5.56781 -6.9945,10.69893 -11.5847,10.69893 -3.38799,0 -6.12024,-2.62015 -6.12024,-13.42824 0,-7.09623 1.74864,-14.51997 3.49728,-21.72537 z"
       style="fill:#a51d2d;stroke-width:1.50667" /></g><g
     id="g3"
     inkscape:label="pendulum"><path
       style="fill:none;stroke:#000000;stroke-width:4;stroke-linecap:round;stroke-linejoin:miter;stroke-dasharray:none"
       d="M 1277.7539,765.42287 960.00004,215.64738"
       id="path10-5-0-7-7-0-2-6"
       sodipodi:nodetypes="cc" /><ellipse
       style="fill:#ffffff;stroke:#000000;stroke-width:8.00001;stroke-linecap:round"
       id="path39-5"
       cx="723.2511"
       cy="1301.4167"
       transform="matrix(0.86625758,-0.49959765,0.50040244,0.86579293,0,0)"
       rx="84.60849"
       ry="84.56311" /><path
       id="use3"
       d="m 1253.1298,768.0256 c -0.1384,-0.67525 -0.5039,-6.75652 1.2465,-11.7928 1.1472,-3.68182 3.4869,-7.04459 7.1715,-9.1697 3.7793,-2.17961 6.7386,-0.11106 8.9205,3.6641 0.3273,0.56629 1.4182,2.45389 2.8482,7.54363 l 3.2566,11.08335 c 0.8805,3.26732 3.122,11.28672 3.533,12.43391 0.4403,1.63366 1.2917,4.41446 1.5099,4.79198 0.7637,1.32132 2.4031,1.76007 3.8203,0.94273 2.8344,-1.63469 2.0522,-4.07787 0.9387,-7.96594 l -7.3682,-25.82617 c -0.2474,-0.86403 -2.153,-15.49499 8.2399,-21.48891 3.7793,-2.17958 6.7384,-0.11106 8.9203,3.66414 3.0548,5.28525 5.3158,17.69775 6.5102,24.55933 0.4589,2.75554 0.6955,4.25492 1.6775,5.95374 2.4546,4.2471 7.3473,5.95556 11.8823,3.34004 8.7868,-5.0676 4.075,-20.84858 3.7478,-21.41487 -0.2728,-0.4719 -0.8689,-0.63144 -1.4357,-0.30451 -0.8504,0.49041 -0.7813,0.82808 -0.3264,2.70496 2.1909,8.80368 0.9861,14.78376 -2.7931,16.96334 -0.9449,0.54489 -2.5111,1.3224 -4.2567,-1.69777 -1.4183,-2.45386 -2.03,-6.12791 -2.2521,-7.38407 -0.9177,-5.51105 -3.1028,-19.09988 -6.2666,-24.5739 -3.273,-5.66278 -9.0344,-8.00275 -16.2151,-3.86147 -6.3302,3.65082 -9.3592,10.17974 -9.9201,17.92772 -3.2291,-4.93302 -8.6926,-7.19319 -15.7786,-3.10643 -8.4088,4.84967 -9.4129,13.35661 -9.7498,16.69694 -3.3927,-5.21621 -8.9574,-5.90788 -13.1147,-3.51028 -2.7399,1.5802 -4.1493,4.1548 -3.8716,8.77653 0.2631,4.3785 2.2678,10.89851 2.486,11.27604 0.2183,0.37752 0.8689,0.63145 1.5303,0.25 0.7558,-0.43589 0.7958,-0.58478 0.1078,-3.08245 -1.8012,-6.38575 -3.2245,-12.98947 0.5548,-15.16909 2.1731,-1.25328 3.8017,-0.17909 5.4381,2.6523 1.2001,2.07636 2.3827,6.30207 3.4123,9.60924 l 3.2459,11.71874 c 0.6584,2.01117 2.0738,6.85768 2.5833,8.82898 0.7569,2.83527 2.2815,7.8705 2.5542,8.34238 0.7637,1.32132 2.403,1.76013 3.8202,0.94279 1.1337,-0.6539 2.1292,-1.98304 2.0668,-3.83463 -0.084,-0.58091 -1.1426,-4.3746 -1.7612,-6.53465 l -2.8308,-9.69296 z"
       style="stroke-width:1.50668"
       inkscape:label="m" /></g><path
     style="fill:none;stroke:#000000;stroke-width:4;stroke-linecap:round;stroke-linejoin:miter;stroke-dasharray:4,8;stroke-dashoffset:9.6"
     d="m 960,850.64441 v -634.997"
     id="path10-5-0-7-7-0-2-6-5"
     sodipodi:nodetypes="cc"
     inkscape:label="vertical-line" /></svg>
