<?xml version="1.0" encoding="UTF-8" standalone="no"?>
<svg
   width="1920"
   height="1080"
   version="1.1"
   id="svg3"
   sodipodi:docname="diagram.svg"
   inkscape:version="1.4.2 (ebf0e940d0, 2025-05-08)"
   xml:space="preserve"
   xmlns:inkscape="http://www.inkscape.org/namespaces/inkscape"
   xmlns:sodipodi="http://sodipodi.sourceforge.net/DTD/sodipodi-0.dtd"
   xmlns="http://www.w3.org/2000/svg"
   xmlns:svg="http://www.w3.org/2000/svg"><sodipodi:namedview
     id="namedview3"
     pagecolor="#ffffff"
     bordercolor="#000000"
     borderopacity="0.25"
     inkscape:showpageshadow="2"
     inkscape:pageopacity="0.0"
     inkscape:pagecheckerboard="0"
     inkscape:deskcolor="#d1d1d1"
     inkscape:zoom="0.6725"
     inkscape:cx="568.02974"
     inkscape:cy="571.74721"
     inkscape:window-width="1920"
     inkscape:window-height="1016"
     inkscape:window-x="0"
     inkscape:window-y="0"
     inkscape:window-maximized="1"
     inkscape:current-layer="svg3"
     showgrid="false"
     showguides="false" /><!-- Tank --><rect
     style="display:inline;fill:#ffffff;stroke:none;stroke-width:4;stroke-linecap:round;stroke-linejoin:round;stroke-dasharray:none"
     id="rect17"
     width="1920"
     height="1080"
     x="0"
     y="0"
     inkscape:label="background"
     sodipodi:insensitive="true" /><!-- Inlet arrow --><!-- Outlet arrow --><!-- Labels --><!-- Arrowhead definition --><defs
     id="defs3"><marker
       style="overflow:visible"
       id="ArrowWide-7-8"
       refX="0"
       refY="0"
       orient="auto-start-reverse"
       inkscape:stockid="Wide arrow"
       markerWidth="1"
       markerHeight="1"
       viewBox="0 0 1 1"
       inkscape:isstock="true"
       inkscape:collect="always"
       preserveAspectRatio="xMidYMid"><path
         style="fill:none;stroke:context-stroke;stroke-width:1;stroke-linecap:butt"
         d="M 3,-3 0,0 3,3"
         transform="rotate(180,0.125,0)"
         sodipodi:nodetypes="ccc"
         id="path16-4-8" /></marker><marker
       style="overflow:visible"
       id="Triangle-3-7"
       refX="0"
       refY="0"
       orient="auto-start-reverse"
       inkscape:stockid="Triangle arrow"
       markerWidth="1"
       markerHeight="1"
       viewBox="0 0 1 1"
       inkscape:isstock="true"
       inkscape:collect="always"
       preserveAspectRatio="xMidYMid"><path
         transform="scale(0.5)"
         style="fill:context-stroke;fill-rule:evenodd;stroke:context-stroke;stroke-width:1pt"
         d="M 5.77,0 -2.88,5 V -5 Z"
         id="path135-6-9" /></marker><marker
       style="overflow:visible"
       id="Triangle-3-7-7"
       refX="0"
       refY="0"
       orient="auto-start-reverse"
       inkscape:stockid="Triangle arrow"
       markerWidth="1"
       markerHeight="1"
       viewBox="0 0 1 1"
       inkscape:isstock="true"
       inkscape:collect="always"
       preserveAspectRatio="xMidYMid"><path
         transform="scale(0.5)"
         style="fill:context-stroke;fill-rule:evenodd;stroke:context-stroke;stroke-width:1pt"
         d="M 5.77,0 -2.88,5 V -5 Z"
         id="path135-6-9-5" /></marker><marker
       style="overflow:visible"
       id="ArrowWide-7-8-3"
       refX="0"
       refY="0"
       orient="auto-start-reverse"
       inkscape:stockid="Wide arrow"
       markerWidth="1"
       markerHeight="1"
       viewBox="0 0 1 1"
       inkscape:isstock="true"
       inkscape:collect="always"
       preserveAspectRatio="xMidYMid"><path
         style="fill:none;stroke:context-stroke;stroke-width:1;stroke-linecap:butt"
         d="M 3,-3 0,0 3,3"
         transform="rotate(180,0.125,0)"
         sodipodi:nodetypes="ccc"
         id="path16-4-8-7" /></marker><marker
       style="overflow:visible"
       id="Triangle-3-7-7-1"
       refX="0"
       refY="0"
       orient="auto-start-reverse"
       inkscape:stockid="Triangle arrow"
       markerWidth="1"
       markerHeight="1"
       viewBox="0 0 1 1"
       inkscape:isstock="true"
       inkscape:collect="always"
       preserveAspectRatio="xMidYMid"><path
         transform="scale(0.5)"
         style="fill:context-stroke;fill-rule:evenodd;stroke:context-stroke;stroke-width:1pt"
         d="M 5.77,0 -2.88,5 V -5 Z"
         id="path135-6-9-5-2" /></marker><marker
       style="overflow:visible"
       id="ArrowWide-7-8-3-9"
       refX="0"
       refY="0"
       orient="auto-start-reverse"
       inkscape:stockid="Wide arrow"
       markerWidth="1"
       markerHeight="1"
       viewBox="0 0 1 1"
       inkscape:isstock="true"
       inkscape:collect="always"
       preserveAspectRatio="xMidYMid"><path
         style="fill:none;stroke:context-stroke;stroke-width:1;stroke-linecap:butt"
         d="M 3,-3 0,0 3,3"
         transform="rotate(180,0.125,0)"
         sodipodi:nodetypes="ccc"
         id="path16-4-8-7-4" /></marker><marker
       style="overflow:visible"
       id="ArrowWide-7-8-3-9-5"
       refX="0"
       refY="0"
       orient="auto-start-reverse"
       inkscape:stockid="Wide arrow"
       markerWidth="1"
       markerHeight="1"
       viewBox="0 0 1 1"
       inkscape:isstock="true"
       inkscape:collect="always"
       preserveAspectRatio="xMidYMid"><path
         style="fill:none;stroke:context-stroke;stroke-width:1;stroke-linecap:butt"
         d="M 3,-3 0,0 3,3"
         transform="rotate(180,0.125,0)"
         sodipodi:nodetypes="ccc"
         id="path16-4-8-7-4-0" /></marker></defs><g
     id="g5"
     inkscape:label="h"><g
       id="g17"
       inkscape:label="dimension-line"
       transform="translate(262.37478,36.239951)"
       style="fill:none;stroke:#a51d2d"><path
         style="display:inline;fill:none;fill-opacity:1;stroke:#a51d2d;stroke-width:4;stroke-linecap:round;stroke-linejoin:bevel;stroke-dasharray:none;stroke-dashoffset:0;stroke-opacity:1;paint-order:stroke markers fill"
         d="m 458.97,600.86102 h 73.5575"
         id="path14-9-7" /><path
         style="display:inline;fill:none;fill-opacity:1;stroke:#a51d2d;stroke-width:4;stroke-linecap:round;stroke-linejoin:bevel;stroke-dasharray:none;stroke-dashoffset:0;stroke-opacity:1;paint-order:stroke markers fill"
         d="m 458.96998,951.49437 h 73.55797"
         id="path14-1-2-6"
         sodipodi:nodetypes="cc" /><path
         style="display:inline;fill:none;fill-opacity:1;stroke:#a51d2d;stroke-width:4;stroke-linecap:round;stroke-linejoin:bevel;stroke-dasharray:none;stroke-dashoffset:0;stroke-opacity:1;marker-start:url(#ArrowWide-7-8);marker-end:url(#ArrowWide-7-8);paint-order:stroke markers fill"
         d="M 495.7483,607.36924 V 945.64537"
         id="path15-9-3"
         sodipodi:nodetypes="cc" /></g><path
       id="use8"
       d="m 693.76146,779.48144 c 0.1007,-0.40289 0.3023,-1.00722 0.3023,-1.51082 0,-1.00723 -1.0072,-1.00723 -1.2087,-1.00723 -0.1008,0 -5.0361,0.40288 -5.5397,0.5036 -1.7123,0.10069 -3.2231,0.30216 -5.0362,0.40291 -2.518,0.20147 -3.223,0.30215 -3.223,2.11517 0,1.00722 0.8057,1.00722 2.2159,1.00722 4.9353,0 5.0361,0.9065 5.0361,1.91372 0,0.60434 -0.2015,1.41012 -0.3024,1.71228 l -14.6047,58.31823 c -0.4031,1.51084 -0.4031,1.7123 -0.4031,2.31661 0,2.21589 1.7123,2.61878 2.7195,2.61878 1.7123,0 3.0217,-1.30939 3.5253,-2.41733 l 4.5325,-18.23075 c 0.5037,-2.21589 1.108,-4.33106 1.6116,-6.54695 1.1079,-4.23034 1.1079,-4.33106 3.0217,-7.25201 1.9137,-2.92095 6.4461,-8.96429 14.2019,-8.96429 4.0288,0 5.439,3.02167 5.439,7.05057 0,5.64045 -3.9282,16.61919 -6.1441,22.66252 -0.9066,2.41734 -1.4102,3.72673 -1.4102,5.53974 0,4.53249 3.1224,8.1585 7.9571,8.1585 9.3672,0 12.8925,-14.80617 12.8925,-15.41052 0,-0.5036 -0.4031,-0.90649 -1.0073,-0.90649 -0.9064,0 -1.0072,0.30216 -1.5108,2.01444 -2.3166,8.05779 -6.0433,12.28812 -10.0722,12.28812 -1.0072,0 -2.6188,-0.10073 -2.6188,-3.32383 0,-2.61878 1.2087,-5.84189 1.6116,-6.94984 1.813,-4.83467 6.3454,-16.71991 6.3454,-22.56181 0,-6.04334 -3.5253,-10.57585 -11.1801,-10.57585 -5.7412,0 -10.7773,2.71951 -14.9069,7.95707 z"
       style="fill:#a51d2d;stroke:none;stroke-width:2.22102"
       inkscape:label="h" /></g><g
     id="g10"
     inkscape:label="tank"><ellipse
       style="fill:none;stroke:#000000;stroke-width:8.00003;stroke-linecap:round;stroke-linejoin:round;stroke-dasharray:none;stroke-dashoffset:19.2;paint-order:markers stroke fill"
       id="path1"
       cx="922.79211"
       cy="385.73413"
       rx="196"
       ry="129.33299" /><ellipse
       style="fill:none;stroke:#a51d2d;stroke-width:4;stroke-linecap:round;stroke-linejoin:round;stroke-dasharray:4, 12;stroke-dashoffset:1.6;paint-order:markers stroke fill"
       id="path1-2"
       cx="922.79211"
       cy="637.23376"
       rx="114.01369"
       ry="75.443466" /><path
       id="path2-6"
       style="fill:none;stroke:#000000;stroke-width:8;stroke-linecap:round;stroke-linejoin:round;stroke-dasharray:none;stroke-dashoffset:19.2;paint-order:markers stroke fill"
       d="M 1114.2154,413.51988 922.79212,987.73432 731.36882,413.51988"
       sodipodi:nodetypes="ccc" /></g><g
     id="g7"
     inkscape:label="H"><g
       id="g6"
       inkscape:label="dimension-line"><path
         style="display:inline;fill:none;fill-opacity:1;stroke:#000000;stroke-width:4;stroke-linecap:round;stroke-linejoin:bevel;stroke-dasharray:none;stroke-dashoffset:0;stroke-opacity:1;paint-order:stroke markers fill"
         d="m 561.23461,385.73412 h 73.5575"
         id="path14-9-7-2" /><path
         style="display:inline;fill:none;fill-opacity:1;stroke:#000000;stroke-width:4;stroke-linecap:round;stroke-linejoin:bevel;stroke-dasharray:none;stroke-dashoffset:0;stroke-opacity:1;paint-order:stroke markers fill"
         d="m 561.23459,987.73429 h 73.55797"
         id="path14-1-2-6-8"
         sodipodi:nodetypes="cc" /><path
         style="display:inline;fill:none;fill-opacity:1;stroke:#000000;stroke-width:4;stroke-linecap:round;stroke-linejoin:bevel;stroke-dasharray:none;stroke-dashoffset:0;stroke-opacity:1;marker-start:url(#ArrowWide-7-8-3);marker-end:url(#ArrowWide-7-8-3);paint-order:stroke markers fill"
         d="M 598.01291,392.24234 V 981.8853"
         id="path15-9-3-9"
         sodipodi:nodetypes="cc" /></g><path
       id="use9-6"
       d="m 548.17896,659.7485 c 0.90458,-3.41719 1.10558,-4.42229 8.24146,-4.42229 1.80912,0 2.81417,0 2.81417,-1.80907 0,-1.10557 -0.90454,-1.10557 -1.5076,-1.10557 -1.80907,0 -3.9197,0.20112 -5.82933,0.20112 h -11.85964 c -1.90958,0 -4.02021,-0.20112 -5.9298,-0.20112 -0.70354,0 -1.90963,0 -1.90963,1.90959 0,1.00505 0.70355,1.00505 2.61317,1.00505 6.03032,0 6.03032,0.80406 6.03032,1.90963 0,0.20111 0,0.80406 -0.40182,2.31162 l -6.13084,24.32235 h -30.35266 l 6.03035,-24.12131 c 0.90454,-3.41719 1.10553,-4.42229 8.24142,-4.42229 1.80911,0 2.81417,0 2.81417,-1.80907 0,-1.10557 -0.90454,-1.10557 -1.5076,-1.10557 -1.80907,0 -3.9197,0.20112 -5.82929,0.20112 h -11.85968 c -1.90959,0 -4.02021,-0.20112 -5.9298,-0.20112 -0.70354,0 -1.90963,0 -1.90963,1.90959 0,1.00505 0.70354,1.00505 2.61317,1.00505 6.03032,0 6.03032,0.80406 6.03032,1.90963 0,0.20111 0,0.80406 -0.40223,2.31162 l -13.56824,54.07195 c -0.90453,3.5177 -1.10557,4.52275 -8.04042,4.52275 -2.31166,0 -3.01516,0 -3.01516,1.90963 0,1.00505 1.10553,1.00505 1.40704,1.00505 1.80911,0 3.91974,-0.20112 5.82933,-0.20112 h 11.85964 c 1.90963,0 4.02025,0.20112 5.92984,0.20112 0.80406,0 1.90959,0 1.90959,-1.90963 0,-1.00505 -0.90454,-1.00505 -2.4121,-1.00505 -6.13087,0 -6.13087,-0.80402 -6.13087,-1.80912 0,-0.10055 0,-0.804 0.20111,-1.60807 l 6.9349,-27.94053 h 30.45314 c -1.7086,6.63338 -6.83438,27.63902 -7.03537,28.24204 -1.10557,3.01517 -2.71365,3.01517 -8.64349,3.11568 -1.20605,0 -2.11062,0 -2.11062,1.90963 0,1.00505 1.10557,1.00505 1.40708,1.00505 1.80911,0 3.91973,-0.20112 5.82932,-0.20112 h 11.85964 c 1.90963,0 4.02025,0.20112 5.92984,0.20112 0.80406,0 1.90959,0 1.90959,-1.90963 0,-1.00505 -0.90453,-1.00505 -2.41213,-1.00505 -6.13084,0 -6.13084,-0.80402 -6.13084,-1.80912 0,-0.10055 0,-0.804 0.20112,-1.60807 z"
       style="fill:#000000;stroke-width:1.80742"
       inkscape:label="H" /></g><g
     id="g3"
     transform="translate(-470.30429,-740.39874)"
     style="fill:#000000"
     inkscape:label="qin"><path
       id="use2-7-6"
       d="m 1110.4955,809.04812 c 0,-0.50254 -0.4022,-0.90457 -0.9045,-0.90457 -0.8041,0 -4.7238,3.61822 -6.6334,7.13589 -1.8091,-4.52272 -4.9248,-7.23637 -9.2465,-7.23637 -11.3571,0 -23.6188,14.67381 -23.6188,29.54861 0,9.95005 5.8293,15.77937 12.6637,15.77937 5.3268,0 9.749,-4.02025 11.8596,-6.33187 l 0.1006,0.10056 -3.8192,15.07584 -0.9046,3.61818 c -0.9045,3.01516 -2.4121,3.01516 -7.1358,3.11567 -1.1056,0 -2.1107,0 -2.1107,1.90959 0,0.70354 0.6031,1.00506 1.3066,1.00506 1.4071,0 3.2162,-0.20112 4.6232,-0.20112 h 10.2516 c 1.5076,0 3.2162,0.20112 4.7238,0.20112 0.603,0 1.8091,0 1.8091,-1.90959 0,-1.00506 -0.8041,-1.00506 -2.3117,-1.00506 -4.7237,0 -5.0252,-0.70354 -5.0252,-1.50759 0,-0.50251 0.1005,-0.60303 0.4018,-1.90959 z m -14.1713,31.35772 c -0.5025,1.7086 -0.5025,1.90959 -1.9096,3.81918 -2.2111,2.81416 -6.6333,7.13593 -11.3571,7.13593 -4.1207,0 -6.4323,-3.71874 -6.4323,-9.64854 0,-5.52782 3.1156,-16.78443 5.0252,-21.00564 3.4172,-7.03541 8.141,-10.65359 12.0607,-10.65359 6.6333,0 7.94,8.24146 7.94,9.04547 0,0.10056 -0.3017,1.40709 -0.4019,1.60812 z"
       style="fill:#000000;stroke-width:1.80742" /><path
       id="use3-0-1"
       d="m 1133.5162,860.69305 c 0,-0.41889 -0.3353,-0.75402 -0.8378,-0.75402 -0.754,0 -0.8378,0.2514 -1.2567,1.67563 -2.1783,7.62412 -5.6134,10.22136 -8.3782,10.22136 -1.0054,0 -2.1783,-0.2514 -2.1783,-2.76478 0,-2.26211 1.0054,-4.77557 1.927,-7.289 l 5.8647,-15.58337 c 0.2514,-0.67025 0.8378,-2.17833 0.8378,-3.77015 0,-3.51884 -2.5134,-6.70256 -6.6187,-6.70256 -7.7079,0 -10.8079,12.14834 -10.8079,12.8186 0,0.33532 0.3354,0.75402 0.9216,0.75402 0.7541,0 0.8379,-0.33533 1.173,-1.50805 2.0108,-7.03768 5.1944,-10.38894 8.4619,-10.38894 0.754,0 2.1784,0.0839 2.1784,2.76482 0,2.1783 -1.0892,4.94312 -1.7595,6.78629 l -5.8647,15.58337 c -0.5027,1.3405 -1.0053,2.681 -1.0053,4.18909 0,3.77015 2.5971,6.78629 6.6187,6.78629 7.7079,0 10.724,-12.23211 10.724,-12.8186 z m -0.6702,-40.2989 c 0,-1.25673 -1.0054,-2.76478 -2.8486,-2.76478 -1.927,0 -4.1053,1.84317 -4.1053,4.02151 0,2.09453 1.7594,2.76478 2.7648,2.76478 2.2621,0 4.1891,-2.1783 4.1891,-4.02151 z"
       style="fill:#000000;stroke-width:1.50667" /><path
       id="use4-9-8"
       d="m 1155.0509,848.12586 c 0.1674,-0.50271 2.2621,-4.69176 5.362,-7.37281 2.1783,-2.01075 5.0269,-3.35126 8.2944,-3.35126 3.3512,0 4.5242,2.51347 4.5242,5.86472 0,4.77554 -3.435,14.32664 -5.1107,18.85086 -0.754,2.01075 -1.1729,3.0999 -1.1729,4.60799 0,3.77015 2.5972,6.78629 6.6187,6.78629 7.7917,0 10.724,-12.31589 10.724,-12.8186 0,-0.41889 -0.3353,-0.75402 -0.8378,-0.75402 -0.754,0 -0.8378,0.2514 -1.2567,1.67563 -1.927,6.8701 -5.1107,10.22136 -8.3781,10.22136 -0.8379,0 -2.1784,-0.0839 -2.1784,-2.76478 0,-2.09457 0.9216,-4.60799 1.4243,-5.78095 1.6756,-4.60799 5.1945,-13.99151 5.1945,-18.76704 0,-5.02689 -2.9324,-8.79709 -9.2998,-8.79709 -7.4565,0 -11.3943,5.27824 -12.9023,7.37281 -0.2514,-4.77557 -3.6864,-7.37281 -7.3728,-7.37281 -2.681,0 -4.5242,1.59186 -5.9485,4.44045 -1.508,3.01613 -2.681,8.04302 -2.681,8.37815 0,0.33532 0.3353,0.75402 0.9216,0.75402 0.6703,0 0.754,-0.0839 1.2567,-2.01076 1.3405,-5.11065 2.8486,-9.88623 6.1998,-9.88623 1.927,0 2.5973,1.34051 2.5973,3.85397 0,1.84321 -0.8378,5.11066 -1.4243,7.70789 l -2.3459,9.0484 c -0.3353,1.59186 -1.2567,5.36205 -1.6756,6.8701 -0.5865,2.17834 -1.5081,6.11603 -1.5081,6.53493 0,1.17296 0.9216,2.09457 2.1783,2.09457 1.0054,0 2.1783,-0.50271 2.8486,-1.75944 0.1675,-0.4189 0.9216,-3.35122 1.3405,-5.02685 l 1.8432,-7.54035 z"
       style="fill:#000000;stroke-width:1.50667" /></g><g
     id="g4"
     transform="translate(-346.3064,195.29158)"
     style="fill:#000000"
     inkscape:label="qout"><path
       id="use5-3-9"
       d="m 1520.4032,705.00505 c 0,-0.50254 -0.4022,-0.90457 -0.9045,-0.90457 -0.8041,0 -4.7238,3.61822 -6.6334,7.13589 C 1511.0562,706.71365 1507.9405,704 1503.6188,704 1492.2617,704 1480,718.67381 1480,733.54861 c 0,9.95005 5.8293,15.77937 12.6637,15.77937 5.3268,0 9.7491,-4.02025 11.8596,-6.33187 l 0.1006,0.10056 -3.8192,15.07584 -0.9046,3.61818 c -0.9045,3.01516 -2.4121,3.01516 -7.1358,3.11567 -1.1056,0 -2.1107,0 -2.1107,1.90959 0,0.70354 0.6031,1.00506 1.3066,1.00506 1.4071,0 3.2162,-0.20112 4.6233,-0.20112 h 10.2515 c 1.5076,0 3.2162,0.20112 4.7238,0.20112 0.603,0 1.8091,0 1.8091,-1.90959 0,-1.00506 -0.8041,-1.00506 -2.3117,-1.00506 -4.7237,0 -5.0252,-0.70354 -5.0252,-1.50759 0,-0.50251 0.1005,-0.60303 0.4022,-1.90959 z m -14.1713,31.35772 c -0.5025,1.7086 -0.5025,1.90959 -1.9096,3.81918 -2.2111,2.81416 -6.6333,7.13593 -11.3571,7.13593 -4.1207,0 -6.4323,-3.71874 -6.4323,-9.64854 0,-5.52782 3.1156,-16.78443 5.0252,-21.00564 3.4172,-7.03541 8.141,-10.65359 12.0607,-10.65359 6.6334,0 7.94,8.24146 7.94,9.04547 0,0.10056 -0.3017,1.40709 -0.4023,1.60812 z"
       style="fill:#000000;stroke-width:1.80742" /><path
       id="use6-6-2"
       d="m 1557.9181,742.19688 c 0,-7.95925 -5.1945,-13.9077 -12.8186,-13.9077 -11.0592,0 -21.9508,12.06453 -21.9508,23.8777 0,7.95925 5.1945,13.90774 12.8186,13.90774 11.143,0 21.9508,-12.06453 21.9508,-23.87774 z m -21.867,22.20211 c -4.1891,0 -7.289,-3.35125 -7.289,-9.21598 0,-3.85392 2.0107,-12.39965 4.3566,-16.5887 3.7702,-6.4512 8.462,-8.6295 11.897,-8.6295 4.1053,0 7.289,3.35126 7.289,9.21594 0,3.35126 -1.7594,12.31588 -4.9431,17.42658 -3.4351,5.61337 -8.043,7.79166 -11.3105,7.79166 z"
       style="fill:#000000;stroke-width:1.50667" /><path
       id="use7-0-0"
       d="m 1587.7201,760.37748 c 1.0892,4.69176 5.1107,5.69714 7.1215,5.69714 2.681,0 4.6917,-1.7594 6.0322,-4.60799 1.4243,-3.01613 2.5135,-7.95925 2.5135,-8.21056 0,-0.41894 -0.3354,-0.75406 -0.8378,-0.75406 -0.7541,0 -0.8379,0.41894 -1.173,1.67563 -1.508,5.78095 -3.0161,10.22135 -6.3674,10.22135 -2.5134,0 -2.5134,-2.76477 -2.5134,-3.85392 0,-1.92699 0.2514,-2.76482 1.0892,-6.28362 0.5864,-2.26211 1.1729,-4.52422 1.6756,-6.8701 l 3.435,-13.65639 c 0.5865,-2.09452 0.5865,-2.26211 0.5865,-2.51346 0,-1.25669 -1.0054,-2.09453 -2.2621,-2.09453 -2.4297,0 -3.0162,2.09453 -3.5188,4.1891 -0.8379,3.26748 -5.3621,21.2805 -5.9485,24.21286 -0.084,0 -3.3513,6.87006 -9.4673,6.87006 -4.3567,0 -5.1945,-3.77015 -5.1945,-6.87006 0,-4.77557 2.3459,-11.47808 4.5242,-17.09145 1.0054,-2.68101 1.4243,-3.77016 1.4243,-5.44578 0,-3.60262 -2.5972,-6.70252 -6.6188,-6.70252 -7.7079,0 -10.8078,12.1483 -10.8078,12.81855 0,0.33533 0.3354,0.75402 0.9216,0.75402 0.7541,0 0.8378,-0.33532 1.173,-1.50804 2.0107,-7.20523 5.2782,-10.3889 8.4619,-10.3889 0.8378,0 2.1783,0.0839 2.1783,2.76478 0,2.17829 -0.9216,4.60799 -2.1783,7.79166 -3.6864,9.97 -4.1053,13.15372 -4.1053,15.66718 0,8.54569 6.4512,9.88619 9.8862,9.88619 5.362,0 8.2944,-3.68638 9.97,-5.69714 z"
       style="fill:#000000;stroke-width:1.50667" /><path
       id="use8-6-2"
       d="m 1622.6809,731.55663 h 7.7079 c 1.5919,0 2.4297,0 2.4297,-1.50805 0,-0.92161 -0.5027,-0.92161 -2.1783,-0.92161 h -7.3728 l 3.0999,-12.23211 c 0.3354,-1.17292 0.3354,-1.3405 0.3354,-1.92698 0,-1.3405 -1.0892,-2.09453 -2.1783,-2.09453 -0.6703,0 -2.5973,0.2514 -3.2675,2.93236 l -3.2675,13.32126 h -7.8755 c -1.6756,0 -2.4296,0 -2.4296,1.59186 0,0.8378 0.5864,0.8378 2.1783,0.8378 h 7.4565 l -5.5296,22.11834 c -0.6702,2.93236 -0.9215,3.77015 -0.9215,4.85934 0,3.9377 2.7648,7.54031 7.4565,7.54031 8.4619,0 12.9861,-12.23211 12.9861,-12.81855 0,-0.50271 -0.3353,-0.75406 -0.8377,-0.75406 -0.1675,0 -0.5028,0 -0.6703,0.33533 -0.084,0.0839 -0.1675,0.16746 -0.7541,1.50808 -1.7594,4.18909 -5.6133,10.05378 -10.4726,10.05378 -2.5135,0 -2.681,-2.09453 -2.681,-3.93774 0,-0.0839 0,-1.67563 0.2514,-2.68101 z"
       style="fill:#000000;stroke-width:1.50667" /><path
       style="fill:#ffffff;stroke:#000000;stroke-width:8;stroke-linecap:round;stroke-linejoin:round;stroke-dasharray:none;marker-end:url(#Triangle-3-7-7)"
       d="M 83.221318,382.60693 H 633.43417"
       id="path10-5-0-7"
       sodipodi:nodetypes="cc"
       transform="translate(1185.8772,409.83562)"
       inkscape:label="out-arrow" /></g><g
     id="g8"
     inkscape:label="R"
     transform="translate(0.99960712)"><path
       id="use11"
       d="m 820.22916,308.39842 c 0.9046,-3.7187 1.3066,-3.91974 5.2263,-3.91974 h 7.2364 c 8.6434,0 15.0758,2.61318 15.0758,10.45261 0,5.12578 -2.6131,19.90007 -22.8147,19.90007 h -11.3572 z m 13.9702,27.63902 c 12.4628,-2.71364 22.2118,-10.75411 22.2118,-19.39756 0,-7.83943 -7.94,-15.07584 -21.9102,-15.07584 h -27.237 c -2.0101,0 -2.9147,0 -2.9147,1.90959 0,1.00505 0.7036,1.00505 2.6132,1.00505 6.0303,0 6.0303,0.80406 6.0303,1.90964 0,0.20111 0,0.80405 -0.4022,2.31161 l -13.568,54.07195 c -0.9046,3.51772 -1.1056,4.52276 -8.0405,4.52276 -2.3116,0 -3.0152,0 -3.0152,1.90963 0,1.00505 1.1056,1.00505 1.4071,1.00505 1.8091,0 3.9197,-0.20112 5.8293,-0.20112 h 11.8597 c 1.8091,0 3.9197,0.20112 5.7288,0.20112 0.804,0 1.9096,0 1.9096,-1.90963 0,-1.00505 -0.9046,-1.00505 -2.4121,-1.00505 -6.1309,0 -6.1309,-0.80401 -6.1309,-1.8091 0,-0.10056 0,-0.80402 0.2012,-1.60808 l 6.7338,-27.03595 h 12.0607 c 9.548,0 11.3571,6.03031 11.3571,9.34699 0,1.5076 -1.005,5.42729 -1.7086,8.04042 -1.1055,4.62328 -1.407,5.72885 -1.407,7.63842 0,7.1359 5.8293,10.45256 12.5631,10.45256 8.141,0 11.6587,-9.95001 11.6587,-11.35709 0,-0.70354 -0.5026,-1.00505 -1.1056,-1.00505 -0.804,0 -1.005,0.60302 -1.2061,1.40708 -2.4121,7.1359 -6.5328,8.94496 -9.0455,8.94496 -2.5126,0 -4.1207,-1.10553 -4.1207,-5.62829 0,-2.41214 1.2061,-11.55813 1.3066,-12.06068 0.5025,-3.7187 0.5025,-4.12072 0.5025,-4.92473 0,-7.33693 -5.9298,-10.45261 -9.749,-11.65866 z"
       style="fill:#000000;stroke-width:1.80742" /><path
       style="display:inline;fill:none;fill-opacity:1;stroke:#000000;stroke-width:4;stroke-linecap:round;stroke-linejoin:bevel;stroke-dasharray:none;stroke-dashoffset:0;stroke-opacity:1;marker-start:url(#ArrowWide-7-8-3-9);marker-end:url(#ArrowWide-7-8-3-9);paint-order:stroke markers fill"
       d="M 909.4084,385.73412 H 736.17582"
       id="path15-9-3-9-4"
       sodipodi:nodetypes="cc" /><circle
       style="fill:#000000;stroke:none;stroke-width:8.00002;stroke-linecap:round;stroke-linejoin:round;stroke-dasharray:none;stroke-dashoffset:19.2;paint-order:markers stroke fill"
       id="path2"
       cx="922.79211"
       cy="385.73413"
       r="6"
       transform="translate(-0.99960712)" /></g><g
     id="g9"
     inkscape:label="r"><path
       id="use10-6"
       d="m 998.13106,589.70775 c -3.1157,0.60303 -4.7238,2.81417 -4.7238,5.02527 0,2.41213 1.9096,3.21618 3.3167,3.21618 2.8141,0 5.12584,-2.41213 5.12584,-5.42728 0,-3.21619 -3.11574,-6.03032 -8.14104,-6.03032 -4.0202,0 -8.6435,1.80907 -12.8647,7.93991 -0.7035,-5.32678 -4.7237,-7.93991 -8.744,-7.93991 -3.9197,0 -5.9298,3.01516 -7.1359,5.22626 -1.7086,3.61822 -3.2161,9.64854 -3.2161,10.15109 0,0.40223 0.4018,0.90453 1.1055,0.90453 0.8041,0 0.9046,-0.10055 1.5076,-2.41213 1.5076,-6.03032 3.4172,-11.85964 7.4374,-11.85964 2.4121,0 3.1157,1.70858 3.1157,4.62323 0,2.21114 -1.0051,6.13084 -1.7086,9.24651 l -2.8142,10.85459 c -0.4018,1.90963 -1.5075,6.43235 -2.0101,8.24146 -0.7035,2.61313 -1.8091,7.33692 -1.8091,7.83943 0,1.40708 1.1056,2.51265 2.6132,2.51265 1.1055,0 3.0151,-0.70354 3.6182,-2.71364 0.3016,-0.80407 4.0202,-15.98041 4.6232,-18.29203 0.5025,-2.2111 1.1056,-4.32173 1.6081,-6.53287 0.4022,-1.40704 0.8041,-3.01516 1.1056,-4.32172 0.3016,-0.90454 3.0151,-5.82933 5.5277,-8.04042 1.2061,-1.10559 3.8193,-3.41719 7.94,-3.41719 1.6081,0 3.2162,0.30166 4.5228,1.20604 z"
       style="fill:#a51d2d;stroke-width:1.80742" /><path
       style="display:inline;fill:none;fill-opacity:1;stroke:#a51d2d;stroke-width:4;stroke-linecap:round;stroke-linejoin:bevel;stroke-dasharray:none;stroke-dashoffset:0;stroke-opacity:1;marker-start:url(#ArrowWide-7-8-3-9-5);marker-end:url(#ArrowWide-7-8-3-9-5);paint-order:stroke markers fill"
       d="M 1026.8888,637.23378 H 936.70906"
       id="path15-9-3-9-4-1"
       sodipodi:nodetypes="cc" /><circle
       style="fill:#a51d2d;stroke:none;stroke-width:8.00002;stroke-linecap:round;stroke-linejoin:round;stroke-dasharray:none;stroke-dashoffset:19.2;paint-order:markers stroke fill"
       id="path2-1"
       cx="922.79211"
       cy="637.23376"
       r="6" /></g><g
     id="g13-2-3"
     transform="translate(389.07357,-239.37281)"
     inkscape:label="pump-in"><path
       id="path9"
       style="fill:#ffffff;stroke:#000000;stroke-width:7.99998;stroke-linecap:round;stroke-linejoin:round;stroke-dasharray:none"
       d="M 447.074,335.89445 H 293.64747 l 76.71329,-136.25937 z"
       sodipodi:nodetypes="cccc"
       transform="translate(-389.07357,239.37281)" /><ellipse
       style="fill:#ffffff;stroke:#000000;stroke-width:7.99998;stroke-linecap:round;stroke-linejoin:round;stroke-dasharray:none"
       id="path8"
       cx="370.36078"
       cy="235.93649"
       rx="76.71241"
       ry="78.202377"
       transform="translate(-389.07357,239.37281)" /><path
       style="fill:#ffffff;stroke:#000000;stroke-width:7.99998;stroke-linecap:round;stroke-linejoin:round;stroke-dasharray:none;marker-end:url(#Triangle-3-7)"
       d="M 131.87319,235.93653 H 370.36073"
       id="path10-5-0"
       sodipodi:nodetypes="cc"
       transform="translate(-389.07357,239.37281)" /><path
       style="fill:none;stroke:#000000;stroke-width:8;stroke-linecap:round;stroke-linejoin:round;stroke-dasharray:none;marker-end:url(#Triangle-3-7-7-1)"
       d="M -18.712791,397.10693 H 533.71843 v 150"
       id="path10-5-0-7-1"
       sodipodi:nodetypes="ccc" /></g></svg>
