<?xml version="1.0" encoding="UTF-8" standalone="no"?>
<svg
   width="1920"
   height="1080"
   version="1.1"
   id="svg3"
   sodipodi:docname="diagram.svg"
   inkscape:version="1.4.2 (ebf0e940d0, 2025-05-08)"
   xml:space="preserve"
   xmlns:inkscape="http://www.inkscape.org/namespaces/inkscape"
   xmlns:sodipodi="http://sodipodi.sourceforge.net/DTD/sodipodi-0.dtd"
   xmlns="http://www.w3.org/2000/svg"
   xmlns:svg="http://www.w3.org/2000/svg"><sodipodi:namedview
     id="namedview3"
     pagecolor="#ffffff"
     bordercolor="#000000"
     borderopacity="0.25"
     inkscape:showpageshadow="2"
     inkscape:pageopacity="0.0"
     inkscape:pagecheckerboard="0"
     inkscape:deskcolor="#d1d1d1"
     inkscape:zoom="0.5"
     inkscape:cx="1053"
     inkscape:cy="525"
     inkscape:window-width="1920"
     inkscape:window-height="1016"
     inkscape:window-x="0"
     inkscape:window-y="0"
     inkscape:window-maximized="1"
     inkscape:current-layer="svg3"
     showgrid="false"
     showguides="false" /><rect
     style="fill:#ffffff;stroke:none;stroke-width:4;stroke-linecap:round;stroke-linejoin:round;stroke-dasharray:none"
     id="rect17"
     width="1920"
     height="1080"
     x="0"
     y="0"
     inkscape:label="background" /><!-- Tank --><!-- Inlet arrow --><!-- Outlet arrow --><!-- Labels --><!-- Arrowhead definition --><defs
     id="defs3"><marker
       style="overflow:visible"
       id="Triangle-3-7-7-9"
       refX="0"
       refY="0"
       orient="auto-start-reverse"
       inkscape:stockid="Triangle arrow"
       markerWidth="1"
       markerHeight="1"
       viewBox="0 0 1 1"
       inkscape:isstock="true"
       inkscape:collect="always"
       preserveAspectRatio="xMidYMid"><path
         transform="scale(0.5)"
         style="fill:context-stroke;fill-rule:evenodd;stroke:context-stroke;stroke-width:1pt"
         d="M 5.77,0 -2.88,5 V -5 Z"
         id="path135-6-9-5-1" /></marker></defs><path
     style="fill:#ffffff;stroke:#000000;stroke-width:7.99998;stroke-linecap:round;stroke-linejoin:round;stroke-dasharray:none;marker-end:url(#Triangle-3-7-7-9)"
     d="m 348.50734,172.45772 h 387.8343"
     id="path10-5-0-7-7"
     sodipodi:nodetypes="cc"
     inkscape:label="current-arrow" /><g
     id="g2"
     inkscape:label="capacitor"
     transform="translate(1247.429,457.39667)"><path
       d="m -411.34505,397.30233 h 98.33036 v -59.7805 118.4434"
       style="fill:none;fill-rule:evenodd;stroke:#000000;stroke-width:8;stroke-linecap:butt;stroke-linejoin:miter;stroke-dasharray:none;stroke-opacity:1"
       id="path3197" /><path
       d="m -163.51285,397.30233 h -98.33036 v -59.7805 118.4434"
       style="fill:none;fill-rule:evenodd;stroke:#000000;stroke-width:8;stroke-linecap:butt;stroke-linejoin:miter;stroke-dasharray:none;stroke-opacity:1"
       id="path4168" /></g><path
     d="m 812.2251,225.30071 h 62.01516 c 0,0 -21.15522,-70.23995 15.64347,-70.9541 36.79864,-0.71415 39.10864,70.9541 25.14134,70.9541 -13.96744,0 -13.40873,-70.9541 22.9064,-70.9541 36.3152,0 41.9022,70.9541 21.7892,70.9541 -20.1131,0 -12.2913,-70.9541 23.4652,-70.9541 35.75653,0 43.01953,70.9541 20.67173,70.9541 -22.34783,0 -10.05652,-70.9541 25.1413,-70.9541 35.1978,0 18.9956,70.9541 18.9956,70.9541 h 59.7804"
     style="fill:none;fill-rule:evenodd;stroke:#000000;stroke-width:8;stroke-linecap:butt;stroke-linejoin:round;stroke-dasharray:none;stroke-opacity:1"
     id="path4176"
     sodipodi:nodetypes="cczszszszcc"
     inkscape:label="inductor" /><path
     d="M 1603.8247,385.93064 V 475.173 l 35.1066,12.34801 -67.5807,20.20585 68.4585,22.45089 -67.5808,19.64455 66.703,21.32837 -67.1419,21.32837 32.0353,11.78668 v 89.80364"
     style="fill:none;fill-rule:evenodd;stroke:#000000;stroke-width:8;stroke-linecap:butt;stroke-linejoin:miter;stroke-miterlimit:5;stroke-dasharray:none;stroke-opacity:1"
     id="path4178"
     sodipodi:nodetypes="cccccccccc"
     inkscape:label="resistor" /><g
     id="g8"
     transform="rotate(-90,-245.27613,499.58604)"
     style="stroke:#000000"
     inkscape:label="dc-source"><path
       d="m -418.60807,1040.9191 h 108.38687 v -34.6391 70.3956"
       style="fill:none;fill-rule:evenodd;stroke:#000000;stroke-width:8;stroke-linecap:butt;stroke-linejoin:miter;stroke-dasharray:none;stroke-opacity:1"
       id="path5149" /><path
       d="M -152.77211,1040.9191 H -266.57253 V 968.04643 1115.2476"
       style="fill:none;fill-rule:evenodd;stroke:#000000;stroke-width:8;stroke-linecap:butt;stroke-linejoin:miter;stroke-dasharray:none;stroke-opacity:1"
       id="path5151" /><path
       d="m -238.53376,1004.0372 h 40.26375"
       style="fill:none;fill-rule:evenodd;stroke:#000000;stroke-width:8;stroke-linecap:butt;stroke-linejoin:miter;stroke-dasharray:none;stroke-opacity:1"
       id="path5153" /><path
       d="m -218.40185,983.90533 v 40.26377"
       style="fill:none;fill-rule:evenodd;stroke:#000000;stroke-width:8;stroke-linecap:butt;stroke-linejoin:miter;stroke-dasharray:none;stroke-opacity:1"
       id="path5153-6" /></g><g
     id="g11"
     inkscape:label="wires"><path
       style="fill:none;stroke:#000000;stroke-width:7.99998;stroke-linecap:butt;stroke-linejoin:miter;stroke-dasharray:none"
       d="M 842.0839,854.699 H 297.22043 l -1.16351,-199.92553"
       id="path1"
       sodipodi:nodetypes="ccc" /><path
       style="fill:none;stroke:#000000;stroke-width:7.99998;stroke-linecap:butt;stroke-linejoin:miter;stroke-dasharray:none"
       d="M 1603.8247,675.70955 V 854.69929 L 1077.9161,854.699"
       id="path10"
       sodipodi:nodetypes="ccc" /><path
       style="fill:none;stroke:#000000;stroke-width:7.99998;stroke-linecap:butt;stroke-linejoin:miter;stroke-dasharray:none"
       d="m 296.057,425.22653 0.65819,-199.92582 519.50992,0 m 287.54979,0 500.0498,0 v 178.98974"
       id="path10-5-0-7-7-0"
       sodipodi:nodetypes="cccccc" /></g><path
     id="use1-9"
     d="m 1708.3538,513.56744 c 0.8377,-3.44368 1.21,-3.62983 4.8398,-3.62983 h 6.7012 c 8.0042,0 13.9609,2.41988 13.9609,9.67954 0,4.74669 -2.4199,18.42833 -21.1275,18.42833 h -10.5172 z m 12.9371,25.59491 c 11.541,-2.51296 20.569,-9.95875 20.569,-17.96297 0,-7.25965 -7.3527,-13.96086 -20.2898,-13.96086 h -25.2226 c -1.8615,0 -2.6991,0 -2.6991,1.76837 0,0.93072 0.6515,0.93072 2.4199,0.93072 5.5843,0 5.5843,0.74458 5.5843,1.76838 0,0.18613 0,0.74458 -0.3723,2.14066 l -12.5648,50.07296 c -0.8376,3.25753 -1.0237,4.18825 -7.4457,4.18825 -2.1407,0 -2.7922,0 -2.7922,1.76838 0,0.93072 1.0238,0.93072 1.303,0.93072 1.6753,0 3.6298,-0.18614 5.3982,-0.18614 h 10.9825 c 1.6753,0 3.6299,0.18614 5.3052,0.18614 0.7445,0 1.7683,0 1.7683,-1.76837 0,-0.93073 -0.8376,-0.93073 -2.2337,-0.93073 -5.6774,0 -5.6774,-0.74457 -5.6774,-1.6753 0,-0.0931 0,-0.74458 0.1861,-1.48916 l 6.2359,-25.03647 h 11.1687 c 8.8418,0 10.5172,5.58434 10.5172,8.65573 0,1.39609 -0.9308,5.02591 -1.5823,7.44579 -1.0238,4.28133 -1.303,5.30513 -1.303,7.07351 0,6.60813 5.3982,9.67952 11.6341,9.67952 7.5388,0 10.7964,-9.21416 10.7964,-10.51718 0,-0.6515 -0.4654,-0.93072 -1.0238,-0.93072 -0.7446,0 -0.9308,0.55843 -1.1169,1.30301 -2.2337,6.60814 -6.0497,8.28345 -8.3765,8.28345 -2.3268,0 -3.816,-1.0238 -3.816,-5.21206 0,-2.23373 1.1169,-10.70332 1.2099,-11.16868 0.4654,-3.44368 0.4654,-3.81598 0.4654,-4.56055 0,-6.79429 -5.4913,-9.67953 -9.028,-10.7964 z"
     style="stroke-width:1.50666"
     inkscape:label="R" /><g
     id="g9"
     transform="matrix(0.67184797,0,0,0.67184797,43.467484,-800.72385)"
     style="stroke-width:1.48843"
     inkscape:label="I"><path
       id="use6"
       d="m 706.37278,1285.6869 c 1.24678,-4.8486 1.52385,-6.2339 11.63668,-6.2339 3.0477,0 4.15596,0 4.15596,-2.6321 0,-1.3853 -1.52385,-1.3853 -1.93945,-1.3853 -2.49357,0 -5.54127,0.277 -8.03485,0.277 h -17.03943 c -2.77064,0 -5.95687,-0.277 -8.72751,-0.277 -1.10825,0 -2.63211,0 -2.63211,2.6321 0,1.3853 1.10826,1.3853 3.87889,1.3853 8.58899,0 8.58899,1.1082 8.58899,2.6321 0,0.9697 -0.27707,1.8009 -0.55413,3.0477 l -18.70181,74.6687 c -1.24679,4.8486 -1.52385,6.234 -11.63668,6.234 -3.04771,0 -4.2945,0 -4.2945,2.6321 0,1.3853 1.38533,1.3853 2.07798,1.3853 2.49358,0 5.54128,-0.2771 8.03486,-0.2771 h 17.03943 c 2.77063,0 5.81834,0.2771 8.58897,0.2771 1.10826,0 2.77064,0 2.77064,-2.4936 0,-1.5238 -0.83119,-1.5238 -3.87889,-1.5238 -8.58898,0 -8.58898,-1.1083 -8.58898,-2.7707 0,-0.277 0,-0.9697 0.55412,-3.1862 z"
       style="stroke-width:2.24256" /><path
       id="use7"
       d="m 768.50044,1403.8547 c 0,-0.1386 0,-0.4156 -0.41559,-0.8312 -6.37247,-6.511 -23.4119,-24.2431 -23.4119,-67.4651 0,-43.2219 16.76237,-60.8155 23.55043,-67.7421 0,-0.1385 0.27706,-0.4156 0.27706,-0.8312 0,-0.4156 -0.41559,-0.6926 -0.96972,-0.6926 -1.52385,0 -13.29906,10.2513 -20.08713,25.4898 -6.92659,15.3771 -8.86604,30.3385 -8.86604,43.6376 0,9.9743 0.96972,26.8752 9.28163,44.7458 6.64954,14.4073 18.00916,24.5202 19.67154,24.5202 0.69266,0 0.96972,-0.2771 0.96972,-0.8312 z"
       style="stroke-width:2.24256" /><path
       id="use8"
       d="m 803.01304,1314.363 h 12.74494 c 2.6321,0 4.01742,0 4.01742,-2.4935 0,-1.5239 -0.83119,-1.5239 -3.60183,-1.5239 h -12.19081 l 5.12568,-20.2256 c 0.55413,-1.9395 0.55413,-2.2166 0.55413,-3.1863 0,-2.2165 -1.80091,-3.4633 -3.60183,-3.4633 -1.10826,0 -4.29449,0.4156 -5.40275,4.8486 l -5.40274,22.0266 h -13.022 c -2.77064,0 -4.01743,0 -4.01743,2.6321 0,1.3853 0.96973,1.3853 3.60183,1.3853 h 12.32934 l -9.1431,36.5725 c -1.10826,4.8486 -1.52386,6.2339 -1.52386,8.0348 0,6.511 4.57156,12.4679 12.32935,12.4679 13.99172,0 21.47245,-20.2257 21.47245,-21.1954 0,-0.8312 -0.55413,-1.2468 -1.38532,-1.2468 -0.27706,0 -0.8312,0 -1.10826,0.5542 -0.13853,0.1385 -0.27706,0.277 -1.24678,2.4935 -2.90917,6.9266 -9.28165,16.6239 -17.3165,16.6239 -4.15595,0 -4.43302,-3.4633 -4.43302,-6.511 0,-0.1386 0,-2.7707 0.4156,-4.4331 z"
       style="stroke-width:2.24256" /><path
       id="use9"
       d="m 860.58473,1335.5584 c 0,-9.9743 -0.96972,-26.8752 -9.28164,-44.7458 -6.64953,-14.4073 -18.00914,-24.5201 -19.67153,-24.5201 -0.4156,0 -0.96972,0.1385 -0.96972,0.8311 0,0.2771 0.13853,0.4156 0.27706,0.6927 6.64953,6.9266 23.55043,24.5202 23.55043,67.6036 0,43.222 -16.76237,60.8155 -23.55043,67.7421 -0.13853,0.2771 -0.27706,0.4156 -0.27706,0.6927 0,0.6926 0.55412,0.8312 0.96972,0.8312 1.52385,0 13.29907,-10.2514 20.08713,-25.4899 6.9266,-15.3771 8.86604,-30.3385 8.86604,-43.6376 z"
       style="stroke-width:2.24256" /></g><path
     id="use10"
     d="m 170.33913,516.82498 c 2.97832,1.20994 6.14278,1.20994 7.91115,1.20994 2.41989,0 7.25965,0 7.25965,-2.6991 0,-1.6753 -1.76837,-2.32681 -6.51507,-2.32681 -2.32681,0 -5.11898,0.27922 -8.37651,1.6753 -2.88525,-1.39608 -4.00212,-3.53675 -4.00212,-5.58434 0,-5.77049 9.1211,-9.1211 17.40454,-9.1211 1.58223,0 4.93284,0 8.84188,2.88525 0.55844,0.37229 0.83765,0.6515 1.48916,0.6515 1.11687,0 2.32681,-1.20994 2.32681,-2.32681 0,-1.6753 -5.3982,-5.21205 -11.82019,-5.21205 -10.42411,0 -20.28979,6.23585 -20.28979,13.12321 0,3.44368 2.23374,5.58434 3.81597,6.70121 -5.3982,3.07139 -8.56266,8.0973 -8.56266,12.65785 0,6.42199 5.77049,11.54097 14.70544,11.54097 12.28556,0 17.21839,-8.19037 17.21839,-9.49338 0,-0.46536 -0.37229,-0.83765 -0.83765,-0.83765 -0.46536,0 -0.65151,0.27921 -1.02379,0.83765 -1.0238,1.76838 -3.44368,5.49127 -14.5193,5.49127 -5.77049,0 -13.40242,-1.48916 -13.40242,-8.0973 0,-3.16446 2.3268,-7.91115 8.37651,-11.07561 z m 2.88524,-1.11687 c 2.51296,-0.83765 4.93284,-0.83765 5.58435,-0.83765 2.60603,0 3.07139,0.18614 4.56055,0.55843 -1.58223,0.74458 -1.76838,0.74458 -5.11899,0.74458 -1.6753,0 -3.16446,0 -5.02591,-0.46536 z"
     style="stroke-width:1.50666"
     inkscape:label="e" /><path
     id="use2"
     d="m 992.01101,701.43717 c 0,-0.82668 -0.64297,-0.82668 -0.82668,-0.82668 -0.18373,0 -0.55113,0 -1.28595,0.91854 l -6.33791,7.71571 c -3.21488,-5.51122 -8.26683,-8.63425 -15.15586,-8.63425 -19.84039,0 -40.41562,20.11596 -40.41562,41.70158 0,15.33956 10.74688,24.89235 24.15752,24.89235 7.34829,0 13.77805,-3.12303 19.10557,-7.62386 7.99127,-6.70532 10.37946,-15.61513 10.37946,-16.34996 0,-0.82668 -0.73483,-0.82668 -1.01039,-0.82668 -0.82668,0 -0.91853,0.55112 -1.10224,0.91854 -4.22527,14.32917 -16.62552,21.2182 -25.81089,21.2182 -9.73649,0 -18.18703,-6.24605 -18.18703,-19.28928 0,-2.93931 0.91854,-18.92186 11.29801,-30.95469 5.05195,-5.87864 13.6862,-11.02244 22.4123,-11.02244 10.1039,0 14.60473,8.35868 14.60473,17.72776 0,2.3882 -0.27556,4.40898 -0.27556,4.77639 0,0.82669 0.91854,0.82669 1.1941,0.82669 1.01039,0 1.10225,-0.0919 1.46966,-1.74523 z"
     style="fill:#000000;stroke-width:1.50666"
     inkscape:label="C" /><path
     id="use3"
     d="m 962.61783,60.403984 c 0.82668,-3.49044 1.10224,-4.408979 9.18537,-4.408979 2.48005,0 3.12303,0 3.12303,-1.74522 0,-0.918535 -1.0104,-0.918535 -1.37781,-0.918535 -1.83707,0 -3.94971,0.183693 -5.78678,0.183693 h -12.3084 c -1.74522,0 -3.766,-0.183693 -5.51122,-0.183693 -0.73483,0 -1.74522,0 -1.74522,1.74522 0,0.918535 0.82669,0.918535 2.20449,0.918535 5.60308,0 5.60308,0.734828 5.60308,1.74522 0,0.183693 0,0.734828 -0.36742,2.112634 L 943.2367,109.27014 c -0.82668,3.21488 -1.01039,4.13342 -7.44015,4.13342 -1.74522,0 -2.66376,0 -2.66376,1.65337 0,1.01039 0.55113,1.01039 2.3882,1.01039 h 41.15046 c 2.02078,0 2.11263,-0.0919 2.7556,-1.74522 l 7.07274,-19.564836 c 0.18369,-0.459271 0.36742,-1.010392 0.36742,-1.285953 0,-0.551121 -0.45927,-0.918538 -0.91854,-0.918538 -0.0919,0 -0.55112,0 -0.73482,0.367417 -0.1837,0.09185 -0.1837,0.275561 -0.91854,2.020781 -2.93932,8.083119 -7.07274,18.462589 -22.59601,18.462589 h -8.81796 c -1.28595,0 -1.46966,0 -2.02078,-0.0918 -1.01039,-0.0919 -1.10225,-0.27556 -1.10225,-1.01039 0,-0.64298 0.18371,-1.1941 0.36742,-2.02078 z"
     style="fill:#000000;stroke-width:1.50666"
     inkscape:label="L" /></svg>
