<?xml version="1.0" encoding="UTF-8" standalone="no"?>
<svg
   width="1920"
   height="1080"
   version="1.1"
   id="svg3"
   sodipodi:docname="diagram.svg"
   inkscape:version="1.4.2 (ebf0e940d0, 2025-05-08)"
   xml:space="preserve"
   xmlns:inkscape="http://www.inkscape.org/namespaces/inkscape"
   xmlns:sodipodi="http://sodipodi.sourceforge.net/DTD/sodipodi-0.dtd"
   xmlns="http://www.w3.org/2000/svg"
   xmlns:svg="http://www.w3.org/2000/svg"><sodipodi:namedview
     id="namedview3"
     pagecolor="#ffffff"
     bordercolor="#000000"
     borderopacity="0.25"
     inkscape:showpageshadow="2"
     inkscape:pageopacity="0.0"
     inkscape:pagecheckerboard="0"
     inkscape:deskcolor="#d1d1d1"
     inkscape:zoom="0.25"
     inkscape:cx="1650"
     inkscape:cy="566"
     inkscape:window-width="1920"
     inkscape:window-height="1016"
     inkscape:window-x="0"
     inkscape:window-y="0"
     inkscape:window-maximized="1"
     inkscape:current-layer="svg3"
     showgrid="false"
     showguides="false" /><rect
     style="fill:#ffffff;stroke:none;stroke-width:4;stroke-linecap:round;stroke-linejoin:round;stroke-dasharray:none"
     id="rect17"
     width="1920"
     height="1080"
     x="0"
     y="0"
     inkscape:label="background" /><g
     id="g8"
     transform="rotate(-90,-266.90191,522.18114)"
     style="stroke:#000000;stroke-width:0.617675"
     inkscape:label="dc-source"><path
       d="m -416.66941,1040.9191 h 106.44821 v -34.6391 70.3956"
       style="fill:none;fill-rule:evenodd;stroke:#000000;stroke-width:8;stroke-linecap:butt;stroke-linejoin:miter;stroke-dasharray:none;stroke-opacity:1"
       id="path5149"
       sodipodi:nodetypes="cccc" /><path
       d="m -152.77213,1040.9191 h -113.8004 v -72.87267 147.20117"
       style="fill:none;fill-rule:evenodd;stroke:#000000;stroke-width:8;stroke-linecap:butt;stroke-linejoin:miter;stroke-dasharray:none;stroke-opacity:1"
       id="path5151"
       sodipodi:nodetypes="cccc" /><path
       d="m -238.53376,1004.0372 h 40.26375"
       style="fill:none;fill-rule:evenodd;stroke:#000000;stroke-width:8;stroke-linecap:butt;stroke-linejoin:miter;stroke-dasharray:none;stroke-opacity:1"
       id="path5153" /><path
       d="m -218.40185,983.90533 v 40.26377"
       style="fill:none;fill-rule:evenodd;stroke:#000000;stroke-width:8;stroke-linecap:butt;stroke-linejoin:miter;stroke-dasharray:none;stroke-opacity:1"
       id="path5153-6" /></g><!-- Tank --><!-- Inlet arrow --><!-- Outlet arrow --><!-- Labels --><!-- Arrowhead definition --><defs
     id="defs3"><marker
       style="overflow:visible"
       id="Triangle-3-7-7-9-2"
       refX="0"
       refY="0"
       orient="auto-start-reverse"
       inkscape:stockid="Triangle arrow"
       markerWidth="1"
       markerHeight="1"
       viewBox="0 0 1 1"
       inkscape:isstock="true"
       inkscape:collect="always"
       preserveAspectRatio="xMidYMid"><path
         transform="scale(0.5)"
         style="fill:context-stroke;fill-rule:evenodd;stroke:context-stroke;stroke-width:1pt"
         d="M 5.77,0 -2.88,5 V -5 Z"
         id="path135-6-9-5-1-0" /></marker><marker
       style="overflow:visible"
       id="Triangle-3-7-7-9-2-7"
       refX="0"
       refY="0"
       orient="auto-start-reverse"
       inkscape:stockid="Triangle arrow"
       markerWidth="1"
       markerHeight="1"
       viewBox="0 0 1 1"
       inkscape:isstock="true"
       inkscape:collect="always"
       preserveAspectRatio="xMidYMid"><path
         transform="scale(0.5)"
         style="fill:context-stroke;fill-rule:evenodd;stroke:context-stroke;stroke-width:1pt"
         d="M 5.77,0 -2.88,5 V -5 Z"
         id="path135-6-9-5-1-0-4" /></marker></defs><g
     id="g3"
     transform="matrix(1.6130029,0,0,1.6249703,260.80862,-363.13567)"
     style="stroke-width:0.617675"
     inkscape:label="dc-motor-with-load"><path
       id="path3-9-3-0"
       style="fill:#cdab8f;stroke:#000000;stroke-width:4.9414;stroke-linecap:round;stroke-linejoin:round;stroke-dashoffset:19.2"
       d="m 607.46008,555.78594 c 0,-44.56387 -10.84815,-80.69004 -24.23002,-80.69006 -13.38184,-2e-5 -24.22999,36.12617 -24.22999,80.69006 0,44.56391 10.84815,80.69009 24.22999,80.69007 13.38187,0 24.23002,-36.12618 24.23002,-80.69007 z"
       sodipodi:nodetypes="scscs" /><path
       id="path3-9-0"
       style="fill:#c64600;stroke:#000000;stroke-width:4.9414;stroke-linecap:round;stroke-linejoin:round;stroke-dashoffset:19.2"
       d="m 578.22998,571.77712 c 2.76148,-10e-6 5.00009,-7.1595 5.00009,-15.99117 0,-8.83167 -2.23861,-15.99117 -5.00009,-15.99117 l -121.94775,0 v 31.98234 z"
       sodipodi:nodetypes="cscccc" /><path
       id="path2-2"
       style="fill:#c0bfbc;stroke:#000000;stroke-width:4.9414;stroke-linecap:round;stroke-linejoin:round;stroke-dashoffset:19.2"
       d="m 185.58545,555.78595 c 0,67.95124 -17.16787,123.03658 -27.75669,123.03658 h 262.5878 c 21.17764,2e-5 38.34551,-55.08534 38.34551,-123.03658 0,-67.95124 -17.16787,-123.03658 -38.34551,-123.03658 h -262.5878 c 10.58882,0 27.75669,55.08534 27.75669,123.03658 z"
       sodipodi:nodetypes="sccsccs" /><path
       id="path3-9-3"
       style="fill:#deddda;stroke:#000000;stroke-width:4.94139;stroke-linecap:round;stroke-linejoin:round;stroke-dashoffset:19.2"
       d="m 196.17375,555.78445 c 0,-67.95039 -17.16763,-123.03506 -38.34499,-123.03508 -21.17735,-2e-5 -38.34501,55.08467 -38.34501,123.03508 0,67.95041 17.16766,123.0351 38.34501,123.03508 21.17736,-10e-6 38.34499,-55.08469 38.34499,-123.03508 z"
       sodipodi:nodetypes="scscs" /><path
       style="fill:none;stroke:#000000;stroke-width:4.9414;stroke-linecap:round;stroke-linejoin:round;stroke-dashoffset:19.2"
       d="M -5.5626479,474.58531 H 155.39275"
       id="path3"
       sodipodi:nodetypes="cc" /><path
       style="fill:none;stroke:#000000;stroke-width:4.9414;stroke-linecap:round;stroke-linejoin:round;stroke-dashoffset:19.2"
       d="M -5.5626441,636.9866 H 155.39275"
       id="path3-5"
       sodipodi:nodetypes="cc" /><ellipse
       style="fill:#ffffff;stroke:#000000;stroke-width:4.94139;stroke-linecap:round;stroke-linejoin:round;stroke-dashoffset:19.2"
       id="path4-4"
       cx="-5.562654"
       cy="636.98657"
       rx="11.927327"
       ry="11.827656" /><ellipse
       style="fill:#ffffff;stroke:#000000;stroke-width:4.94139;stroke-linecap:round;stroke-linejoin:round;stroke-dashoffset:19.2"
       id="path4"
       cx="-5.5626578"
       cy="474.5853"
       rx="11.927327"
       ry="11.827656" /><path
       id="path3-9"
       style="fill:#b5835a;stroke:#000000;stroke-width:4.9414;stroke-linecap:round;stroke-linejoin:round;stroke-dashoffset:19.2"
       d="m 583.23005,636.47602 c 13.38186,-10e-6 24.23,-36.12618 24.23,-80.69007 0,-44.56389 -10.84814,-80.69006 -24.23,-80.69007 v 0 h 139.99994 c 13.38186,10e-6 24.23,36.12618 24.23,80.69007 0,44.56389 -10.84814,80.69006 -24.23,80.69007 z"
       sodipodi:nodetypes="cscccsccc" /></g><path
     id="use10-9"
     d="m 126.11825,517.79431 c 2.97832,1.20993 6.14278,1.20993 7.91115,1.20993 2.41989,0 7.25965,0 7.25965,-2.69909 0,-1.67529 -1.76837,-2.32681 -6.51507,-2.32681 -2.32681,0 -5.11898,0.27922 -8.37651,1.6753 -2.88525,-1.39608 -4.00212,-3.53675 -4.00212,-5.58434 0,-5.77049 9.1211,-9.12109 17.40454,-9.12109 1.58223,0 4.93284,0 8.84188,2.88525 0.55844,0.37228 0.83765,0.6515 1.48916,0.6515 1.11687,0 2.32681,-1.20996 2.32681,-2.32682 0,-1.67531 -5.3982,-5.21206 -11.82019,-5.21206 -10.42411,0 -20.28979,6.23586 -20.28979,13.12322 0,3.44368 2.23374,5.58434 3.81597,6.70121 -5.3982,3.07139 -8.56265,8.09729 -8.56265,12.65785 0,6.42198 5.77048,11.54096 14.70543,11.54096 12.28556,0 17.21839,-8.19037 17.21839,-9.49336 0,-0.46536 -0.37229,-0.83766 -0.83765,-0.83766 -0.46536,0 -0.65151,0.2792 -1.02379,0.83766 -1.0238,1.76837 -3.44368,5.49126 -14.5193,5.49126 -5.77049,0 -13.40242,-1.48916 -13.40242,-8.09729 0,-3.16447 2.3268,-7.91116 8.37651,-11.07562 z m 2.88524,-1.11688 c 2.51296,-0.83764 4.93284,-0.83764 5.58435,-0.83764 2.60603,0 3.07139,0.18614 4.56055,0.55842 -1.58223,0.7446 -1.76838,0.7446 -5.11899,0.7446 -1.6753,0 -3.16446,0 -5.02591,-0.46538 z"
     style="stroke-width:1.50666"
     inkscape:label="e" /><path
     d="m 655.25525,554.11199 q 0.704,0.064 1.6,0.128 0.96,0 2.24,0 7.488,0 11.072,-3.776 3.648,-3.776 3.648,-10.432 0,-6.976 -3.456,-10.56 -3.456,-3.584 -10.944,-3.584 -1.024,0 -2.112,0.064 -1.088,0 -2.048,0.128 z m 28.864,-14.08 q 0,5.76 -1.792,10.048 -1.792,4.288 -5.12,7.104 -3.264,2.816 -8,4.224 -4.736,1.408 -10.624,1.408 -2.688,0 -6.272,-0.256 -3.584,-0.192 -7.04,-0.896 v -43.2 q 3.456,-0.64 7.168,-0.832 3.776,-0.256 6.464,-0.256 5.696,0 10.304,1.28 4.672,1.28 8,4.032 3.328,2.752 5.12,7.04 1.792,4.288 1.792,10.304 z m 28.54396,23.104 q -10.816,0 -16.512,-6.016 -5.632,-6.016 -5.632,-17.088 0,-5.504 1.728,-9.792 1.728,-4.352 4.736,-7.296 3.008,-3.008 7.168,-4.544 4.16,-1.536 9.024,-1.536 2.816,0 5.12,0.448 2.304,0.384 4.032,0.96 1.728,0.512 2.88,1.088 1.152,0.576 1.664,0.896 l -2.88,8.064 q -2.048,-1.088 -4.8,-1.856 -2.688,-0.768 -6.144,-0.768 -2.304,0 -4.544,0.768 -2.176,0.768 -3.904,2.496 -1.664,1.664 -2.688,4.352 -1.024,2.688 -1.024,6.528 0,3.072 0.64,5.76 0.704,2.624 2.176,4.544 1.536,1.92 3.968,3.072 2.432,1.088 5.888,1.088 2.176,0 3.904,-0.256 1.728,-0.256 3.072,-0.576 1.344,-0.384 2.368,-0.832 1.024,-0.448 1.856,-0.832 l 2.752,8 q -2.112,1.28 -5.952,2.304 -3.84,1.024 -8.896,1.024 z m 48.38404,-45.248 q 1.152,2.112 2.624,5.248 1.536,3.072 3.136,6.72 1.664,3.584 3.264,7.36 1.6,3.776 3.008,7.104 1.408,-3.328 3.008,-7.104 1.6,-3.776 3.2,-7.36 1.664,-3.648 3.136,-6.72 1.536,-3.136 2.688,-5.248 h 9.088 q 0.64,4.416 1.152,9.92 0.576,5.44 0.96,11.392 0.448,5.888 0.768,11.84 0.384,5.952 0.64,11.2 h -9.728 q -0.192,-6.464 -0.512,-14.08 -0.32,-7.616 -0.96,-15.36 -1.152,2.688 -2.56,5.952 -1.408,3.264 -2.816,6.528 -1.344,3.264 -2.624,6.272 -1.28,2.944 -2.176,5.056 h -6.976 q -0.896,-2.112 -2.176,-5.056 -1.28,-3.008 -2.688,-6.272 -1.344,-3.264 -2.752,-6.528 -1.408,-3.264 -2.56,-5.952 -0.64,7.744 -0.96,15.36 -0.32,7.616 -0.512,14.08 h -9.728 q 0.256,-5.248 0.576,-11.2 0.384,-5.952 0.768,-11.84 0.448,-5.952 0.96,-11.392 0.576,-5.504 1.216,-9.92 z m 76.47995,27.456 q 0,3.968 -1.152,7.296 -1.152,3.264 -3.328,5.632 -2.176,2.304 -5.248,3.584 -3.008,1.28 -6.784,1.28 -3.712,0 -6.784,-1.28 -3.008,-1.28 -5.184,-3.584 -2.176,-2.368 -3.392,-5.632 -1.216,-3.328 -1.216,-7.296 0,-3.968 1.216,-7.232 1.28,-3.264 3.456,-5.568 2.24,-2.304 5.248,-3.584 3.072,-1.28 6.656,-1.28 3.648,0 6.656,1.28 3.072,1.28 5.248,3.584 2.176,2.304 3.392,5.568 1.216,3.264 1.216,7.232 z m -9.728,0 q 0,-4.416 -1.792,-6.912 -1.728,-2.56 -4.992,-2.56 -3.264,0 -5.056,2.56 -1.792,2.496 -1.792,6.912 0,4.416 1.792,7.04 1.792,2.56 5.056,2.56 3.264,0 4.992,-2.56 1.792,-2.624 1.792,-7.04 z m 16.76803,-25.152 9.536,-1.536 v 9.92 h 11.456 v 7.936 h -11.456 v 11.84 q 0,3.008 1.024,4.8 1.088,1.792 4.288,1.792 1.536,0 3.136,-0.256 1.664,-0.32 3.008,-0.832 l 1.344,7.424 q -1.728,0.704 -3.84,1.216 -2.112,0.512 -5.184,0.512 -3.904,0 -6.464,-1.024 -2.56,-1.088 -4.096,-2.944 -1.536,-1.92 -2.176,-4.608 -0.576,-2.688 -0.576,-5.952 z m 58.94398,25.152 q 0,3.968 -1.152,7.296 -1.152,3.264 -3.328,5.632 -2.176,2.304 -5.248,3.584 -3.008,1.28 -6.784,1.28 -3.712,0 -6.784,-1.28 -3.008,-1.28 -5.184,-3.584 -2.176,-2.368 -3.392,-5.632 -1.216,-3.328 -1.216,-7.296 0,-3.968 1.216,-7.232 1.28,-3.264 3.456,-5.568 2.24,-2.304 5.248,-3.584 3.072,-1.28 6.656,-1.28 3.648,0 6.656,1.28 3.072,1.28 5.248,3.584 2.176,2.304 3.392,5.568 1.216,3.264 1.216,7.232 z m -9.728,0 q 0,-4.416 -1.792,-6.912 -1.728,-2.56 -4.992,-2.56 -3.264,0 -5.056,2.56 -1.792,2.496 -1.792,6.912 0,4.416 1.792,7.04 1.792,2.56 5.056,2.56 3.264,0 4.992,-2.56 1.792,-2.624 1.792,-7.04 z m 37.37603,-8.32 q -1.28,-0.32 -3.008,-0.64 -1.728,-0.384 -3.712,-0.384 -0.896,0 -2.176,0.192 -1.216,0.128 -1.856,0.32 v 25.728 h -9.536 v -31.872 q 2.56,-0.896 6.016,-1.664 3.52,-0.832 7.808,-0.832 0.768,0 1.856,0.128 1.088,0.064 2.176,0.256 1.088,0.128 2.176,0.384 1.088,0.192 1.856,0.512 z"
     id="text3"
     style="font-weight:bold;font-size:64px;line-height:1.3;font-family:Ubuntu;-inkscape-font-specification:'Ubuntu Bold';text-align:end;text-anchor:end;white-space:pre;stroke-width:8;stroke-linecap:round;stroke-linejoin:round;stroke-dashoffset:19.2"
     aria-label="DC Motor"
     inkscape:label="dc-motor-text" /><path
     id="path2-2-4"
     style="stroke-width:4.9414;fill:none;stroke:#000000;stroke-linecap:round;stroke-linejoin:round;stroke-dashoffset:19.2;marker-end:url(#Triangle-3-7-7-9-2)"
     d="m 773.51105,446.81846 c 21.17764,-2e-5 38.34551,49.19809 38.34551,109.88703 0,40.94002 -7.81256,76.65092 -19.39836,95.55716"
     sodipodi:nodetypes="ccc"
     transform="matrix(1.6130029,0,0,1.6249703,260.80862,-363.13567)"
     inkscape:label="rotate-arrow2" /><path
     id="path2-2-4-3"
     style="fill:none;stroke:#000000;stroke-width:7.99998;stroke-linecap:round;stroke-linejoin:round;stroke-dashoffset:19.2;marker-end:url(#Triangle-3-7-7-9-2-7)"
     d="m 1042.2511,441.11267 c 34.1596,-2e-5 61.8514,43.76827 61.8514,97.75918 0,36.42161 -12.6017,68.19123 -31.2896,85.01085"
     sodipodi:nodetypes="ccc"
     inkscape:label="rotate-arrow1" /><path
     id="use3-2"
     d="m 1655.0192,521.47526 c 0,-12.11232 -3.7999,-23.86841 -13.5373,-23.86841 -16.6248,0 -34.3183,34.79326 -34.3183,60.91788 0,5.46242 1.1875,23.86841 13.6561,23.86841 16.1498,0 34.1995,-33.962 34.1995,-60.91788 z m -35.9807,16.74352 c 1.7812,-7.00615 4.2749,-16.98101 9.0248,-25.41214 3.9187,-7.1249 8.0749,-12.82482 13.2999,-12.82482 3.9186,0 6.5311,3.32496 6.5311,14.72479 0,4.27494 -0.3562,10.21236 -3.7999,23.51217 z m 24.2246,3.56244 c -2.9687,11.63733 -5.4624,19.11848 -9.7373,26.59962 -3.4437,6.05617 -7.5999,11.63733 -12.5874,11.63733 -3.6811,0 -6.6499,-2.84995 -6.6499,-14.60603 0,-7.71865 1.9,-15.79353 3.8,-23.63092 z"
     style="fill:#000000;stroke-width:1.50667"
     inkscape:label="theta" /><path
     id="use1-4"
     d="m 1375.5176,508.39275 c 0.95,-3.56244 1.1875,-4.74993 7.0062,-4.74993 1.8999,0 3.0874,0 3.0874,-2.13747 0,-1.30623 -1.0687,-1.30623 -1.5437,-1.30623 -2.0187,0 -4.275,0.23748 -6.4124,0.23748 h -6.5312 c -4.9874,0 -10.2123,-0.23748 -15.1998,-0.23748 -1.0687,0 -2.4937,0 -2.4937,2.13747 0,1.18748 0.95,1.18748 0.95,1.30623 h 2.9687 c 9.4999,0 9.4999,0.94999 9.4999,2.73121 0,0.11876 0,0.94999 -0.475,2.84996 l -13.6561,54.26797 c -3.0874,12.11233 -11.0436,17.931 -16.7435,17.931 -4.0374,0 -9.7373,-1.89998 -11.1623,-8.19364 0.475,0.11875 1.0687,0.2375 1.5437,0.2375 3.9187,0 7.0062,-3.4437 7.0062,-6.8874 0,-1.89997 -1.1875,-4.39369 -4.75,-4.39369 -2.1374,0 -7.1249,1.18749 -7.1249,8.90612 0,7.48115 6.1749,12.70607 14.7248,12.70607 10.8061,0 22.4434,-8.19363 25.2934,-19.47472 z"
     style="fill:#000000;stroke-width:1.50667"
     inkscape:label="J" /></svg>
