<?xml version="1.0" encoding="UTF-8" standalone="no"?>
<svg
   width="1920"
   height="1080"
   version="1.1"
   id="svg3"
   sodipodi:docname="diagram.svg"
   inkscape:version="1.4.2 (ebf0e940d0, 2025-05-08)"
   xml:space="preserve"
   xmlns:inkscape="http://www.inkscape.org/namespaces/inkscape"
   xmlns:sodipodi="http://sodipodi.sourceforge.net/DTD/sodipodi-0.dtd"
   xmlns="http://www.w3.org/2000/svg"
   xmlns:svg="http://www.w3.org/2000/svg"><sodipodi:namedview
     id="namedview3"
     pagecolor="#ffffff"
     bordercolor="#000000"
     borderopacity="0.25"
     inkscape:showpageshadow="2"
     inkscape:pageopacity="0.0"
     inkscape:pagecheckerboard="0"
     inkscape:deskcolor="#d1d1d1"
     inkscape:zoom="0.5"
     inkscape:cx="771"
     inkscape:cy="351"
     inkscape:window-width="1920"
     inkscape:window-height="1016"
     inkscape:window-x="0"
     inkscape:window-y="0"
     inkscape:window-maximized="1"
     inkscape:current-layer="g1"
     showgrid="false"
     showguides="false" /><rect
     style="fill:#ffffff;stroke:none;stroke-width:4;stroke-linecap:round;stroke-linejoin:round;stroke-dasharray:none"
     id="rect17"
     width="1920"
     height="1080"
     x="0"
     y="0"
     inkscape:label="background" /><!-- Tank --><!-- Inlet arrow --><!-- Outlet arrow --><!-- Labels --><!-- Arrowhead definition --><defs
     id="defs3"><marker
       style="overflow:visible"
       id="Triangle-3-7-7-9"
       refX="0"
       refY="0"
       orient="auto-start-reverse"
       inkscape:stockid="Triangle arrow"
       markerWidth="1"
       markerHeight="1"
       viewBox="0 0 1 1"
       inkscape:isstock="true"
       inkscape:collect="always"
       preserveAspectRatio="xMidYMid"><path
         transform="scale(0.5)"
         style="fill:context-stroke;fill-rule:evenodd;stroke:context-stroke;stroke-width:1pt"
         d="M 5.77,0 -2.88,5 V -5 Z"
         id="path135-6-9-5-1" /></marker><marker
       style="overflow:visible"
       id="Triangle-3-7-7-9-4"
       refX="0"
       refY="0"
       orient="auto-start-reverse"
       inkscape:stockid="Triangle arrow"
       markerWidth="1"
       markerHeight="1"
       viewBox="0 0 1 1"
       inkscape:isstock="true"
       inkscape:collect="always"
       preserveAspectRatio="xMidYMid"><path
         transform="scale(0.5)"
         style="fill:context-stroke;fill-rule:evenodd;stroke:context-stroke;stroke-width:1pt"
         d="M 5.77,0 -2.88,5 V -5 Z"
         id="path135-6-9-5-1-5" /></marker><marker
       style="overflow:visible"
       id="Triangle-3-7-7-9-4-0"
       refX="0"
       refY="0"
       orient="auto-start-reverse"
       inkscape:stockid="Triangle arrow"
       markerWidth="1"
       markerHeight="1"
       viewBox="0 0 1 1"
       inkscape:isstock="true"
       inkscape:collect="always"
       preserveAspectRatio="xMidYMid"><path
         transform="scale(0.5)"
         style="fill:context-stroke;fill-rule:evenodd;stroke:context-stroke;stroke-width:1pt"
         d="M 5.77,0 -2.88,5 V -5 Z"
         id="path135-6-9-5-1-5-6" /></marker></defs><path
     d="m 418.225,225.30105 h 62.01516 c 0,0 -21.15522,-70.23995 15.64347,-70.9541 36.79864,-0.71415 39.10864,70.9541 25.14134,70.9541 -13.96744,0 -13.40873,-70.9541 22.9064,-70.9541 36.3152,0 41.9022,70.9541 21.7892,70.9541 -20.1131,0 -12.2913,-70.9541 23.4652,-70.9541 35.75653,0 43.01953,70.9541 20.67173,70.9541 -22.34783,0 -10.05652,-70.9541 25.1413,-70.9541 35.1978,0 18.9956,70.9541 18.9956,70.9541 h 59.7804"
     style="fill:none;fill-rule:evenodd;stroke:#000000;stroke-width:8;stroke-linecap:butt;stroke-linejoin:round;stroke-dasharray:none;stroke-opacity:1"
     id="path4176"
     sodipodi:nodetypes="cczszszszcc"
     inkscape:label="inductor" /><path
     d="m 296.05696,235.931 v 89.24236 l 35.1066,12.34801 -67.5807,20.20585 68.4585,22.45089 -67.5808,19.64455 66.703,21.32837 -67.1419,21.32837 32.0353,11.78668 v 89.80364"
     style="fill:none;fill-rule:evenodd;stroke:#000000;stroke-width:8;stroke-linecap:butt;stroke-linejoin:miter;stroke-miterlimit:5;stroke-dasharray:none;stroke-opacity:1"
     id="path4178"
     sodipodi:nodetypes="cccccccccc"
     inkscape:label="resistor" /><g
     id="g8"
     transform="matrix(0,-0.99999771,0.99999771,0,-744.8601,404.31024)"
     style="stroke:#000000;stroke-width:1"
     inkscape:label="dc-source"><path
       d="m -418.60807,1040.9191 h 108.38687 v -34.6391 70.3956"
       style="fill:none;fill-rule:evenodd;stroke:#000000;stroke-width:8.00002;stroke-linecap:butt;stroke-linejoin:miter;stroke-dasharray:none;stroke-opacity:1"
       id="path5149" /><path
       d="M -152.77211,1040.9191 H -266.57253 V 968.04643 1115.2476"
       style="fill:none;fill-rule:evenodd;stroke:#000000;stroke-width:8.00002;stroke-linecap:butt;stroke-linejoin:miter;stroke-dasharray:none;stroke-opacity:1"
       id="path5151" /><path
       d="m -238.53376,1004.0372 h 40.26375"
       style="fill:none;fill-rule:evenodd;stroke:#000000;stroke-width:8.00002;stroke-linecap:butt;stroke-linejoin:miter;stroke-dasharray:none;stroke-opacity:1"
       id="path5153" /><path
       d="m -218.40185,983.90533 v 40.26377"
       style="fill:none;fill-rule:evenodd;stroke:#000000;stroke-width:8.00002;stroke-linecap:butt;stroke-linejoin:miter;stroke-dasharray:none;stroke-opacity:1"
       id="path5153-6" /></g><g
     id="g11"
     inkscape:label="wires"><path
       id="path10"
       style="fill:none;stroke:#000000;stroke-width:7.99998;stroke-linecap:butt;stroke-linejoin:miter;stroke-dasharray:none"
       d="m 1603.8247,663.91609 v 190.7832 L 296.057,854.699 v -49.926"
       sodipodi:nodetypes="cccc" /><path
       style="fill:none;stroke:#000000;stroke-width:7.99998;stroke-linecap:butt;stroke-linejoin:miter;stroke-dasharray:none"
       d="m 296.05696,544.06972 -3.4e-4,13.01228"
       id="path10-5"
       sodipodi:nodetypes="cc" /><path
       style="fill:none;stroke:#000000;stroke-width:7.99998;stroke-linecap:butt;stroke-linejoin:miter;stroke-dasharray:none"
       d="m 713.7748,225.301 890.0499,-2.9e-4 v 190.78318"
       id="path2"
       sodipodi:nodetypes="ccc" /><path
       style="fill:none;stroke:#000000;stroke-width:7.99998;stroke-linecap:butt;stroke-linejoin:miter;stroke-dasharray:none"
       d="m 296.057,275.227 0.65819,-49.92629 121.50981,2.9e-4"
       id="path10-5-0-7-7-0"
       sodipodi:nodetypes="ccc" /></g><path
     id="use1-9-7"
     d="m 186.78115,363.5678 c 0.83764,-3.44368 1.20993,-3.62983 4.83976,-3.62983 h 6.70121 c 8.00423,0 13.96086,2.41988 13.96086,9.67954 0,4.74669 -2.41988,18.42833 -21.12743,18.42833 h -10.51719 z m 12.93706,25.59491 c 11.54098,-2.51296 20.569,-9.95875 20.569,-17.96297 0,-7.25965 -7.35272,-13.96086 -20.28979,-13.96086 H 174.7748 c -1.86144,0 -2.6991,0 -2.6991,1.76837 0,0.93072 0.65151,0.93072 2.41989,0.93072 5.58434,0 5.58434,0.74458 5.58434,1.76838 0,0.18613 0,0.74458 -0.37229,2.14066 l -12.56477,50.07296 c -0.83765,3.25753 -1.0238,4.18825 -7.4458,4.18825 -2.14066,0 -2.79217,0 -2.79217,1.76838 0,0.93072 1.0238,0.93072 1.30302,0.93072 1.6753,0 3.62982,-0.18614 5.39819,-0.18614 h 10.98255 c 1.6753,0 3.62982,0.18614 5.30513,0.18614 0.74457,0 1.76837,0 1.76837,-1.76837 0,-0.93073 -0.83765,-0.93073 -2.23374,-0.93073 -5.67741,0 -5.67741,-0.74457 -5.67741,-1.6753 0,-0.0931 0,-0.74458 0.18614,-1.48916 l 6.23585,-25.03647 h 11.16869 c 8.84188,0 10.51718,5.58434 10.51718,8.65573 0,1.39609 -0.93072,5.02591 -1.58223,7.44579 -1.02379,4.28133 -1.30301,5.30513 -1.30301,7.07351 0,6.60813 5.3982,9.67952 11.63405,9.67952 7.53886,0 10.7964,-9.21416 10.7964,-10.51718 0,-0.6515 -0.46537,-0.93072 -1.0238,-0.93072 -0.74458,0 -0.93072,0.55843 -1.11687,1.30301 -2.23374,6.60814 -6.0497,8.28345 -8.37651,8.28345 -2.32681,0 -3.81597,-1.0238 -3.81597,-5.21206 0,-2.23373 1.11687,-10.70332 1.20994,-11.16868 0.46536,-3.44368 0.46536,-3.81598 0.46536,-4.56055 0,-6.79429 -5.49127,-9.67953 -9.02802,-10.7964 z"
     style="stroke-width:1.50666"
     inkscape:label="R" /><path
     id="use10"
     d="m 170.33911,666.8247 c 2.97831,1.20994 6.14276,1.20994 7.91114,1.20994 2.41987,0 7.25963,0 7.25963,-2.69909 0,-1.6753 -1.76838,-2.32681 -6.51506,-2.32681 -2.3268,0 -5.11897,0.27922 -8.37649,1.6753 -2.88524,-1.39608 -4.00211,-3.53674 -4.00211,-5.58433 0,-5.77047 9.12108,-9.12107 17.4045,-9.12107 1.58223,0 4.93283,0 8.84186,2.88524 0.55843,0.37228 0.83765,0.6515 1.48915,0.6515 1.11687,0 2.32681,-1.20994 2.32681,-2.3268 0,-1.6753 -5.39819,-5.21205 -11.82017,-5.21205 -10.42408,0 -20.28974,6.23584 -20.28974,13.12318 0,3.44367 2.23373,5.58433 3.81596,6.7012 -5.39818,3.07138 -8.56264,8.09728 -8.56264,12.65781 0,6.42199 5.77048,11.54096 14.70541,11.54096 12.28553,0 17.21835,-8.19036 17.21835,-9.49336 0,-0.46537 -0.37228,-0.83766 -0.83765,-0.83766 -0.46536,0 -0.6515,0.27922 -1.02379,0.83766 -1.0238,1.76837 -3.44367,5.49125 -14.51926,5.49125 -5.77048,0 -13.4024,-1.48915 -13.4024,-8.09728 0,-3.16445 2.32681,-7.91113 8.3765,-11.07559 z m 2.88524,-1.11686 c 2.51295,-0.83765 4.93282,-0.83765 5.58433,-0.83765 2.60602,0 3.07138,0.18614 4.56054,0.55843 -1.58223,0.74458 -1.76838,0.74458 -5.11897,0.74458 -1.6753,0 -3.16446,0 -5.0259,-0.46536 z"
     style="stroke-width:1.50666"
     inkscape:label="e" /><path
     id="use3"
     d="m 568.61773,60.403734 c 0.82668,-3.49044 1.10224,-4.408979 9.18537,-4.408979 2.48005,0 3.12303,0 3.12303,-1.74522 0,-0.918535 -1.0104,-0.918535 -1.37781,-0.918535 -1.83707,0 -3.94971,0.183693 -5.78678,0.183693 h -12.3084 c -1.74522,0 -3.766,-0.183693 -5.51122,-0.183693 -0.73483,0 -1.74522,0 -1.74522,1.74522 0,0.918535 0.82669,0.918535 2.20449,0.918535 5.60308,0 5.60308,0.734828 5.60308,1.74522 0,0.183693 0,0.734828 -0.36742,2.112634 L 549.2366,109.26989 c -0.82668,3.21488 -1.01039,4.13342 -7.44015,4.13342 -1.74522,0 -2.66375,0 -2.66375,1.65337 0,1.01039 0.55112,1.01039 2.38819,1.01039 h 41.15046 c 2.02078,0 2.11263,-0.0919 2.75561,-1.74522 l 7.07273,-19.564836 c 0.18369,-0.459271 0.36742,-1.010392 0.36742,-1.285953 0,-0.551121 -0.45927,-0.918538 -0.91853,-0.918538 -0.0919,0 -0.55113,0 -0.73483,0.367417 -0.18369,0.09185 -0.18369,0.275561 -0.91854,2.020781 -2.93932,8.083119 -7.07273,18.462589 -22.59601,18.462589 h -8.81796 c -1.28595,0 -1.46966,0 -2.02078,-0.0919 -1.01039,-0.0919 -1.10225,-0.27556 -1.10225,-1.01039 0,-0.64298 0.18371,-1.1941 0.36742,-2.02078 z"
     style="fill:#000000;stroke-width:1.50666"
     inkscape:label="L" /><g
     id="g2-2-9"
     inkscape:label="capacitor"
     transform="rotate(90,338.03838,1165.4673)"><path
       d="m -602.12821,397.30268 289.11352,-3.5e-4 v -59.7805 118.4434"
       style="fill:none;fill-rule:evenodd;stroke:#000000;stroke-width:8;stroke-linecap:butt;stroke-linejoin:miter;stroke-dasharray:none;stroke-opacity:1"
       id="path3197-9-3"
       sodipodi:nodetypes="cccc" /><path
       d="m 27.27026,397.30268 -289.11347,-3.5e-4 v -59.7805 118.4434"
       style="fill:none;fill-rule:evenodd;stroke:#000000;stroke-width:8;stroke-linecap:butt;stroke-linejoin:miter;stroke-dasharray:none;stroke-opacity:1"
       id="path4168-1-6"
       sodipodi:nodetypes="cccc" /></g><path
     id="use2-2-0"
     d="m 1259.0059,507.52972 c 0,-0.82668 -0.6429,-0.82668 -0.8266,-0.82668 -0.1838,0 -0.5512,0 -1.286,0.91854 l -6.3379,7.71571 c -3.2149,-5.51122 -8.2668,-8.63425 -15.1559,-8.63425 -19.8403,0 -40.4156,20.11596 -40.4156,41.70158 0,15.33956 10.7469,24.89235 24.1575,24.89235 7.3483,0 13.7781,-3.12303 19.1056,-7.62386 7.9913,-6.70532 10.3795,-15.61513 10.3795,-16.34996 0,-0.82668 -0.7349,-0.82668 -1.0104,-0.82668 -0.8267,0 -0.9185,0.55112 -1.1023,0.91854 -4.2252,14.32917 -16.6255,21.2182 -25.8108,21.2182 -9.7365,0 -18.1871,-6.24605 -18.1871,-19.28928 0,-2.93931 0.9186,-18.92186 11.298,-30.95469 5.052,-5.87864 13.6862,-11.02244 22.4123,-11.02244 10.1039,0 14.6048,8.35868 14.6048,17.72776 0,2.3882 -0.2756,4.40898 -0.2756,4.77639 0,0.82669 0.9185,0.82669 1.1941,0.82669 1.0104,0 1.1022,-0.0919 1.4697,-1.74523 z"
     style="fill:#000000;stroke-width:1.50666"
     inkscape:label="C" /><g
     id="g2-2-9-6"
     inkscape:label="diode"
     transform="rotate(90,586.84906,1414.278)"><path
       d="m -411.34505,397.30233 h 98.33036 m 51.17157,-0.55867 -51.17157,-59.22183 v 118.4434 z"
       style="fill:none;fill-rule:evenodd;stroke:#000000;stroke-width:8;stroke-linecap:butt;stroke-linejoin:miter;stroke-dasharray:none;stroke-opacity:1"
       id="path3197-9-3-1"
       sodipodi:nodetypes="cccccc" /><path
       d="m -163.51285,397.30233 h -98.33036 v -34.78017 l 1.7e-4,68.443"
       style="fill:none;fill-rule:evenodd;stroke:#000000;stroke-width:8;stroke-linecap:butt;stroke-linejoin:miter;stroke-dasharray:none;stroke-opacity:1"
       id="path4168-1-6-8"
       sodipodi:nodetypes="cccc" /></g><g
     id="g1"
     inkscape:label="currents"><path
       style="fill:#a51d2d;stroke:#a51d2d;stroke-width:4;stroke-linecap:round;stroke-linejoin:round;stroke-dasharray:none;marker-end:url(#Triangle-3-7-7-9)"
       d="M 936.34172,198.45772 H 1080.176"
       id="path10-5-0-7-7"
       sodipodi:nodetypes="cc" /><g
       id="g9"
       transform="matrix(0.44790311,0,0,0.44790311,673.58342,-443.01622)"
       style="stroke-width:2.23262;fill:#a51d2d"
       inkscape:label="I"><path
         id="use6"
         d="m 706.37278,1285.6869 c 1.24678,-4.8486 1.52385,-6.2339 11.63668,-6.2339 3.0477,0 4.15596,0 4.15596,-2.6321 0,-1.3853 -1.52385,-1.3853 -1.93945,-1.3853 -2.49357,0 -5.54127,0.277 -8.03485,0.277 h -17.03943 c -2.77064,0 -5.95687,-0.277 -8.72751,-0.277 -1.10825,0 -2.63211,0 -2.63211,2.6321 0,1.3853 1.10826,1.3853 3.87889,1.3853 8.58899,0 8.58899,1.1082 8.58899,2.6321 0,0.9697 -0.27707,1.8009 -0.55413,3.0477 l -18.70181,74.6687 c -1.24679,4.8486 -1.52385,6.234 -11.63668,6.234 -3.04771,0 -4.2945,0 -4.2945,2.6321 0,1.3853 1.38533,1.3853 2.07798,1.3853 2.49358,0 5.54128,-0.2771 8.03486,-0.2771 h 17.03943 c 2.77063,0 5.81834,0.2771 8.58897,0.2771 1.10826,0 2.77064,0 2.77064,-2.4936 0,-1.5238 -0.83119,-1.5238 -3.87889,-1.5238 -8.58898,0 -8.58898,-1.1083 -8.58898,-2.7707 0,-0.277 0,-0.9697 0.55412,-3.1862 z"
         style="fill:#a51d2d;stroke-width:3.36381" /><path
         id="use7"
         d="m 768.50044,1403.8547 c 0,-0.1386 0,-0.4156 -0.41559,-0.8312 -6.37247,-6.511 -23.4119,-24.2431 -23.4119,-67.4651 0,-43.2219 16.76237,-60.8155 23.55043,-67.7421 0,-0.1385 0.27706,-0.4156 0.27706,-0.8312 0,-0.4156 -0.41559,-0.6926 -0.96972,-0.6926 -1.52385,0 -13.29906,10.2513 -20.08713,25.4898 -6.92659,15.3771 -8.86604,30.3385 -8.86604,43.6376 0,9.9743 0.96972,26.8752 9.28163,44.7458 6.64954,14.4073 18.00916,24.5202 19.67154,24.5202 0.69266,0 0.96972,-0.2771 0.96972,-0.8312 z"
         style="fill:#a51d2d;stroke-width:3.36381" /><path
         id="use8"
         d="m 803.01304,1314.363 h 12.74494 c 2.6321,0 4.01742,0 4.01742,-2.4935 0,-1.5239 -0.83119,-1.5239 -3.60183,-1.5239 h -12.19081 l 5.12568,-20.2256 c 0.55413,-1.9395 0.55413,-2.2166 0.55413,-3.1863 0,-2.2165 -1.80091,-3.4633 -3.60183,-3.4633 -1.10826,0 -4.29449,0.4156 -5.40275,4.8486 l -5.40274,22.0266 h -13.022 c -2.77064,0 -4.01743,0 -4.01743,2.6321 0,1.3853 0.96973,1.3853 3.60183,1.3853 h 12.32934 l -9.1431,36.5725 c -1.10826,4.8486 -1.52386,6.2339 -1.52386,8.0348 0,6.511 4.57156,12.4679 12.32935,12.4679 13.99172,0 21.47245,-20.2257 21.47245,-21.1954 0,-0.8312 -0.55413,-1.2468 -1.38532,-1.2468 -0.27706,0 -0.8312,0 -1.10826,0.5542 -0.13853,0.1385 -0.27706,0.277 -1.24678,2.4935 -2.90917,6.9266 -9.28165,16.6239 -17.3165,16.6239 -4.15595,0 -4.43302,-3.4633 -4.43302,-6.511 0,-0.1386 0,-2.7707 0.4156,-4.4331 z"
         style="fill:#a51d2d;stroke-width:3.36381" /><path
         id="use9"
         d="m 860.58473,1335.5584 c 0,-9.9743 -0.96972,-26.8752 -9.28164,-44.7458 -6.64953,-14.4073 -18.00914,-24.5201 -19.67153,-24.5201 -0.4156,0 -0.96972,0.1385 -0.96972,0.8311 0,0.2771 0.13853,0.4156 0.27706,0.6927 6.64953,6.9266 23.55043,24.5202 23.55043,67.6036 0,43.222 -16.76237,60.8155 -23.55043,67.7421 -0.13853,0.2771 -0.27706,0.4156 -0.27706,0.6927 0,0.6926 0.55412,0.8312 0.96972,0.8312 1.52385,0 13.29907,-10.2514 20.08713,-25.4899 6.9266,-15.3771 8.86604,-30.3385 8.86604,-43.6376 z"
         style="fill:#a51d2d;stroke-width:3.36381" /></g><path
       style="fill:#a51d2d;stroke:#a51d2d;stroke-width:4;stroke-linecap:round;stroke-linejoin:round;stroke-dasharray:none;marker-end:url(#Triangle-3-7-7-9-4)"
       d="m 1121.1441,198.45772 h 143.8342"
       id="path10-5-0-7-7-3"
       sodipodi:nodetypes="cc" /><path
       style="fill:#a51d2d;stroke:#a51d2d;stroke-width:4;stroke-linecap:round;stroke-linejoin:round;stroke-dasharray:none;marker-end:url(#Triangle-3-7-7-9-4-0)"
       d="m 1078.6215,249.84294 v 143.8342"
       id="path10-5-0-7-7-3-5"
       sodipodi:nodetypes="cc" /><g
       id="page1"
       transform="matrix(2.5032846,0,0,2.5032846,490.13908,103.92593)"
       style="stroke-width:0.601876;fill:#a51d2d;fill-opacity:1"
       inkscape:label="I_C"><path
         id="use1"
         d="m 188.06541,80.546029 c 0.22308,-0.867547 0.27265,-1.115418 2.08211,-1.115418 0.54531,0 0.74361,0 0.74361,-0.470954 0,-0.24787 -0.27266,-0.24787 -0.34702,-0.24787 -0.44617,0 -0.99148,0.04957 -1.43765,0.04957 h -3.0488 c -0.49575,0 -1.06585,-0.04957 -1.56159,-0.04957 -0.1983,0 -0.47095,0 -0.47095,0.470954 0,0.24787 0.19829,0.24787 0.69403,0.24787 1.5368,0 1.5368,0.198297 1.5368,0.470955 0,0.173509 -0.0496,0.322231 -0.0992,0.545315 l -3.3462,13.360219 c -0.22308,0.867548 -0.27266,1.115418 -2.08211,1.115418 -0.54532,0 -0.7684,0 -0.7684,0.470954 0,0.24787 0.24787,0.24787 0.37181,0.24787 0.44616,0 0.99148,-0.04957 1.43764,-0.04957 h 3.04881 c 0.49574,0 1.04106,0.04957 1.5368,0.04957 0.1983,0 0.49574,0 0.49574,-0.446166 0,-0.272658 -0.14872,-0.272658 -0.69404,-0.272658 -1.53679,0 -1.53679,-0.198296 -1.53679,-0.495742 0,-0.04957 0,-0.173508 0.0991,-0.570102 z"
         style="fill:#a51d2d;fill-opacity:1;stroke-width:0.722019" /><path
         id="use2"
         d="m 205.0831,86.862525 c 0,-0.185963 -0.14464,-0.185963 -0.18597,-0.185963 -0.0413,0 -0.12397,0 -0.28927,0.206625 l -1.42572,1.735652 c -0.72318,-1.239751 -1.85962,-1.942277 -3.40931,-1.942277 -4.46311,0 -9.09151,4.525092 -9.09151,9.380785 0,3.450641 2.41751,5.599543 5.43424,5.599543 1.653,0 3.09938,-0.70253 4.29781,-1.714989 1.79764,-1.508364 2.33486,-3.512629 2.33486,-3.677929 0,-0.185963 -0.1653,-0.185963 -0.22729,-0.185963 -0.18596,0 -0.20662,0.123975 -0.24795,0.206625 -0.95047,3.223354 -3.73991,4.773046 -5.80616,4.773046 -2.19023,0 -4.09118,-1.405055 -4.09118,-4.339133 0,-0.6612 0.20662,-4.256479 2.54149,-6.963269 1.13644,-1.322402 3.07871,-2.479503 5.04165,-2.479503 2.27288,0 3.28534,1.88029 3.28534,3.987867 0,0.537225 -0.062,0.991801 -0.062,1.074451 0,0.185963 0.20663,0.185963 0.26862,0.185963 0.22728,0 0.24795,-0.02066 0.3306,-0.392588 z"
         style="fill:#a51d2d;fill-opacity:1;stroke-width:0.601876" /><path
         id="use3-3"
         d="m 213.68993,101.68938 c 0,-0.0248 0,-0.0744 -0.0744,-0.14872 -1.1402,-1.16499 -4.18901,-4.337734 -4.18901,-12.071294 0,-7.73356 2.99924,-10.881517 4.2138,-12.120869 0,-0.02479 0.0496,-0.07436 0.0496,-0.148723 0,-0.07436 -0.0744,-0.123935 -0.17351,-0.123935 -0.27266,0 -2.37956,1.834242 -3.59413,4.560818 -1.23935,2.751363 -1.58637,5.428365 -1.58637,7.807922 0,1.784667 0.17351,4.808688 1.66073,8.006218 1.18978,2.577853 3.22232,4.387313 3.51977,4.387313 0.12393,0 0.17351,-0.0496 0.17351,-0.14873 z"
         style="fill:#a51d2d;fill-opacity:1;stroke-width:0.601876" /><path
         id="use4"
         d="m 219.86515,85.676949 h 2.28041 c 0.47095,0 0.71882,0 0.71882,-0.446168 0,-0.272658 -0.14872,-0.272658 -0.64446,-0.272658 h -2.18126 l 0.91712,-3.618909 c 0.0992,-0.347018 0.0992,-0.396592 0.0992,-0.570102 0,-0.396592 -0.32224,-0.619676 -0.64447,-0.619676 -0.19829,0 -0.7684,0.07436 -0.96669,0.867547 l -0.9667,3.94114 h -2.32998 c -0.49574,0 -0.71883,0 -0.71883,0.470954 0,0.247872 0.17351,0.247872 0.64447,0.247872 h 2.20605 l -1.63595,6.54378 c -0.1983,0.867547 -0.27266,1.115418 -0.27266,1.437649 0,1.164992 0.81797,2.230834 2.20605,2.230834 2.50349,0 3.84199,-3.618909 3.84199,-3.792419 0,-0.148722 -0.0991,-0.223082 -0.24787,-0.223082 -0.0496,0 -0.14872,0 -0.19829,0.09915 -0.0248,0.02479 -0.0496,0.04957 -0.22309,0.446166 -0.52053,1.239353 -1.66073,2.974447 -3.09838,2.974447 -0.74361,0 -0.79318,-0.619676 -0.79318,-1.164992 0,-0.02479 0,-0.495741 0.0744,-0.793185 z"
         style="fill:#a51d2d;fill-opacity:1;stroke-width:0.722019" /><path
         id="use5"
         d="m 230.16626,89.469366 c 0,-1.784668 -0.17351,-4.808689 -1.66074,-8.006219 -1.18977,-2.577853 -3.22231,-4.387308 -3.51976,-4.387308 -0.0744,0 -0.17351,0.02479 -0.17351,0.148722 0,0.04957 0.0248,0.07436 0.0496,0.123936 1.18978,1.239352 4.2138,4.387308 4.2138,12.096082 0,7.73356 -2.99924,10.881521 -4.2138,12.120871 -0.0248,0.0496 -0.0496,0.0744 -0.0496,0.12393 0,0.12394 0.0991,0.14873 0.17351,0.14873 0.27266,0 2.37956,-1.83425 3.59413,-4.560822 1.23935,-2.751363 1.58637,-5.428365 1.58637,-7.807922 z"
         style="fill:#a51d2d;fill-opacity:1;stroke-width:0.601876" /></g><g
       id="page1-7"
       transform="matrix(2.5032846,0,0,2.5032846,550.19883,-68.782681)"
       style="fill:#a51d2d;fill-opacity:1;stroke-width:0.601876"
       inkscape:label="I_D"><path
         id="use6-7-8"
         d="m 241.54674,80.546029 c 0.22309,-0.867547 0.27266,-1.115418 2.08212,-1.115418 0.54531,0 0.74361,0 0.74361,-0.470954 0,-0.24787 -0.27266,-0.24787 -0.34702,-0.24787 -0.44617,0 -0.99148,0.04957 -1.43765,0.04957 h -3.04881 c -0.49574,0 -1.06584,-0.04957 -1.56158,-0.04957 -0.1983,0 -0.47095,0 -0.47095,0.470954 0,0.24787 0.19829,0.24787 0.69403,0.24787 1.5368,0 1.5368,0.198297 1.5368,0.470955 0,0.173509 -0.0496,0.322231 -0.0992,0.545315 l -3.3462,13.360219 c -0.22308,0.867548 -0.27266,1.115418 -2.08211,1.115418 -0.54532,0 -0.7684,0 -0.7684,0.470954 0,0.24787 0.24787,0.24787 0.3718,0.24787 0.44617,0 0.99149,-0.04957 1.43765,-0.04957 h 3.04881 c 0.49574,0 1.04106,0.04957 1.5368,0.04957 0.19829,0 0.49574,0 0.49574,-0.446166 0,-0.272658 -0.14872,-0.272658 -0.69404,-0.272658 -1.5368,0 -1.5368,-0.198296 -1.5368,-0.495742 0,-0.04957 0,-0.173508 0.0992,-0.570102 z"
         style="fill:#a51d2d;fill-opacity:1;stroke-width:0.722019" /><path
         id="use7-4-6"
         d="m 246.37355,99.69395 c -0.18597,0.72319 -0.22729,0.92981 -1.67367,0.92981 -0.39258,0 -0.59921,0 -0.59921,0.37193 0,0.22729 0.12398,0.22729 0.53723,0.22729 h 6.55001 c 4.17383,0 8.24435,-4.31847 8.24435,-8.926212 0,-2.975403 -1.77698,-5.186293 -4.73172,-5.186293 h -6.63267 c -0.39258,0 -0.57855,0 -0.57855,0.392588 0,0.206625 0.18597,0.206625 0.4959,0.206625 1.26042,0 1.26042,0.1653 1.26042,0.392588 0,0.04133 0,0.1653 -0.0827,0.475238 z m 4.35979,-11.178423 c 0.18596,-0.764514 0.26861,-0.805839 1.07445,-0.805839 h 2.27288 c 1.94227,0 3.71925,1.053789 3.71925,3.905217 0,1.033126 -0.41325,4.628404 -2.41751,6.901282 -0.57855,0.681863 -2.14891,2.107573 -4.5251,2.107573 h -2.35552 c -0.28928,0 -0.3306,0 -0.45458,-0.0207 -0.22729,-0.0207 -0.24795,-0.062 -0.24795,-0.22729 0,-0.14463 0.0413,-0.26861 0.0827,-0.454572 z"
         style="fill:#a51d2d;fill-opacity:1;stroke-width:0.601876" /><path
         id="use8-5-8"
         d="m 268.57269,101.68938 c 0,-0.0248 0,-0.0744 -0.0744,-0.14872 -1.1402,-1.16499 -4.18901,-4.337734 -4.18901,-12.071294 0,-7.73356 2.99923,-10.881517 4.2138,-12.120869 0,-0.02479 0.0496,-0.07436 0.0496,-0.148723 0,-0.07436 -0.0744,-0.123935 -0.17351,-0.123935 -0.27265,0 -2.37955,1.834242 -3.59412,4.560818 -1.23935,2.751363 -1.58637,5.428365 -1.58637,7.807922 0,1.784667 0.17351,4.808688 1.66073,8.006218 1.18978,2.577853 3.22232,4.387313 3.51976,4.387313 0.12394,0 0.17351,-0.0496 0.17351,-0.14873 z"
         style="fill:#a51d2d;fill-opacity:1;stroke-width:0.601876" /><path
         id="use9-2-8"
         d="m 274.74791,85.676949 h 2.28041 c 0.47096,0 0.71883,0 0.71883,-0.446168 0,-0.272658 -0.14873,-0.272658 -0.64447,-0.272658 h -2.18126 l 0.91712,-3.618909 c 0.0991,-0.347018 0.0991,-0.396592 0.0991,-0.570102 0,-0.396592 -0.32223,-0.619676 -0.64446,-0.619676 -0.1983,0 -0.7684,0.07436 -0.9667,0.867547 l -0.96669,3.94114 h -2.32998 c -0.49575,0 -0.71883,0 -0.71883,0.470954 0,0.247872 0.17351,0.247872 0.64446,0.247872 h 2.20605 l -1.63594,6.54378 c -0.1983,0.867547 -0.27266,1.115418 -0.27266,1.437649 0,1.164992 0.81797,2.230834 2.20605,2.230834 2.50349,0 3.84199,-3.618909 3.84199,-3.792419 0,-0.148722 -0.0992,-0.223082 -0.24787,-0.223082 -0.0496,0 -0.14872,0 -0.1983,0.09915 -0.0248,0.02479 -0.0496,0.04957 -0.22308,0.446166 -0.52053,1.239353 -1.66073,2.974447 -3.09838,2.974447 -0.74361,0 -0.79319,-0.619676 -0.79319,-1.164992 0,-0.02479 0,-0.495741 0.0744,-0.793185 z"
         style="fill:#a51d2d;fill-opacity:1;stroke-width:0.722019" /><path
         id="use10-5-4"
         d="m 285.04902,89.469366 c 0,-1.784668 -0.1735,-4.808689 -1.66073,-8.006219 -1.18978,-2.577853 -3.22231,-4.387308 -3.51976,-4.387308 -0.0744,0 -0.17351,0.02479 -0.17351,0.148722 0,0.04957 0.0248,0.07436 0.0496,0.123936 1.18977,1.239352 4.21379,4.387308 4.21379,12.096082 0,7.73356 -2.99923,10.881521 -4.21379,12.120871 -0.0248,0.0496 -0.0496,0.0744 -0.0496,0.12393 0,0.12394 0.0992,0.14873 0.17351,0.14873 0.27266,0 2.37956,-1.83425 3.59412,-4.560822 1.23936,-2.751363 1.58637,-5.428365 1.58637,-7.807922 z"
         style="fill:#a51d2d;fill-opacity:1;stroke-width:0.601876" /></g></g></svg>
