<?xml version="1.0" encoding="UTF-8" standalone="no"?>
<svg
   width="1920"
   height="1080"
   version="1.1"
   id="svg3"
   sodipodi:docname="diagram.svg"
   inkscape:version="1.4.2 (ebf0e940d0, 2025-05-08)"
   xml:space="preserve"
   xmlns:inkscape="http://www.inkscape.org/namespaces/inkscape"
   xmlns:sodipodi="http://sodipodi.sourceforge.net/DTD/sodipodi-0.dtd"
   xmlns="http://www.w3.org/2000/svg"
   xmlns:svg="http://www.w3.org/2000/svg"><sodipodi:namedview
     id="namedview3"
     pagecolor="#ffffff"
     bordercolor="#000000"
     borderopacity="0.25"
     inkscape:showpageshadow="2"
     inkscape:pageopacity="0.0"
     inkscape:pagecheckerboard="0"
     inkscape:deskcolor="#d1d1d1"
     inkscape:zoom="0.47552931"
     inkscape:cx="959.98289"
     inkscape:cy="682.39747"
     inkscape:window-width="1920"
     inkscape:window-height="1016"
     inkscape:window-x="0"
     inkscape:window-y="0"
     inkscape:window-maximized="1"
     inkscape:current-layer="svg3"
     showgrid="false"
     showguides="false" /><!-- Tank --><rect
     style="fill:#ffffff;stroke:none;stroke-width:4;stroke-linecap:round;stroke-linejoin:round;stroke-dasharray:none"
     id="rect17"
     width="1920"
     height="1080"
     x="0"
     y="0"
     inkscape:label="background"
     sodipodi:insensitive="true" /><!-- Inlet arrow --><!-- Outlet arrow --><!-- Labels --><!-- Arrowhead definition --><defs
     id="defs3"><marker
       style="overflow:visible"
       id="ArrowWide-7-8"
       refX="0"
       refY="0"
       orient="auto-start-reverse"
       inkscape:stockid="Wide arrow"
       markerWidth="1"
       markerHeight="1"
       viewBox="0 0 1 1"
       inkscape:isstock="true"
       inkscape:collect="always"
       preserveAspectRatio="xMidYMid"><path
         style="fill:none;stroke:context-stroke;stroke-width:1;stroke-linecap:butt"
         d="M 3,-3 0,0 3,3"
         transform="rotate(180,0.125,0)"
         sodipodi:nodetypes="ccc"
         id="path16-4-8" /></marker><marker
       style="overflow:visible"
       id="Triangle-3"
       refX="0"
       refY="0"
       orient="auto-start-reverse"
       inkscape:stockid="Triangle arrow"
       markerWidth="1"
       markerHeight="1"
       viewBox="0 0 1 1"
       inkscape:isstock="true"
       inkscape:collect="always"
       preserveAspectRatio="xMidYMid"><path
         transform="scale(0.5)"
         style="fill:context-stroke;fill-rule:evenodd;stroke:context-stroke;stroke-width:1pt"
         d="M 5.77,0 -2.88,5 V -5 Z"
         id="path135-6" /></marker><marker
       style="overflow:visible"
       id="Triangle-3-7"
       refX="0"
       refY="0"
       orient="auto-start-reverse"
       inkscape:stockid="Triangle arrow"
       markerWidth="1"
       markerHeight="1"
       viewBox="0 0 1 1"
       inkscape:isstock="true"
       inkscape:collect="always"
       preserveAspectRatio="xMidYMid"><path
         transform="scale(0.5)"
         style="fill:context-stroke;fill-rule:evenodd;stroke:context-stroke;stroke-width:1pt"
         d="M 5.77,0 -2.88,5 V -5 Z"
         id="path135-6-9" /></marker><marker
       style="overflow:visible"
       id="Triangle-3-7-7"
       refX="0"
       refY="0"
       orient="auto-start-reverse"
       inkscape:stockid="Triangle arrow"
       markerWidth="1"
       markerHeight="1"
       viewBox="0 0 1 1"
       inkscape:isstock="true"
       inkscape:collect="always"
       preserveAspectRatio="xMidYMid"><path
         transform="scale(0.5)"
         style="fill:context-stroke;fill-rule:evenodd;stroke:context-stroke;stroke-width:1pt"
         d="M 5.77,0 -2.88,5 V -5 Z"
         id="path135-6-9-5" /></marker></defs><g
     id="g17"
     inkscape:label="dimension-line"><path
       style="display:inline;fill:none;fill-opacity:1;stroke:#000000;stroke-width:4;stroke-linecap:round;stroke-linejoin:bevel;stroke-dasharray:none;stroke-dashoffset:0;stroke-opacity:1;paint-order:stroke markers fill"
       d="m 586.97,600.86102 h 73.5575"
       id="path14-9-7" /><path
       style="display:inline;fill:none;fill-opacity:1;stroke:#000000;stroke-width:4;stroke-linecap:round;stroke-linejoin:bevel;stroke-dasharray:none;stroke-dashoffset:0;stroke-opacity:1;paint-order:stroke markers fill"
       d="m 586.96998,824.39996 h 73.55797"
       id="path14-1-2-6" /><path
       style="display:inline;fill:none;fill-opacity:1;stroke:#000000;stroke-width:4;stroke-linecap:round;stroke-linejoin:bevel;stroke-dasharray:none;stroke-dashoffset:0;stroke-opacity:1;marker-start:url(#ArrowWide-7-8);marker-end:url(#ArrowWide-7-8);paint-order:stroke markers fill"
       d="M 623.7483,607.36924 V 818.75095"
       id="path15-9-3"
       sodipodi:nodetypes="cc" /></g><g
     id="g16"
     inkscape:label="tank"><rect
       style="fill:#ffffff;stroke:none;stroke-width:7.99997;stroke-linecap:round;stroke-linejoin:round;stroke-dasharray:none"
       id="rect11-6"
       width="566.35138"
       height="343.26147"
       x="676.82428"
       y="257.59955" /><rect
       style="fill:#1c71d8;stroke:none;stroke-width:7.99997;stroke-linecap:round;stroke-linejoin:round;stroke-dasharray:none"
       id="rect11"
       width="566.35138"
       height="221.53949"
       x="676.82428"
       y="600.86102" /><path
       id="rect8"
       style="fill:none;stroke:#000000;stroke-width:8;stroke-linecap:round;stroke-linejoin:round;stroke-dasharray:none"
       d="M 676.82429,257.59954 V 822.40046 H 1243.1757 V 257.59954"
       sodipodi:nodetypes="cccc" /></g><g
     id="g13"
     inkscape:label="pump-in"><path
       id="path9"
       style="fill:#ffffff;stroke:#000000;stroke-width:8;stroke-linecap:round;stroke-linejoin:round;stroke-dasharray:none"
       d="M 452.60456,499.1056 H 274.26378 L 363.4342,340.29841 Z"
       sodipodi:nodetypes="cccc" /><ellipse
       style="fill:#ffffff;stroke:#000000;stroke-width:8;stroke-linecap:round;stroke-linejoin:round;stroke-dasharray:none"
       id="path8"
       cx="363.43417"
       cy="382.60693"
       rx="89.169395"
       ry="91.143074" /><path
       style="fill:#ffffff;stroke:#000000;stroke-width:8;stroke-linecap:round;stroke-linejoin:round;stroke-dasharray:none;marker-end:url(#Triangle-3)"
       d="M 363.43418,291.46386 H 644.43563"
       id="path10-5"
       sodipodi:nodetypes="cc" /><path
       style="fill:#ffffff;stroke:#000000;stroke-width:8;stroke-linecap:round;stroke-linejoin:round;stroke-dasharray:none;marker-end:url(#Triangle-3-7)"
       d="M 86.219715,382.60693 H 363.43417"
       id="path10-5-0"
       sodipodi:nodetypes="cc" /></g><path
     style="fill:#ffffff;stroke:#000000;stroke-width:8;stroke-linecap:round;stroke-linejoin:round;stroke-dasharray:none;marker-end:url(#Triangle-3-7-7)"
     d="M 1243.1757,785.22574 H 1772.755"
     id="path10-5-0-7"
     sodipodi:nodetypes="cc"
     inkscape:label="out" /><g
     id="g14"
     transform="matrix(0.85890368,0,0,0.85890368,-97.3777,140.90899)"
     style="stroke-width:1.16427"
     inkscape:label="Q_in"><path
       id="use1"
       d="m 672.51947,122.04537 c 20.17018,-8.09153 35.18058,-29.434401 35.18058,-50.659996 0,-19.349308 -12.66499,-31.193427 -29.0826,-31.193427 -25.09546,0 -50.42545,26.971755 -50.42545,54.060783 0,18.41116 12.19591,30.95889 29.19983,30.95889 3.98713,0 7.85698,-0.58635 11.6096,-1.75903 -0.7036,7.03611 -0.7036,7.62245 -0.7036,9.85056 0,3.40078 0,12.19592 9.38146,12.19592 13.95495,0 19.11477,-21.92921 19.11477,-22.63282 0,-0.70361 -0.46885,-1.17269 -1.0554,-1.17269 -0.7036,0 -0.93817,0.58634 -1.28997,1.8763 -2.57993,7.38791 -8.67786,11.60958 -13.83767,11.60958 -5.9807,0 -7.50518,-4.1044 -8.09155,-13.13407 z m -21.10833,-0.58635 c -9.26418,-3.16625 -13.72039,-12.89953 -13.72039,-23.688232 0,-8.208794 3.04896,-23.805512 10.7887,-35.649626 8.67787,-13.368617 20.28746,-19.349303 29.4344,-19.349303 12.19591,0 20.40469,9.850549 20.40469,25.095457 0,8.677872 -4.10436,37.760464 -26.15087,50.659994 -0.58631,-5.98069 -2.22808,-13.01681 -9.96782,-13.01681 -6.3325,0 -11.72683,6.33251 -11.72683,12.07866 0,1.28996 0.46885,3.04899 0.93812,3.86986 z m 17.8248,-1.40722 c -4.22164,1.87629 -7.85698,2.57991 -11.14051,2.57991 -1.17268,0 -5.27704,0 -5.27704,-5.15981 0,-4.22167 4.10436,-9.61602 9.38146,-9.61602 5.86341,0 7.15338,3.98713 7.15338,9.85056 0,0.70361 0,1.64175 -0.11733,2.34536 z"
       style="stroke-width:2.58588" /><path
       id="use2"
       d="m 741.16974,132.46492 c 0,-0.48877 -0.39126,-0.87979 -0.97757,-0.87979 -0.87979,0 -0.97753,0.29327 -1.4663,1.9551 -2.54165,8.89572 -6.5496,11.92615 -9.77555,11.92615 -1.17306,0 -2.54161,-0.29333 -2.54161,-3.22594 0,-2.63939 1.17306,-5.57204 2.24838,-8.5047 l 6.84283,-18.18247 c 0.29333,-0.78204 0.97758,-2.54163 0.97758,-4.39898 0,-4.10572 -2.93268,-7.82042 -7.72267,-7.82042 -8.99347,0 -12.61044,14.17451 -12.61044,14.95655 0,0.39102 0.39125,0.8798 1.07532,0.8798 0.87978,0 0.97757,-0.39102 1.36859,-1.7596 2.34612,-8.21144 6.06079,-12.12164 9.87325,-12.12164 0.87979,0 2.54166,0.0977 2.54166,3.22592 0,2.54163 -1.27085,5.76756 -2.05289,7.91817 l -6.84284,18.18247 c -0.58655,1.56408 -1.17306,3.12816 -1.17306,4.88776 0,4.399 3.03042,7.91818 7.72267,7.91818 8.99347,0 12.51265,-14.27227 12.51265,-14.95656 z M 740.3877,85.44467 c 0,-1.466329 -1.17306,-3.225921 -3.3237,-3.225921 -2.24833,0 -4.78999,2.150613 -4.78999,4.69225 0,2.44388 2.05285,3.225921 3.22591,3.225921 2.6394,0 4.88778,-2.541638 4.88778,-4.69225 z"
       style="stroke-width:2.1556" /><path
       id="use3"
       d="m 766.2961,117.80164 c 0.19539,-0.58653 2.6394,-5.47429 6.25633,-8.60246 2.54165,-2.34612 5.8653,-3.9102 9.67776,-3.9102 3.91021,0 5.2788,2.93265 5.2788,6.84286 0,5.57205 -4.00794,16.71614 -5.96305,21.99492 -0.87983,2.34613 -1.36859,3.61694 -1.36859,5.37654 0,4.399 3.03042,7.91818 7.72266,7.91818 9.09122,0 12.51266,-14.37003 12.51266,-14.95656 0,-0.48877 -0.39126,-0.87979 -0.97753,-0.87979 -0.87983,0 -0.97758,0.29327 -1.46634,1.9551 -2.24838,8.01593 -5.9631,11.92615 -9.77551,11.92615 -0.97757,0 -2.54166,-0.0979 -2.54166,-3.22594 0,-2.44388 1.07532,-5.37653 1.66183,-6.74511 1.9551,-5.37653 6.06084,-16.32511 6.06084,-21.89716 0,-5.86531 -3.42144,-10.2643 -10.85083,-10.2643 -8.70019,0 -13.29469,6.15858 -15.05431,8.60246 -0.29332,-5.57205 -4.30122,-8.60246 -8.60245,-8.60246 -3.12816,0 -5.2788,1.85735 -6.94062,5.18103 -1.75957,3.51919 -3.12816,9.3845 -3.12816,9.77552 0,0.39102 0.39125,0.8798 1.07531,0.8798 0.78204,0 0.87979,-0.0978 1.46634,-2.34613 1.56408,-5.96307 3.32365,-11.53511 7.23386,-11.53511 2.24838,0 3.03042,1.56408 3.03042,4.49674 0,2.15061 -0.97753,5.96306 -1.66183,8.99348 l -2.73714,10.55756 c -0.39126,1.85734 -1.46634,6.25633 -1.9551,8.01592 -0.6843,2.54164 -1.75962,7.13612 -1.75962,7.62489 0,1.36859 1.07532,2.44391 2.54166,2.44391 1.17306,0 2.54161,-0.58655 3.32365,-2.05289 0.19539,-0.48877 1.07531,-3.91019 1.56408,-5.86529 l 2.15063,-8.79797 z"
       style="stroke-width:2.1556" /></g><g
     id="g15"
     transform="matrix(0.85890368,0,0,0.85890368,730.0457,635.63451)"
     style="stroke-width:1.16427"
     inkscape:label="Q_out"><path
       id="use4"
       d="m 855.60786,122.04537 c 20.17021,-8.09153 35.18057,-29.434401 35.18057,-50.659996 0,-19.349308 -12.66499,-31.193427 -29.0826,-31.193427 -25.09546,0 -50.42545,26.971755 -50.42545,54.060783 0,18.41116 12.19591,30.95889 29.19984,30.95889 3.98713,0 7.85702,-0.58635 11.60959,-1.75903 -0.7036,7.03611 -0.7036,7.62245 -0.7036,9.85056 0,3.40078 0,12.19592 9.38146,12.19592 13.95496,0 19.11477,-21.92921 19.11477,-22.63282 0,-0.70361 -0.46885,-1.17269 -1.0554,-1.17269 -0.7036,0 -0.93816,0.58634 -1.28996,1.8763 -2.57989,7.38791 -8.67787,11.60958 -13.83768,11.60958 -5.9807,0 -7.50518,-4.1044 -8.09154,-13.13407 z m -21.10834,-0.58635 c -9.26418,-3.16625 -13.72039,-12.89953 -13.72039,-23.688232 0,-8.208794 3.04896,-23.805512 10.78871,-35.649626 8.67786,-13.368617 20.28745,-19.349303 29.43439,-19.349303 12.19591,0 20.40469,9.850549 20.40469,25.095457 0,8.677872 -4.10436,37.760464 -26.15086,50.659994 -0.58632,-5.98069 -2.22809,-13.01681 -9.96783,-13.01681 -6.3325,0 -11.72683,6.33251 -11.72683,12.07866 0,1.28996 0.46932,3.04899 0.93812,3.86986 z m 17.82485,-1.40722 c -4.22169,1.87629 -7.85702,2.57991 -11.14051,2.57991 -1.17268,0 -5.27709,0 -5.27709,-5.15981 0,-4.22167 4.10441,-9.61602 9.38146,-9.61602 5.86346,0 7.15338,3.98713 7.15338,9.85056 0,0.70361 0,1.64175 -0.11733,2.34536 z"
       style="stroke-width:2.58588" /><path
       id="use5"
       d="m 941.16979,115.60122 c 0,-9.28674 -6.06084,-16.227362 -14.95657,-16.227362 -12.90367,0 -25.61186,14.076752 -25.61186,27.860232 0,9.28674 6.06084,16.22737 14.95657,16.22737 13.00142,0 25.61186,-14.07676 25.61186,-27.86024 z m -25.51412,25.90513 c -4.88777,0 -8.5047,-3.91021 -8.5047,-10.75307 0,-4.49674 2.34612,-14.46777 5.08326,-19.35553 4.39897,-7.52715 9.87326,-10.06879 13.88125,-10.06879 4.78999,0 8.50471,3.91021 8.50471,10.75308 0,3.9102 -2.0529,14.37001 -5.76757,20.33308 -4.00794,6.54959 -9.38449,9.09123 -13.19695,9.09123 z"
       style="stroke-width:2.1556" /><path
       id="use6"
       d="m 975.94246,136.8141 c 1.2708,5.47429 5.96305,6.64736 8.30917,6.64736 3.12816,0 5.47428,-2.05287 7.03836,-5.37654 1.66183,-3.51919 2.93268,-9.28675 2.93268,-9.58001 0,-0.48878 -0.39126,-0.8798 -0.97757,-0.8798 -0.87979,0 -0.97753,0.48878 -1.36855,1.9551 -1.75962,6.74511 -3.51918,11.92614 -7.42939,11.92614 -2.93268,0 -2.93268,-3.22592 -2.93268,-4.49674 0,-2.24837 0.29333,-3.22592 1.27081,-7.33164 0.6843,-2.63939 1.36859,-5.27878 1.9551,-8.01593 l 4.008,-15.93409 c 0.68425,-2.44388 0.68425,-2.63939 0.68425,-2.93266 0,-1.46633 -1.17307,-2.44388 -2.63936,-2.44388 -2.83493,0 -3.51918,2.44388 -4.10573,4.88776 -0.97758,3.81245 -6.25633,24.82982 -6.94063,28.25125 -0.0979,0 -3.9102,8.01593 -11.04631,8.01593 -5.08327,0 -6.06084,-4.39899 -6.06084,-8.01593 0,-5.57204 2.73714,-13.39246 5.2788,-19.94206 1.17306,-3.12816 1.66182,-4.39898 1.66182,-6.35408 0,-4.20348 -3.03042,-7.820422 -7.72266,-7.820422 -8.99347,0 -12.61045,14.174502 -12.61045,14.956542 0,0.39103 0.39126,0.8798 1.07532,0.8798 0.87979,0 0.97758,-0.39102 1.3686,-1.75959 2.34612,-8.40695 6.15858,-12.12165 9.87325,-12.12165 0.97757,0 2.54166,0.0978 2.54166,3.22593 0,2.54163 -1.07532,5.37653 -2.54166,9.09123 -4.30122,11.63287 -4.78999,15.34756 -4.78999,18.28022 0,9.97103 7.52713,11.53512 11.53513,11.53512 6.25632,0 9.67776,-4.30124 11.63287,-6.64736 z"
       style="stroke-width:2.1556" /><path
       id="use7"
       d="m 1016.7343,103.18631 h 8.9935 c 1.8573,0 2.8348,0 2.8348,-1.75959 0,-1.07531 -0.5865,-1.07531 -2.5416,-1.07531 h -8.6025 l 3.617,-14.27226 c 0.3913,-1.368572 0.3913,-1.564082 0.3913,-2.24837 0,-1.564082 -1.2709,-2.44388 -2.5417,-2.44388 -0.782,0 -3.0304,0.293277 -3.8125,3.421436 l -3.8124,15.543074 h -9.189 c -1.9551,0 -2.8349,0 -2.8349,1.85735 0,0.97755 0.68429,0.97755 2.5417,0.97755 h 8.7001 l -6.4518,25.80737 c -0.782,3.42144 -1.0753,4.39899 -1.0753,5.6698 0,4.5945 3.2259,8.79798 8.7003,8.79798 9.8732,0 15.152,-14.27227 15.152,-14.95655 0,-0.58653 -0.3913,-0.8798 -0.9776,-0.8798 -0.1954,0 -0.5865,0 -0.782,0.39102 -0.098,0.0977 -0.1954,0.19554 -0.8798,1.7596 -2.0529,4.88775 -6.5496,11.73062 -12.2194,11.73062 -2.9326,0 -3.1282,-2.44388 -3.1282,-4.5945 0,-0.0977 0,-1.9551 0.2933,-3.12816 z"
       style="stroke-width:2.1556" /></g><path
     id="use8"
     d="m 562.76995,680.12388 c 0.1007,-0.40289 0.3023,-1.00722 0.3023,-1.51082 0,-1.00723 -1.0072,-1.00723 -1.2087,-1.00723 -0.1008,0 -5.0361,0.40289 -5.5397,0.50361 -1.7123,0.10069 -3.2231,0.30216 -5.0362,0.4029 -2.518,0.20147 -3.223,0.30216 -3.223,2.11517 0,1.00722 0.8057,1.00722 2.2159,1.00722 4.9353,0 5.0361,0.9065 5.0361,1.91372 0,0.60434 -0.2015,1.41012 -0.3024,1.71228 l -14.6047,58.31824 c -0.4031,1.51083 -0.4031,1.71229 -0.4031,2.31661 0,2.21589 1.7123,2.61878 2.7195,2.61878 1.7123,0 3.0217,-1.30939 3.5253,-2.41733 l 4.5325,-18.23075 c 0.5037,-2.21589 1.108,-4.33106 1.6116,-6.54695 1.1079,-4.23034 1.1079,-4.33106 3.0217,-7.25201 1.9137,-2.92095 6.4461,-8.96429 14.2019,-8.96429 4.0288,0 5.439,3.02167 5.439,7.05057 0,5.64045 -3.9282,16.61919 -6.1441,22.66252 -0.9066,2.41734 -1.4102,3.72673 -1.4102,5.53974 0,4.53249 3.1224,8.1585 7.9571,8.1585 9.3672,0 12.8925,-14.80617 12.8925,-15.41052 0,-0.5036 -0.4031,-0.90649 -1.0073,-0.90649 -0.9064,0 -1.0072,0.30216 -1.5108,2.01444 -2.3166,8.05779 -6.0433,12.28812 -10.0722,12.28812 -1.0072,0 -2.6188,-0.10073 -2.6188,-3.32383 0,-2.61878 1.2087,-5.84189 1.6116,-6.94984 1.813,-4.83467 6.3454,-16.71991 6.3454,-22.56181 0,-6.04334 -3.5253,-10.57585 -11.1801,-10.57585 -5.7412,0 -10.7773,2.71951 -14.9069,7.95707 z"
     style="stroke-width:2.22102"
     inkscape:label="h" /></svg>
