<?xml version="1.0" encoding="UTF-8" standalone="no"?>
<svg
   width="1920"
   height="1080"
   version="1.1"
   id="svg3"
   sodipodi:docname="diagram.svg"
   inkscape:version="1.4.2 (ebf0e940d0, 2025-05-08)"
   xml:space="preserve"
   xmlns:inkscape="http://www.inkscape.org/namespaces/inkscape"
   xmlns:sodipodi="http://sodipodi.sourceforge.net/DTD/sodipodi-0.dtd"
   xmlns:xlink="http://www.w3.org/1999/xlink"
   xmlns="http://www.w3.org/2000/svg"
   xmlns:svg="http://www.w3.org/2000/svg"><sodipodi:namedview
     id="namedview3"
     pagecolor="#ffffff"
     bordercolor="#000000"
     borderopacity="0.25"
     inkscape:showpageshadow="2"
     inkscape:pageopacity="0.0"
     inkscape:pagecheckerboard="0"
     inkscape:deskcolor="#d1d1d1"
     inkscape:zoom="0.35355339"
     inkscape:cx="674.57987"
     inkscape:cy="538.81536"
     inkscape:window-width="1920"
     inkscape:window-height="1016"
     inkscape:window-x="0"
     inkscape:window-y="0"
     inkscape:window-maximized="1"
     inkscape:current-layer="svg3"
     showgrid="false"
     showguides="false" /><rect
     style="fill:#ffffff;stroke:none;stroke-width:4;stroke-linecap:round;stroke-linejoin:round;stroke-dasharray:none"
     id="rect17"
     width="1920"
     height="1080"
     x="0"
     y="0"
     inkscape:label="background" /><!-- Tank --><!-- Inlet arrow --><!-- Outlet arrow --><!-- Labels --><!-- Arrowhead definition --><defs
     id="defs3"><marker
       style="overflow:visible"
       id="Triangle-3-7-7-9"
       refX="0"
       refY="0"
       orient="auto-start-reverse"
       inkscape:stockid="Triangle arrow"
       markerWidth="1"
       markerHeight="1"
       viewBox="0 0 1 1"
       inkscape:isstock="true"
       inkscape:collect="always"
       preserveAspectRatio="xMidYMid"><path
         transform="scale(0.5)"
         style="fill:context-stroke;fill-rule:evenodd;stroke:context-stroke;stroke-width:1pt"
         d="M 5.77,0 -2.88,5 V -5 Z"
         id="path135-6-9-5-1" /></marker><path
       id="g1-40-1"
       d="M7.584838 6.048041C7.584838 6.023254 7.584838 5.97368 7.510477 5.899319C6.370273 4.734327 3.321465 1.561584 3.321465-6.171976S6.320699-17.053493 7.535264-18.292845C7.535264-18.317632 7.584838-18.367207 7.584838-18.441568S7.510477-18.565503 7.411329-18.565503C7.138671-18.565503 5.031772-16.731261 3.817206-14.004685C2.577854-11.253322 2.230835-8.57632 2.230835-6.196763C2.230835-4.412096 2.404344-1.388075 3.891567 1.809455C5.081346 4.387308 7.113884 6.196763 7.411329 6.196763C7.535264 6.196763 7.584838 6.147189 7.584838 6.048041Z" /><path
       id="g1-41-8"
       d="M6.518995-6.171976C6.518995-7.956644 6.345486-10.980665 4.858262-14.178195C3.668484-16.756048 1.635946-18.565503 1.338501-18.565503C1.26414-18.565503 1.164992-18.540716 1.164992-18.416781C1.164992-18.367207 1.189779-18.34242 1.214566-18.292845C2.404344-17.053493 5.428365-13.905537 5.428365-6.196763C5.428365 1.536797 2.429131 4.684753 1.214566 5.924106C1.189779 5.97368 1.164992 5.998467 1.164992 6.048041C1.164992 6.171976 1.26414 6.196763 1.338501 6.196763C1.611158 6.196763 3.718058 4.362521 4.932624 1.635946C6.171976-1.115417 6.518995-3.792419 6.518995-6.171976Z" /><path
       id="g0-73-9"
       d="M9.121636-15.095316C9.344719-15.962862 9.394293-16.210733 11.203748-16.210733C11.749063-16.210733 11.94736-16.210733 11.94736-16.681687C11.94736-16.929557 11.674702-16.929557 11.600341-16.929557C11.154174-16.929557 10.608859-16.879983 10.162692-16.879983H7.113884C6.618143-16.879983 6.048041-16.929557 5.5523-16.929557C5.354004-16.929557 5.081346-16.929557 5.081346-16.458603C5.081346-16.210733 5.279642-16.210733 5.775383-16.210733C7.312181-16.210733 7.312181-16.012437 7.312181-15.739779C7.312181-15.56627 7.262607-15.417547 7.213033-15.194464L3.86678-1.834242C3.643697-.966695 3.594123-.718825 1.784668-.718825C1.239353-.718825 1.016269-.718825 1.016269-.247871C1.016269 0 1.26414 0 1.388075 0C1.834242 0 2.379557-.049574 2.825724-.049574H5.874532C6.370273-.049574 6.915588 0 7.411329 0C7.609625 0 7.90707 0 7.90707-.446167C7.90707-.718825 7.758348-.718825 7.213033-.718825C5.676235-.718825 5.676235-.917121 5.676235-1.214566C5.676235-1.26414 5.676235-1.388075 5.775383-1.784668L9.121636-15.095316Z" /><path
       id="g0-82-20"
       d="M9.121636-15.244038C9.344719-16.161159 9.443867-16.210733 10.410562-16.210733H12.19523C14.326917-16.210733 15.913288-15.56627 15.913288-13.632879C15.913288-12.36874 15.268825-8.725043 10.286627-8.725043H7.48569L9.121636-15.244038ZM12.567036-8.427598C15.640631-9.096849 18.044975-11.079813 18.044975-13.211499C18.044975-15.14489 16.086798-16.929557 12.641397-16.929557H5.924106C5.428365-16.929557 5.205281-16.929557 5.205281-16.458603C5.205281-16.210733 5.378791-16.210733 5.849745-16.210733C7.336968-16.210733 7.336968-16.012437 7.336968-15.739779C7.336968-15.690205 7.336968-15.541483 7.23782-15.169677L3.891567-1.834242C3.668484-.966695 3.61891-.718825 1.908603-.718825C1.338501-.718825 1.164992-.718825 1.164992-.247871C1.164992 0 1.437649 0 1.51201 0C1.958177 0 2.478705-.049574 2.949659-.049574H5.874532C6.320699-.049574 6.841227 0 7.287394 0C7.48569 0 7.758348 0 7.758348-.470954C7.758348-.718825 7.535264-.718825 7.163458-.718825C5.651448-.718825 5.651448-.917121 5.651448-1.164992C5.651448-1.189779 5.651448-1.363288 5.701022-1.561584L7.361755-8.229302H10.336201C12.690971-8.229302 13.137138-6.742079 13.137138-5.924106C13.137138-5.5523 12.889268-4.585605 12.715758-3.941141C12.443101-2.800937 12.36874-2.528279 12.36874-2.057325C12.36874-.297445 13.806389 .520528 15.467121 .520528C17.474873 .520528 18.34242-1.93339 18.34242-2.280409C18.34242-2.453918 18.218484-2.528279 18.069762-2.528279C17.871466-2.528279 17.821891-2.379557 17.772317-2.181261C17.177428-.42138 16.161159 .024787 15.541483 .024787S14.525213-.247871 14.525213-1.363288C14.525213-1.958177 14.822658-4.213799 14.847445-4.337734C14.97138-5.254855 14.97138-5.354004 14.97138-5.5523C14.97138-7.361755 13.508944-8.130154 12.567036-8.427598Z" /><path
       id="g0-86-23"
       d="M15.343186-14.178195C16.185946-15.516695 16.954345-16.111585 18.218484-16.210733C18.466355-16.23552 18.664651-16.23552 18.664651-16.681687C18.664651-16.780835 18.615077-16.929557 18.391994-16.929557C17.945827-16.929557 16.879983-16.879983 16.433816-16.879983C15.714992-16.879983 14.97138-16.929557 14.277343-16.929557C14.079046-16.929557 13.831176-16.929557 13.831176-16.458603C13.831176-16.23552 14.054259-16.210733 14.153408-16.210733C15.070528-16.136372 15.169677-15.690205 15.169677-15.39276C15.169677-15.020954 14.822658-14.450852 14.797871-14.426065L7.014736-2.082112L5.279642-15.442334C5.279642-16.161159 6.568569-16.210733 6.841227-16.210733C7.213033-16.210733 7.436116-16.210733 7.436116-16.681687C7.436116-16.929557 7.163458-16.929557 7.089097-16.929557C6.667717-16.929557 6.171976-16.879983 5.750596-16.879983H4.362521C2.553067-16.879983 1.809455-16.929557 1.784668-16.929557C1.635946-16.929557 1.338501-16.929557 1.338501-16.483391C1.338501-16.210733 1.51201-16.210733 1.908603-16.210733C3.172743-16.210733 3.247104-15.987649 3.321465-15.367973L5.304429-.074361C5.378791 .446167 5.378791 .520528 5.725809 .520528C6.023254 .520528 6.147189 .446167 6.39506 .049574L15.343186-14.178195Z" /><path
       id="g0-116-7"
       d="M4.982198-9.964395H7.262607C7.733561-9.964395 7.981431-9.964395 7.981431-10.410562C7.981431-10.68322 7.832709-10.68322 7.336968-10.68322H5.155707L6.072828-14.30213C6.171976-14.649149 6.171976-14.698723 6.171976-14.872232C6.171976-15.268825 5.849745-15.491908 5.527513-15.491908C5.329216-15.491908 4.759114-15.417547 4.560818-14.624362L3.594123-10.68322H1.26414C.768399-10.68322 .545315-10.68322 .545315-10.212266C.545315-9.964395 .718825-9.964395 1.189779-9.964395H3.395826L1.759881-3.420613C1.561584-2.553067 1.487223-2.305196 1.487223-1.982964C1.487223-.817973 2.305196 .247871 3.693271 .247871C6.196763 .247871 7.535264-3.371039 7.535264-3.544549C7.535264-3.693271 7.436116-3.767632 7.287394-3.767632C7.23782-3.767632 7.138671-3.767632 7.089097-3.668484C7.06431-3.643697 7.039523-3.61891 6.866014-3.222317C6.345486-1.982964 5.205281-.247871 3.767632-.247871C3.024021-.247871 2.974446-.867547 2.974446-1.412862C2.974446-1.437649 2.974446-1.908603 3.048808-2.206048L4.982198-9.964395Z" /></defs><path
     style="fill:#ffffff;stroke:#000000;stroke-width:7.99998;stroke-linecap:round;stroke-linejoin:round;stroke-dasharray:none;marker-end:url(#Triangle-3-7-7-9)"
     d="m 348.50734,172.45772 h 387.8343"
     id="path10-5-0-7-7"
     sodipodi:nodetypes="cc" /><path
     d="M 1603.8247,385.93064 V 475.173 l 35.1066,12.34801 -67.5807,20.20585 68.4585,22.45089 -67.5808,19.64455 66.703,21.32837 -67.1419,21.32837 32.0353,11.78668 v 89.80364"
     style="fill:none;fill-rule:evenodd;stroke:#000000;stroke-width:8;stroke-linecap:butt;stroke-linejoin:miter;stroke-miterlimit:5;stroke-dasharray:none;stroke-opacity:1"
     id="path4178"
     sodipodi:nodetypes="cccccccccc"
     inkscape:label="resistor" /><g
     id="g8"
     transform="rotate(-90,-245.27613,499.58604)"
     style="stroke:#000000"
     inkscape:label="dc-source"><path
       d="m -418.60807,1040.9191 h 108.38687 v -34.6391 70.3956"
       style="fill:none;fill-rule:evenodd;stroke:#000000;stroke-width:8;stroke-linecap:butt;stroke-linejoin:miter;stroke-dasharray:none;stroke-opacity:1"
       id="path5149" /><path
       d="M -152.77211,1040.9191 H -266.57253 V 968.04643 1115.2476"
       style="fill:none;fill-rule:evenodd;stroke:#000000;stroke-width:8;stroke-linecap:butt;stroke-linejoin:miter;stroke-dasharray:none;stroke-opacity:1"
       id="path5151" /><path
       d="m -238.53376,1004.0372 h 40.26375"
       style="fill:none;fill-rule:evenodd;stroke:#000000;stroke-width:8;stroke-linecap:butt;stroke-linejoin:miter;stroke-dasharray:none;stroke-opacity:1"
       id="path5153" /><path
       d="m -218.40185,983.90533 v 40.26377"
       style="fill:none;fill-rule:evenodd;stroke:#000000;stroke-width:8;stroke-linecap:butt;stroke-linejoin:miter;stroke-dasharray:none;stroke-opacity:1"
       id="path5153-6" /></g><g
     id="g11"
     inkscape:label="wires"><path
       style="fill:none;stroke:#000000;stroke-width:7.99998;stroke-linecap:butt;stroke-linejoin:miter;stroke-dasharray:none"
       d="M 1603.8247,675.70955 V 854.69929 H 297.22043 l -1.16351,-199.92582"
       id="path10" /><path
       style="fill:none;stroke:#000000;stroke-width:7.99998;stroke-linecap:butt;stroke-linejoin:miter;stroke-dasharray:none"
       d="m 296.057,425.22653 0.65819,-199.92582 H 1603.8247 v 178.98974"
       id="path10-5-0-7-7-0"
       sodipodi:nodetypes="cccc" /></g><use
     x="175.69026"
     y="95.641342"
     xlink:href="#g0-82-20"
     id="use1-9"
     style="stroke-width:0.401254"
     transform="matrix(3.7548796,0,0,3.7548796,1014.4074,211.68524)"
     inkscape:label="R" /><g
     id="g10"
     transform="matrix(0.84071208,0,0,0.84071208,-454.7408,-92.900038)"
     style="stroke-width:1.18946"
     inkscape:label="V"><use
       x="194.36792"
       y="95.641342"
       xlink:href="#g0-86-23"
       id="use2-2"
       style="stroke-width:0.401254"
       transform="matrix(4.4663087,0,0,4.4663087,-213.53221,170.01125)" /><use
       x="213.91048"
       y="95.641342"
       xlink:href="#g1-40-1"
       id="use3-2"
       style="stroke-width:0.401254"
       transform="matrix(4.4663087,0,0,4.4663087,-213.53221,170.01125)" /><use
       x="222.68834"
       y="95.641342"
       xlink:href="#g0-116-7"
       id="use4-8"
       style="stroke-width:0.401254"
       transform="matrix(4.4663087,0,0,4.4663087,-213.53221,170.01125)" /><use
       x="231.45265"
       y="95.641342"
       xlink:href="#g1-41-8"
       id="use5"
       style="stroke-width:0.401254"
       transform="matrix(4.4663087,0,0,4.4663087,-213.53221,170.01125)" /></g><g
     id="g9"
     transform="matrix(0.67184797,0,0,0.67184797,43.467484,-800.72385)"
     style="stroke-width:1.48843"
     inkscape:label="I"><use
       x="240.23051"
       y="95.641342"
       xlink:href="#g0-73-9"
       id="use6"
       style="stroke-width:0.401254"
       transform="matrix(5.5888829,0,0,5.5888829,-687.22719,835.52462)" /><use
       x="252.88361"
       y="95.641342"
       xlink:href="#g1-40-1"
       id="use7"
       style="stroke-width:0.401254"
       transform="matrix(5.5888829,0,0,5.5888829,-687.22719,835.52462)" /><use
       x="261.66147"
       y="95.641342"
       xlink:href="#g0-116-7"
       id="use8"
       style="stroke-width:0.401254"
       transform="matrix(5.5888829,0,0,5.5888829,-687.22719,835.52462)" /><use
       x="270.42578"
       y="95.641342"
       xlink:href="#g1-41-8"
       id="use9"
       style="stroke-width:0.401254"
       transform="matrix(5.5888829,0,0,5.5888829,-687.22719,835.52462)" /></g></svg>
