<?xml version="1.0" encoding="UTF-8" standalone="no"?>
<svg
   width="1920"
   height="1080"
   version="1.1"
   id="svg3"
   sodipodi:docname="diagram.svg"
   inkscape:version="1.4.2 (ebf0e940d0, 2025-05-08)"
   xml:space="preserve"
   xmlns:inkscape="http://www.inkscape.org/namespaces/inkscape"
   xmlns:sodipodi="http://sodipodi.sourceforge.net/DTD/sodipodi-0.dtd"
   xmlns="http://www.w3.org/2000/svg"
   xmlns:svg="http://www.w3.org/2000/svg"><sodipodi:namedview
     id="namedview3"
     pagecolor="#ffffff"
     bordercolor="#000000"
     borderopacity="0.25"
     inkscape:showpageshadow="2"
     inkscape:pageopacity="0.0"
     inkscape:pagecheckerboard="0"
     inkscape:deskcolor="#d1d1d1"
     inkscape:zoom="0.5"
     inkscape:cx="895"
     inkscape:cy="561"
     inkscape:window-width="1920"
     inkscape:window-height="1016"
     inkscape:window-x="0"
     inkscape:window-y="0"
     inkscape:window-maximized="1"
     inkscape:current-layer="svg3"
     showgrid="false"
     showguides="true" /><rect
     style="fill:#ffffff;stroke:none;stroke-width:4;stroke-linecap:round;stroke-linejoin:round;stroke-dasharray:none"
     id="rect17"
     width="1920"
     height="1080"
     x="0"
     y="0"
     inkscape:label="background" /><!-- Tank --><!-- Inlet arrow --><!-- Outlet arrow --><!-- Labels --><!-- Arrowhead definition --><defs
     id="defs3"><marker
       style="overflow:visible"
       id="Triangle"
       refX="0"
       refY="0"
       orient="auto-start-reverse"
       inkscape:stockid="Triangle arrow"
       markerWidth="1"
       markerHeight="1"
       viewBox="0 0 1 1"
       inkscape:isstock="true"
       inkscape:collect="always"
       preserveAspectRatio="xMidYMid"><path
         transform="scale(0.5)"
         style="fill:context-stroke;fill-rule:evenodd;stroke:context-stroke;stroke-width:1pt"
         d="M 5.77,0 -2.88,5 V -5 Z"
         id="path135" /></marker><inkscape:path-effect
       effect="fillet_chamfer"
       id="path-effect2"
       is_visible="true"
       lpeversion="1"
       nodesatellites_param="F,0,0,1,0,11.069581,0,1 @ F,0,0,1,0,0,0,1 @ F,0,0,1,0,0,0,1 @ F,0,0,1,0,0,0,1 @ F,0,0,1,0,0,0,1 @ F,0,1,1,0,11.069581,0,1 @ F,0,0,1,0,0,0,1 @ F,0,0,1,0,0,0,1"
       radius="0"
       unit="px"
       method="auto"
       mode="F"
       chamfer_steps="1"
       flexible="false"
       use_knot_distance="true"
       apply_no_radius="true"
       apply_with_radius="true"
       only_selected="false"
       hide_knots="false" /><marker
       style="overflow:visible"
       id="Triangle-3-7-7-9-2"
       refX="0"
       refY="0"
       orient="auto-start-reverse"
       inkscape:stockid="Triangle arrow"
       markerWidth="0.5"
       markerHeight="0.5"
       viewBox="0 0 1 1"
       inkscape:isstock="true"
       inkscape:collect="always"
       preserveAspectRatio="xMidYMid"><path
         transform="scale(0.5)"
         style="fill:context-stroke;fill-rule:evenodd;stroke:context-stroke;stroke-width:1pt"
         d="M 5.77,0 -2.88,5 V -5 Z"
         id="path135-6-9-5-1-0" /></marker><inkscape:path-effect
       effect="fillet_chamfer"
       id="path-effect2-9"
       is_visible="true"
       lpeversion="1"
       nodesatellites_param="F,0,0,1,0,11.069581,0,1 @ F,0,0,1,0,0,0,1 @ F,0,0,1,0,0,0,1 @ F,0,0,1,0,0,0,1 @ F,0,0,1,0,0,0,1 @ F,0,1,1,0,11.069581,0,1 @ F,0,0,1,0,0,0,1 @ F,0,0,1,0,0,0,1"
       radius="0"
       unit="px"
       method="auto"
       mode="F"
       chamfer_steps="1"
       flexible="false"
       use_knot_distance="true"
       apply_no_radius="true"
       apply_with_radius="true"
       only_selected="false"
       hide_knots="false" /><marker
       style="overflow:visible"
       id="Triangle-1"
       refX="0"
       refY="0"
       orient="auto-start-reverse"
       inkscape:stockid="Triangle arrow"
       markerWidth="1"
       markerHeight="1"
       viewBox="0 0 1 1"
       inkscape:isstock="true"
       inkscape:collect="always"
       preserveAspectRatio="xMidYMid"><path
         transform="scale(0.5)"
         style="fill:context-stroke;fill-rule:evenodd;stroke:context-stroke;stroke-width:1pt"
         d="M 5.77,0 -2.88,5 V -5 Z"
         id="path135-8" /></marker><marker
       style="overflow:visible"
       id="Triangle-1-9"
       refX="0"
       refY="0"
       orient="auto-start-reverse"
       inkscape:stockid="Triangle arrow"
       markerWidth="1"
       markerHeight="1"
       viewBox="0 0 1 1"
       inkscape:isstock="true"
       inkscape:collect="always"
       preserveAspectRatio="xMidYMid"><path
         transform="scale(0.5)"
         style="fill:context-stroke;fill-rule:evenodd;stroke:context-stroke;stroke-width:1pt"
         d="M 5.77,0 -2.88,5 V -5 Z"
         id="path135-8-7" /></marker><marker
       style="overflow:visible"
       id="Triangle-3"
       refX="0"
       refY="0"
       orient="auto-start-reverse"
       inkscape:stockid="Triangle arrow"
       markerWidth="1"
       markerHeight="1"
       viewBox="0 0 1 1"
       inkscape:isstock="true"
       inkscape:collect="always"
       preserveAspectRatio="xMidYMid"><path
         transform="scale(0.5)"
         style="fill:context-stroke;fill-rule:evenodd;stroke:context-stroke;stroke-width:1pt"
         d="M 5.77,0 -2.88,5 V -5 Z"
         id="path135-1" /></marker><marker
       style="overflow:visible"
       id="Triangle-3-5"
       refX="0"
       refY="0"
       orient="auto-start-reverse"
       inkscape:stockid="Triangle arrow"
       markerWidth="1"
       markerHeight="1"
       viewBox="0 0 1 1"
       inkscape:isstock="true"
       inkscape:collect="always"
       preserveAspectRatio="xMidYMid"><path
         transform="scale(0.5)"
         style="fill:context-stroke;fill-rule:evenodd;stroke:context-stroke;stroke-width:1pt"
         d="M 5.77,0 -2.88,5 V -5 Z"
         id="path135-1-0" /></marker><marker
       style="overflow:visible"
       id="Triangle-3-3"
       refX="0"
       refY="0"
       orient="auto-start-reverse"
       inkscape:stockid="Triangle arrow"
       markerWidth="1"
       markerHeight="1"
       viewBox="0 0 1 1"
       inkscape:isstock="true"
       inkscape:collect="always"
       preserveAspectRatio="xMidYMid"><path
         transform="scale(0.5)"
         style="fill:context-stroke;fill-rule:evenodd;stroke:context-stroke;stroke-width:1pt"
         d="M 5.77,0 -2.88,5 V -5 Z"
         id="path135-1-2" /></marker></defs><g
     id="g2"
     inkscape:label="air-passage"><path
       style="fill:none;stroke:#000000;stroke-width:2;stroke-linecap:round;stroke-linejoin:round;stroke-dasharray:none"
       d="m 952.9731,252.98326 v -103.888 h 271.605"
       id="path2"
       sodipodi:nodetypes="ccc" /><path
       style="fill:none;stroke:#000000;stroke-width:2;stroke-linecap:round;stroke-linejoin:round;stroke-dasharray:none"
       d="m 967.0271,252.98284 -2.8e-4,-89.83358 h 257.55128"
       id="path2-3"
       sodipodi:nodetypes="ccc" /></g><g
     id="g9"
     transform="translate(518.57838,10.09526)"
     inkscape:label="valve"><path
       id="path3-2-8-7-8-5-5"
       style="fill:#000000;fill-opacity:1;stroke:#000000;stroke-width:2;stroke-linecap:round;stroke-linejoin:round;stroke-dasharray:none"
       d="m 490.28466,481.56419 v 22.24024 h -22.80469 v 54.02342 l -17.06252,-1.9e-4 v -76.25585 z"
       sodipodi:nodetypes="ccccccc" /><path
       id="path3-2-8-7-8-5"
       style="fill:#000000;fill-opacity:1;stroke:#000000;stroke-width:2;stroke-linecap:round;stroke-linejoin:round;stroke-dasharray:none"
       d="m 392.55859,481.56445 v 22.24024 h 22.80469 v 54.02343 l 17.06248,-4.6e-4 v -76.25585 z"
       sodipodi:nodetypes="ccccccc" /><rect
       style="fill:#9a9996;stroke:#000000;stroke-width:2;stroke-linecap:round;stroke-linejoin:round"
       id="rect4-9"
       width="72.321709"
       height="15.421095"
       x="475.32797"
       y="195.66956"
       ry="7.7105474"
       rx="7.7105474"
       transform="rotate(15)" /><path
       id="rect4"
       style="fill:#9a9996;stroke:#000000;stroke-width:2;stroke-linecap:round;stroke-linejoin:round"
       d="m 477.90852,182.31534 54.31955,-3.5e-4 c 4.27165,0 7.71021,-3.4398 7.71021,-7.71144 0,-3.53235 -2.35025,-6.49419 -5.5797,-7.41396 z"
       transform="rotate(15)" /><rect
       style="fill:#9a9996;stroke:#000000;stroke-width:2;stroke-linecap:round;stroke-linejoin:round"
       id="rect4-9-6"
       width="72.321709"
       height="15.421095"
       x="483.03851"
       y="224.44568"
       ry="7.7105474"
       rx="7.7105474"
       transform="rotate(15)" /><rect
       style="fill:#9a9996;stroke:#000000;stroke-width:2;stroke-linecap:round;stroke-linejoin:round"
       id="rect4-9-9"
       width="72.321709"
       height="15.421095"
       x="490.74902"
       y="253.22177"
       ry="7.7105474"
       rx="7.7105474"
       transform="rotate(15)" /><rect
       style="fill:#9a9996;stroke:#000000;stroke-width:2;stroke-linecap:round;stroke-linejoin:round"
       id="rect4-9-6-1"
       width="72.321709"
       height="15.421095"
       x="498.45956"
       y="281.99789"
       ry="7.7105474"
       rx="7.7105474"
       transform="rotate(15)" /><rect
       style="fill:#9a9996;stroke:#000000;stroke-width:2;stroke-linecap:round;stroke-linejoin:round"
       id="rect4-9-7"
       width="72.321709"
       height="15.421095"
       x="506.17007"
       y="310.77399"
       ry="7.7105474"
       rx="7.7105474"
       transform="rotate(15)" /><path
       id="rect4-9-6-5"
       style="fill:#9a9996;stroke:#000000;stroke-width:2;stroke-linecap:round;stroke-linejoin:round"
       d="m 519.29288,339.89557 c -3.14255,0.97335 -5.41305,3.89413 -5.41305,7.36484 0,4.27165 3.43979,7.71022 7.71143,7.71022 l 14.29362,-2.6e-4 10.03519,-2.68689 10.20259,-2.73378 -5e-4,-0.002 28.0424,-7.52 c -1.40693,-1.52539 -3.42407,-2.47762 -5.67243,-2.47762 l -56.90159,6.7e-4 c -0.80093,0 -1.57246,0.12009 -2.29766,0.34471 z"
       transform="rotate(15)" /><path
       id="path3-2"
       style="fill:#c0bfbc;fill-opacity:1;stroke:#000000;stroke-width:2;stroke-linecap:round;stroke-linejoin:round;stroke-dasharray:none"
       d="m 236.92578,298.04102 v 22.24023 h 32.91406 v 57.8457 c 6.7e-4,6.11337 4.95695,11.06877 11.07032,11.06836 h 63.24414 v 118.83399 22.24023 51.73633 c -11.68276,18.2227 -17.89258,39.41445 -17.89258,61.06055 2.1e-4,19.02133 4.78732,37.48249 13.62305,53.82031 h -28.99024 v 22.24023 h 117.53125 v -22.24023 h -61.03125 c -11.61564,-15.5393 -17.89236,-34.41946 -17.89258,-53.82031 -2e-4,-19.40152 5.27653,-38.28244 16.89258,-53.82227 v -32.60937 -26.36524 h 48.96875 V 508.0293 H 366.39453 V 366.95508 h -63.24414 c -6.11337,4e-4 -11.06964,-4.95499 -11.07031,-11.06836 v -57.8457 z"
       sodipodi:nodetypes="ccccccccccccccccsccccccccccc" /><path
       id="rect2"
       style="fill:#c0bfbc;stroke:#000000;stroke-width:2;stroke-linecap:round;stroke-linejoin:round;stroke-dasharray:none"
       d="m 649.03589,139.02823 v 21.84448 h -32.91406 v 22.24024 h 55.15429 V 161.26847 A 11.069581,11.069581 135 0 1 682.3457,150.19889 H 813.59058 V 127.95865 H 660.10547 a 11.069581,11.069581 135 0 0 -11.06958,11.06958 z"
       sodipodi:nodetypes="ccccccccc"
       inkscape:path-effect="#path-effect2"
       inkscape:original-d="m 649.03589,127.95865 v 32.91406 h -32.91406 v 22.24024 h 55.15429 v -32.91406 h 142.31446 v -22.24024 z"
       transform="translate(-379.19596,114.92893)" /><path
       id="rect2-2"
       style="fill:#c0bfbc;stroke:#000000;stroke-width:2;stroke-linecap:round;stroke-linejoin:round;stroke-dasharray:none"
       d="m 649.03589,139.02823 v 21.84448 h -32.91406 v 22.24024 h 55.15429 V 161.26847 A 11.069581,11.069581 135 0 1 682.3457,150.19889 H 813.59058 V 127.95865 H 660.10547 a 11.069581,11.069581 135 0 0 -11.06958,11.06958 z"
       sodipodi:nodetypes="ccccccccc"
       inkscape:path-effect="#path-effect2-9"
       inkscape:original-d="m 649.03589,127.95865 v 32.91406 h -32.91406 v 22.24024 h 55.15429 v -32.91406 h 142.31446 v -22.24024 z"
       transform="matrix(-1,0,0,1,1262.0393,114.92893)" /><path
       style="fill:#c0bfbc;fill-opacity:1;stroke:#000000;stroke-width:2;stroke-linecap:round;stroke-linejoin:round;stroke-dasharray:none"
       d="M 250.44727,854.36523 V 920.5 h 22.24023 v -43.89453 h 31.32812 l 30.05274,30.05078 v 17.78516 h -8.24219 v 22.24023 h 44.56836 v -22.24023 h -14.08594 v -26.99805 l -42.99023,-43.07813 z"
       id="path8" /><path
       style="fill:#c0bfbc;fill-opacity:1;stroke:#000000;stroke-width:2;stroke-linecap:round;stroke-linejoin:round;stroke-dasharray:none"
       d="m 310.89453,719.12695 v 22.24024 h 11.32227 v 43.89453 h -49.5293 v -43.89453 h -22.24023 v 66.13476 h 76.66015 l 35.61133,35.67969 h 60.29102 V 820.94141 H 372 l -27.54297,-27.54297 v -52.03125 h 11.32227 72.64648 v -22.24024 z"
       id="path3-2-8-7"
       sodipodi:nodetypes="ccccccccccccccccccc" /><path
       style="fill:none;stroke:#000000;stroke-width:4;stroke-linecap:round;stroke-linejoin:miter;stroke-dasharray:none"
       d="m 487.36995,605.21412 10e-6,62.21151"
       id="path10-5-0-7-7-0-2-5-3"
       sodipodi:nodetypes="cc" /><path
       id="path3-2-8"
       style="fill:#c0bfbc;fill-opacity:1;stroke:#000000;stroke-width:2;stroke-linecap:round;stroke-linejoin:round;stroke-dasharray:none"
       d="m 645.91747,298.04188 v 22.24023 h -32.91405 v 57.8457 c -6.8e-4,6.11337 -4.95696,11.06877 -11.07033,11.06836 h -63.24414 v 118.83399 22.24023 51.73633 c 11.68276,18.2227 17.89258,39.41445 17.89258,61.06055 -2.1e-4,19.02133 -4.78732,37.48249 -13.62305,53.82031 h 28.99024 v 22.24023 H 454.41747 v -22.24023 h 61.03125 c 11.61564,-15.5393 17.89237,-34.41946 17.89258,-53.82031 2e-4,-19.40152 -5.27653,-38.28244 -16.89258,-53.82227 v -32.60937 -26.36524 h -48.96875 v -22.24023 h 48.96875 V 366.95594 h 63.24414 c 6.11338,4e-4 11.06965,-4.95499 11.07031,-11.06836 v -57.8457 z"
       sodipodi:nodetypes="ccccccccccccccccsccccccccccc" /><path
       id="path10"
       style="fill:#c0bfbc;fill-opacity:1;stroke:#000000;stroke-width:2;stroke-linecap:round;stroke-linejoin:round;stroke-dasharray:none"
       d="m 459.83398,820.94141 v 22.24023 h 41.79688 l 39.58398,39.58398 -14.67968,14.67774 v 26.99805 h -14.08594 v 22.24023 h 44.56836 v -22.24023 h -8.24219 v -17.78516 l 30.05273,-30.05078 h 31.32813 V 920.5 h 22.24023 v -66.13477 h -62.87109 l -12.60351,12.65625 -46.07813,-46.08007 z"
       sodipodi:nodetypes="ccccccccccccccccccccc" /><path
       style="fill:#c0bfbc;fill-opacity:1;stroke:#000000;stroke-width:2;stroke-linecap:round;stroke-linejoin:round;stroke-dasharray:none"
       d="m 538.38622,793.3993 v -52.03125 h -11.32227 -72.64648 v -22.24024 h 117.53125 v 22.24024 h -11.32227 v 43.89453 h 49.5293 v -43.89453 h 22.24023 v 66.13476 h -76.66015 z"
       id="path3-2-8-7-84"
       sodipodi:nodetypes="ccccccccccccccc" /><path
       id="path3-2-8-7-8"
       style="fill:#c0bfbc;fill-opacity:1;stroke:#000000;stroke-width:2;stroke-linecap:round;stroke-linejoin:round;stroke-dasharray:none"
       d="m 326.1631,968.9219 h 230.854 v -22.24026 h -230.854 z"
       sodipodi:nodetypes="ccccc" /><rect
       style="fill:#c64600;stroke:#000000;stroke-width:2;stroke-linecap:round;stroke-linejoin:round"
       id="rect3-9-5"
       width="476.09042"
       height="17.99169"
       x="298.04187"
       y="-450.41745"
       transform="rotate(90)" /><rect
       style="fill:#000000;stroke:none;stroke-width:2;stroke-linecap:round;stroke-linejoin:round"
       id="rect3"
       width="211.52296"
       height="4.7523022"
       x="335.66016"
       y="299.0419" /><path
       style="fill:none;stroke:#000000;stroke-width:2;stroke-linecap:round;stroke-linejoin:round;stroke-dasharray:none"
       d="m 292.08008,298.04188 h 12.39413 c 0,0 2.13486,-7.20246 9.89309,-7.20246 7.75823,0 9.89309,7.20246 9.89309,7.20246 h 234.32247 c 0,0 2.10172,-7.20246 9.89309,-7.20246 7.79137,0 9.89309,7.20246 9.89309,7.20246 h 12.39413"
       id="path2-3-9"
       sodipodi:nodetypes="cczcczcc" /><path
       id="rect4-2"
       style="fill:#9a9996;stroke:#000000;stroke-width:2;stroke-linecap:round;stroke-linejoin:round"
       d="m -355.54065,409.77848 38.8633,3e-5 c 4.27165,0 7.71144,3.43857 7.71144,7.71021 0,4.27164 -3.43907,7.70955 -7.71072,7.70955 l -56.90159,6.8e-4 c -4.27164,0 -7.70955,-3.43908 -7.70955,-7.71072 0,-0.27825 0.0141,-0.55177 0.0426,-0.82223 z"
       transform="matrix(-0.96592583,0.25881905,0.25881905,0.96592583,0,0)" /><rect
       style="fill:#9a9996;stroke:#000000;stroke-width:2;stroke-linecap:round;stroke-linejoin:round"
       id="rect4-2-1"
       width="72.321709"
       height="15.421095"
       x="-373.57785"
       y="438.55426"
       ry="7.7105474"
       rx="7.7105474"
       transform="matrix(-0.96592583,0.25881905,0.25881905,0.96592583,0,0)" /><rect
       style="fill:#9a9996;stroke:#000000;stroke-width:2;stroke-linecap:round;stroke-linejoin:round"
       id="rect4-2-3"
       width="72.321709"
       height="15.421095"
       x="-365.86731"
       y="467.33038"
       ry="7.7105474"
       rx="7.7105474"
       transform="matrix(-0.96592583,0.25881905,0.25881905,0.96592583,0,0)" /><rect
       style="fill:#9a9996;stroke:#000000;stroke-width:2;stroke-linecap:round;stroke-linejoin:round"
       id="rect4-2-1-9"
       width="72.321709"
       height="15.421095"
       x="-358.15677"
       y="496.10651"
       ry="7.7105474"
       rx="7.7105474"
       transform="matrix(-0.96592583,0.25881905,0.25881905,0.96592583,0,0)" /><rect
       style="fill:#9a9996;stroke:#000000;stroke-width:2;stroke-linecap:round;stroke-linejoin:round"
       id="rect4-2-4"
       width="72.321709"
       height="15.421095"
       x="-350.44623"
       y="524.88257"
       ry="7.7105474"
       rx="7.7105474"
       transform="matrix(-0.96592583,0.25881905,0.25881905,0.96592583,0,0)" /><rect
       style="fill:#9a9996;stroke:#000000;stroke-width:2;stroke-linecap:round;stroke-linejoin:round"
       id="rect4-2-1-0"
       width="72.321709"
       height="15.421095"
       x="-342.73569"
       y="553.65875"
       ry="7.7105474"
       rx="7.7105474"
       transform="matrix(-0.96592583,0.25881905,0.25881905,0.96592583,0,0)" /><path
       id="path9"
       style="fill:#c64600;stroke:#000000;stroke-width:2;stroke-linecap:round;stroke-linejoin:round"
       inkscape:transform-center-x="0.0071790323"
       inkscape:transform-center-y="5.6040475"
       d="m 441.41793,806.94141 c -12.64906,-1.4e-4 -19.067,-32.80913 -19.067,-32.80913 h 38.135 c 0,0 -6.41877,32.80927 -19.068,32.80913 z"
       sodipodi:nodetypes="sccs" /><rect
       style="fill:#f5c211;stroke:#000000;stroke-width:1.99999;stroke-linecap:round;stroke-linejoin:round"
       id="rect9"
       width="21.991709"
       height="38.537319"
       x="430.42575"
       y="607.05121" /><path
       style="fill:none;stroke:#000000;stroke-width:2;stroke-linecap:round;stroke-linejoin:miter;stroke-dasharray:none"
       d="m 503.0451,605.21411 -15.67515,10e-6"
       id="path10-5-0-7-7-0-2-5-3-7"
       sodipodi:nodetypes="cc" /><path
       style="fill:none;stroke:#000000;stroke-width:2;stroke-linecap:round;stroke-linejoin:miter;stroke-dasharray:none"
       d="m 503.04511,667.42562 -15.67516,10e-6"
       id="path10-5-0-7-7-0-2-5-3-7-6"
       sodipodi:nodetypes="cc" /><path
       style="fill:none;stroke:#000000;stroke-width:2;stroke-linecap:round;stroke-linejoin:miter;stroke-dasharray:none"
       d="m 503.0451,627.83648 -15.67515,10e-6"
       id="path10-5-0-7-7-0-2-5-3-7-8"
       sodipodi:nodetypes="cc" /><path
       style="fill:none;stroke:#000000;stroke-width:2;stroke-linecap:round;stroke-linejoin:miter;stroke-dasharray:none"
       d="m 503.0451,661.77003 -15.67515,10e-6"
       id="path10-5-0-7-7-0-2-5-3-7-3"
       sodipodi:nodetypes="cc" /><path
       style="fill:none;stroke:#000000;stroke-width:2;stroke-linecap:round;stroke-linejoin:miter;stroke-dasharray:none"
       d="m 503.0451,656.11444 -15.67515,1e-5"
       id="path10-5-0-7-7-0-2-5-3-7-4"
       sodipodi:nodetypes="cc" /><path
       style="fill:none;stroke:#000000;stroke-width:2;stroke-linecap:round;stroke-linejoin:miter;stroke-dasharray:none"
       d="m 503.0451,650.45884 -15.67515,10e-6"
       id="path10-5-0-7-7-0-2-5-3-7-2"
       sodipodi:nodetypes="cc" /><path
       style="fill:none;stroke:#000000;stroke-width:2;stroke-linecap:round;stroke-linejoin:miter;stroke-dasharray:none"
       d="m 503.0451,616.52529 -15.67515,10e-6"
       id="path10-5-0-7-7-0-2-5-3-7-68"
       sodipodi:nodetypes="cc" /><path
       style="fill:none;stroke:#000000;stroke-width:2;stroke-linecap:round;stroke-linejoin:miter;stroke-dasharray:none"
       d="m 503.0451,610.8697 -15.67515,1e-5"
       id="path10-5-0-7-7-0-2-5-3-7-26"
       sodipodi:nodetypes="cc" /><path
       style="fill:none;stroke:#000000;stroke-width:2;stroke-linecap:round;stroke-linejoin:miter;stroke-dasharray:none"
       d="m 503.0451,633.49207 -15.67515,10e-6"
       id="path10-5-0-7-7-0-2-5-3-7-49"
       sodipodi:nodetypes="cc" /><path
       style="fill:none;stroke:#000000;stroke-width:2;stroke-linecap:round;stroke-linejoin:miter;stroke-dasharray:none"
       d="m 503.0451,639.14766 -15.67515,10e-6"
       id="path10-5-0-7-7-0-2-5-3-7-0"
       sodipodi:nodetypes="cc" /><path
       style="fill:none;stroke:#000000;stroke-width:2;stroke-linecap:round;stroke-linejoin:miter;stroke-dasharray:none"
       d="m 503.0451,644.80325 -15.67515,10e-6"
       id="path10-5-0-7-7-0-2-5-3-7-87"
       sodipodi:nodetypes="cc" /><path
       style="fill:none;stroke:#000000;stroke-width:2;stroke-linecap:round;stroke-linejoin:miter;stroke-dasharray:none"
       d="m 503.0451,622.18089 -15.67515,10e-6"
       id="path10-5-0-7-7-0-2-5-3-7-7"
       sodipodi:nodetypes="cc" /><path
       style="fill:none;stroke:#000000;stroke-width:4;stroke-linecap:butt;stroke-linejoin:miter;stroke-dasharray:none;stroke-opacity:1;marker-end:url(#Triangle-3-7-7-9-2)"
       d="m 452.41746,626.31986 h 24.29723"
       id="path10-5-0-7-7-0-2-5-3-72"
       sodipodi:nodetypes="cc" /></g><path
     style="font-weight:600;font-size:64px;line-height:1.3;font-family:Ubuntu;-inkscape-font-specification:'Ubuntu Semi-Bold';text-align:end;text-anchor:end;white-space:pre;stroke-width:8;stroke-linecap:round;stroke-linejoin:round;stroke-dashoffset:19.2"
     d="m 368.14037,816.70123 v -44.352 h 28.032 v 6.848 h -19.968 v 11.328 h 17.728 v 6.848 h -17.728 v 19.328 z m 46.52804,0.64 q -3.456,-0.064 -5.76,-0.768 -2.24,-0.704 -3.584,-1.984 -1.344,-1.344 -1.92,-3.264 -0.512,-1.984 -0.512,-4.48 v -38.528 l 7.744,-1.28 v 38.336 q 0,1.408 0.192,2.368 0.256,0.96 0.832,1.664 0.576,0.64 1.536,1.024 1.024,0.32 2.56,0.512 z m 34.81605,-1.664 q -2.24,0.576 -5.824,1.152 -3.584,0.64 -7.872,0.64 -4.032,0 -6.784,-1.152 -2.688,-1.152 -4.352,-3.2 -1.6,-2.048 -2.304,-4.864 -0.704,-2.88 -0.704,-6.272 v -18.752 h 7.744 v 17.536 q 0,5.376 1.536,7.68 1.6,2.304 5.504,2.304 1.408,0 2.944,-0.128 1.6,-0.128 2.368,-0.32 v -27.072 h 7.744 z m 17.66402,1.024 h -7.744 v -33.472 h 7.744 z m 0.832,-43.264 q 0,2.176 -1.408,3.456 -1.408,1.28 -3.328,1.28 -1.984,0 -3.392,-1.28 -1.408,-1.28 -1.408,-3.456 0,-2.24 1.408,-3.52 1.408,-1.28 3.392,-1.28 1.92,0 3.328,1.28 1.408,1.28 1.408,3.52 z m 15.10394,26.432 q 0,5.12 2.432,8.064 2.432,2.88 6.72,2.88 1.856,0 3.136,-0.128 1.344,-0.192 2.176,-0.384 v -19.2 q -1.024,-0.704 -2.752,-1.28 -1.664,-0.64 -3.584,-0.64 -4.224,0 -6.208,2.88 -1.92,2.88 -1.92,7.808 z m 22.208,15.808 q -2.304,0.704 -5.824,1.28 -3.456,0.576 -7.296,0.576 -3.968,0 -7.104,-1.216 -3.136,-1.216 -5.376,-3.456 -2.176,-2.304 -3.392,-5.504 -1.152,-3.264 -1.152,-7.296 0,-3.968 0.96,-7.168 1.024,-3.264 2.944,-5.568 1.92,-2.304 4.672,-3.52 2.752,-1.28 6.336,-1.28 2.432,0 4.288,0.576 1.856,0.576 3.2,1.28 v -16.064 l 7.744,-1.28 z m 25.15203,1.024 v -44.352 h 28.032 v 6.848 h -19.968 v 11.328 h 17.728 v 6.848 h -17.728 v 19.328 z m 46.52803,0.64 q -3.456,-0.064 -5.76,-0.768 -2.24,-0.704 -3.584,-1.984 -1.344,-1.344 -1.92,-3.264 -0.512,-1.984 -0.512,-4.48 v -38.528 l 7.744,-1.28 v 38.336 q 0,1.408 0.192,2.368 0.256,0.96 0.832,1.664 0.576,0.64 1.536,1.024 1.024,0.32 2.56,0.512 z m 37.63206,-17.408 q 0,3.968 -1.152,7.232 -1.152,3.264 -3.264,5.568 -2.112,2.304 -5.12,3.584 -2.944,1.28 -6.528,1.28 -3.584,0 -6.528,-1.28 -2.944,-1.28 -5.056,-3.584 -2.112,-2.304 -3.328,-5.568 -1.152,-3.264 -1.152,-7.232 0,-3.968 1.152,-7.168 1.216,-3.264 3.328,-5.568 2.176,-2.304 5.12,-3.52 2.944,-1.28 6.464,-1.28 3.52,0 6.464,1.28 3.008,1.216 5.12,3.52 2.112,2.304 3.264,5.568 1.216,3.2 1.216,7.168 z m -7.936,0 q 0,-4.992 -2.176,-7.872 -2.112,-2.944 -5.952,-2.944 -3.84,0 -6.016,2.944 -2.112,2.88 -2.112,7.872 0,5.056 2.112,8 2.176,2.944 6.016,2.944 3.84,0 5.952,-2.944 2.176,-2.944 2.176,-8 z m 35.19999,-4.288 q -1.472,5.632 -3.2,11.008 -1.664,5.312 -3.328,10.048 h -6.336 q -1.28,-2.944 -2.688,-6.72 -1.408,-3.776 -2.816,-8.064 -1.408,-4.288 -2.816,-9.024 -1.408,-4.736 -2.752,-9.664 h 8.192 q 0.576,2.688 1.344,5.824 0.768,3.072 1.6,6.336 0.832,3.2 1.728,6.272 0.896,3.072 1.792,5.632 0.96,-2.944 1.856,-6.08 0.96,-3.136 1.792,-6.272 0.832,-3.136 1.536,-6.08 0.768,-3.008 1.344,-5.632 h 5.952 q 0.576,2.624 1.28,5.632 0.704,2.944 1.472,6.08 0.832,3.136 1.728,6.272 0.96,3.136 1.92,6.08 0.832,-2.56 1.728,-5.632 0.896,-3.072 1.728,-6.272 0.896,-3.264 1.664,-6.336 0.768,-3.136 1.344,-5.824 h 8 q -1.344,4.928 -2.752,9.664 -1.408,4.736 -2.816,9.024 -1.408,4.288 -2.816,8.064 -1.408,3.776 -2.752,6.72 h -6.272 q -1.664,-4.736 -3.456,-10.048 -1.728,-5.376 -3.2,-11.008 z"
     id="text1"
     inkscape:label="fluid-flow-text"
     aria-label="Fluid Flow" /><g
     id="g3"
     inkscape:label="fluid-flow"><path
       style="fill:none;stroke:#1a5fb4;stroke-width:7.6181;stroke-linecap:round;stroke-linejoin:miter;stroke-dasharray:none;marker-end:url(#Triangle-1)"
       d="M 300.19279,841.0434 H 710.6367"
       id="path10-5-0-7-7-0-2-5-6-9"
       sodipodi:nodetypes="cc" /><path
       style="fill:none;stroke:#1a5fb4;stroke-width:7.6181;stroke-linecap:round;stroke-linejoin:miter;stroke-dasharray:none;marker-end:url(#Triangle-1-9)"
       d="M 1185.3131,841.04317 H 1595.757"
       id="path10-5-0-7-7-0-2-5-6-9-6"
       sodipodi:nodetypes="cc" /></g><g
     id="g4"
     inkscape:label="text"><path
       id="use5-7"
       d="m 718.74371,441.88655 c 0.11782,-0.47127 0.35345,-1.17816 0.35345,-1.76725 0,-1.17816 -1.17816,-1.17816 -1.41379,-1.17816 -0.11783,0 -4.35922,0.35344 -6.47991,0.58908 -2.00289,0.11783 -3.77014,0.35345 -5.89083,0.47128 -2.8276,0.23566 -3.65232,0.35344 -3.65232,2.47415 0,1.17816 1.17817,1.17816 2.35633,1.17816 6.00865,0 6.00865,1.06035 6.00865,2.23851 0,0.47128 0,0.7069 -0.58908,2.8276 l -16.84777,67.39106 c -0.47127,1.76725 -0.47127,2.00288 -0.47127,2.70978 0,2.59196 2.00289,3.06323 3.18105,3.06323 3.29886,0 4.00576,-2.59197 4.9483,-6.24428 l 5.53737,-22.03169 c 8.48279,0.94253 13.5489,4.47703 13.5489,10.13222 0,0.7069 0,1.17817 -0.35344,2.94541 -0.47127,1.76725 -0.47127,3.18105 -0.47127,3.77013 0,6.83336 4.47703,11.42821 10.48567,11.42821 5.41956,0 8.24716,-4.9483 9.18969,-6.59773 2.47415,-4.35921 4.00577,-10.95694 4.00577,-11.42821 0,-0.58908 -0.47128,-1.06034 -1.17817,-1.06034 -1.06035,0 -1.17816,0.47126 -1.64943,2.35633 -1.64943,6.12646 -4.12358,14.37361 -10.13222,14.37361 -2.35633,0 -3.88795,-1.17816 -3.88795,-5.65519 0,-2.23851 0.47126,-4.83047 0.94253,-6.59772 0.47127,-2.1207 0.47127,-2.23852 0.47127,-3.65232 0,-6.95117 -6.24428,-10.83912 -17.0834,-12.25292 4.2414,-2.59196 8.48279,-7.18681 10.13222,-8.95405 6.71555,-7.54027 11.31039,-11.31039 16.72995,-11.31039 2.70978,0 3.41668,0.7069 4.2414,1.41379 -4.35922,0.47128 -6.00865,3.5345 -6.00865,5.89083 0,2.8276 2.23852,3.77013 3.88795,3.77013 3.18104,0 6.00864,-2.70978 6.00864,-6.47991 0,-3.41668 -2.70978,-6.95118 -8.01152,-6.95118 -6.47991,0 -11.78166,4.59485 -20.14663,14.02018 -1.17817,1.41379 -5.53738,5.89082 -9.89659,7.54025 z"
       style="fill:#000000;stroke-width:4.75315" /><path
       style="fill:none;stroke:#000000;stroke-width:3.45426;stroke-linecap:round;stroke-linejoin:miter;stroke-dasharray:none;marker-end:url(#Triangle)"
       d="m 928.75115,296.91314 c 0,0 -48.01396,-12.19852 -69.20041,-73.35194 -21.18645,-61.15342 -75.13859,-78.79662 -75.13859,-78.79662"
       id="path10-5-0-7-7-0-2-5-6"
       sodipodi:nodetypes="czc" /><path
       id="use1-1-2"
       d="m 732.49711,131.1588 h 19.79318 c 16.25868,0 32.51736,-12.01729 32.51736,-25.44838 0,-9.189685 -7.77589,-17.554656 -22.62078,-17.554656 h -36.40531 c -2.23851,0 -3.29886,0 -3.29886,2.238514 0,1.178163 1.06035,1.178163 2.8276,1.178163 7.18681,0 7.18681,0.94253 7.18681,2.238514 0,0.235614 0,0.94253 -0.47127,2.70978 L 716.1206,159.90604 c -1.06034,4.12358 -1.29598,5.30174 -9.54314,5.30174 -2.23851,0 -3.41667,0 -3.41667,2.1207 0,1.29598 1.06034,1.29598 1.76724,1.29598 2.23852,0 4.59485,-0.23563 6.83336,-0.23563 h 13.78454 c 2.23851,0 4.71266,0.23563 6.95118,0.23563 0.94253,0 2.23851,0 2.23851,-2.23851 0,-1.17817 -1.06035,-1.17817 -2.8276,-1.17817 -7.06899,0 -7.18681,-0.82471 -7.18681,-2.00288 0,-0.58908 0.11782,-1.4138 0.23563,-2.00288 z m 8.48279,-34.991514 c 1.06034,-4.359213 1.53161,-4.594845 6.12645,-4.594845 h 11.66385 c 8.83624,0 16.14086,2.827596 16.14086,11.663839 0,3.06323 -1.53162,13.07763 -6.95117,18.4972 -2.00289,2.1207 -7.65808,6.59772 -18.37938,6.59772 h -16.61214 z"
       style="fill:#000000;stroke-width:4.75315" /><path
       style="fill:none;stroke:#000000;stroke-width:3.45426;stroke-linecap:round;stroke-linejoin:miter;stroke-dasharray:none;marker-end:url(#Triangle-3)"
       d="m 1017.7048,600.77647 c 0,0 21.7714,-38.01654 67.4578,-61.66996 45.6864,-23.65342 102.6931,-16.75678 102.6931,-16.75678"
       id="path10-5-0-7-7-0-2-5-6-4"
       sodipodi:nodetypes="czc" /><path
       style="fill:none;stroke:#000000;stroke-width:3.45426;stroke-linecap:round;stroke-linejoin:miter;stroke-dasharray:none;marker-end:url(#Triangle-3-3)"
       d="m 924.2279,434.94033 c 0,0 -18.94297,17.51045 -56.8512,38.33544 -37.90822,20.82499 -97.03624,19.58521 -97.03624,19.58521"
       id="path10-5-0-7-7-0-2-5-6-4-61"
       sodipodi:nodetypes="czc" /><path
       style="fill:none;stroke:#000000;stroke-width:3.45426;stroke-linecap:round;stroke-linejoin:miter;stroke-dasharray:none;marker-end:url(#Triangle-3-5)"
       d="m 1006.0114,302.45676 c 0,0 3.7654,-48.63785 84.7091,-79.94813 80.9437,-31.31028 139.0804,-15.86339 139.0804,-15.86339"
       id="path10-5-0-7-7-0-2-5-6-4-6"
       sodipodi:nodetypes="czc" /><path
       id="use4-8"
       d="m 1263.5779,507.31267 c -3.7701,0.7069 -5.1839,3.5345 -5.1839,5.77301 0,2.8276 2.2385,3.77013 3.8879,3.77013 3.5345,0 6.0087,-3.06323 6.0087,-6.24427 0,-4.9483 -5.6552,-7.18682 -10.6035,-7.18682 -7.1868,0 -11.1926,7.069 -12.2529,9.30751 -2.7098,-8.83624 -10.0145,-9.30751 -12.1352,-9.30751 -12.0172,0 -18.3793,15.43397 -18.3793,18.02594 0,0.47126 0.4712,1.06035 1.2959,1.06035 0.9426,0 1.1782,-0.7069 1.4138,-1.17817 4.0058,-13.07763 11.8995,-15.55178 15.3162,-15.55178 5.3017,0 6.3621,4.94829 6.3621,7.77589 0,2.59196 -0.7069,5.30174 -2.1207,10.95694 l -4.0058,16.14086 c -1.7672,7.069 -5.1839,13.5489 -11.4282,13.5489 -0.5891,0 -3.5345,0 -6.0086,-1.53161 4.2414,-0.82472 5.1839,-4.35921 5.1839,-5.77301 0,-2.35633 -1.7672,-3.77013 -4.0058,-3.77013 -2.8275,0 -5.8908,2.47415 -5.8908,6.24428 0,4.9483 5.5374,7.18681 10.6035,7.18681 5.6552,0 9.661,-4.47703 12.1351,-9.30751 1.8851,6.95117 7.7759,9.30751 12.1351,9.30751 12.0173,0 18.3794,-15.43397 18.3794,-18.02594 0,-0.58908 -0.4713,-1.06034 -1.1782,-1.06034 -1.0603,0 -1.1781,0.58908 -1.5316,1.53161 -3.181,10.36786 -10.0144,15.19833 -15.3161,15.19833 -4.1236,0 -6.3621,-3.06322 -6.3621,-7.8937 0,-2.59196 0.4712,-4.47703 2.3563,-12.25292 l 4.1236,-16.02305 c 1.7672,-7.069 5.773,-12.25292 11.1926,-12.25292 0.2356,0 3.5345,0 6.0086,1.53161 z"
       style="fill:#000000;stroke-width:4.75315" /><path
       id="use2-2-0"
       d="m 1235.662,248.10571 c -4.1235,6.95117 -8.1293,9.3075 -13.7845,9.66095 -1.296,0.11782 -2.2385,0.11782 -2.2385,2.23851 0,0.70691 0.5891,1.17817 1.4138,1.17817 2.1207,0 7.4224,-0.23563 9.5431,-0.23563 3.4167,0 7.1868,0.23563 10.4857,0.23563 0.7069,0 2.1207,0 2.1207,-2.23851 0,-1.06035 -0.9425,-1.17817 -1.6494,-1.17817 -2.7098,-0.23563 -4.9483,-1.17816 -4.9483,-4.00576 0,-1.64943 0.7069,-2.94542 2.2385,-5.53738 l 8.954,-14.84488 h 30.0433 c 0.1178,1.06035 0.1178,2.00288 0.2356,3.06323 0.3534,3.06323 1.7672,15.31615 1.7672,17.55466 0,3.5345 -6.0086,3.77013 -7.8937,3.77013 -1.296,0 -2.5919,0 -2.5919,2.1207 0,1.29598 1.0603,1.29598 1.7672,1.29598 2.0029,0 4.3592,-0.23563 6.3621,-0.23563 h 6.7156 c 7.1868,0 12.3707,0.23563 12.4885,0.23563 0.8247,0 2.1207,0 2.1207,-2.23851 0,-1.17817 -1.0603,-1.17817 -2.8276,-1.17817 -6.4799,0 -6.5977,-1.06035 -6.9512,-4.59484 l -7.1868,-73.51753 c -0.2356,-2.35633 -0.7069,-2.59196 -2.0029,-2.59196 -1.1781,0 -1.885,0.23561 -2.9454,2.00288 z m 14.138,-18.14375 23.6812,-39.58636 4.0057,39.58636 z"
       style="fill:#000000;stroke-width:4.75315" /></g></svg>
