<?xml version="1.0" encoding="UTF-8" standalone="no"?>
<svg
   width="1920"
   height="1080"
   version="1.1"
   id="svg3"
   sodipodi:docname="diagram.svg"
   inkscape:version="1.4.2 (ebf0e940d0, 2025-05-08)"
   xml:space="preserve"
   xmlns:inkscape="http://www.inkscape.org/namespaces/inkscape"
   xmlns:sodipodi="http://sodipodi.sourceforge.net/DTD/sodipodi-0.dtd"
   xmlns="http://www.w3.org/2000/svg"
   xmlns:svg="http://www.w3.org/2000/svg"><sodipodi:namedview
     id="namedview3"
     pagecolor="#ffffff"
     bordercolor="#000000"
     borderopacity="0.25"
     inkscape:showpageshadow="2"
     inkscape:pageopacity="0.0"
     inkscape:pagecheckerboard="0"
     inkscape:deskcolor="#d1d1d1"
     inkscape:zoom="0.70710678"
     inkscape:cx="965.90786"
     inkscape:cy="498.51028"
     inkscape:window-width="1920"
     inkscape:window-height="1016"
     inkscape:window-x="0"
     inkscape:window-y="0"
     inkscape:window-maximized="1"
     inkscape:current-layer="g9"
     showgrid="false"
     showguides="true" /><rect
     style="fill:#ffffff;stroke:none;stroke-width:4;stroke-linecap:round;stroke-linejoin:round;stroke-dasharray:none"
     id="rect17"
     width="1920"
     height="1080"
     x="0"
     y="0"
     inkscape:label="background" /><!-- Tank --><!-- Inlet arrow --><!-- Outlet arrow --><!-- Labels --><!-- Arrowhead definition --><defs
     id="defs3"><marker
       style="overflow:visible"
       id="Triangle"
       refX="0"
       refY="0"
       orient="auto-start-reverse"
       inkscape:stockid="Triangle arrow"
       markerWidth="1"
       markerHeight="1"
       viewBox="0 0 1 1"
       inkscape:isstock="true"
       inkscape:collect="always"
       preserveAspectRatio="xMidYMid"><path
         transform="scale(0.5)"
         style="fill:context-stroke;fill-rule:evenodd;stroke:context-stroke;stroke-width:1pt"
         d="M 5.77,0 -2.88,5 V -5 Z"
         id="path135" /></marker><inkscape:path-effect
       effect="fillet_chamfer"
       id="path-effect2"
       is_visible="true"
       lpeversion="1"
       nodesatellites_param="F,0,0,1,0,11.069581,0,1 @ F,0,0,1,0,0,0,1 @ F,0,0,1,0,0,0,1 @ F,0,0,1,0,0,0,1 @ F,0,0,1,0,0,0,1 @ F,0,1,1,0,11.069581,0,1 @ F,0,0,1,0,0,0,1 @ F,0,0,1,0,0,0,1"
       radius="0"
       unit="px"
       method="auto"
       mode="F"
       chamfer_steps="1"
       flexible="false"
       use_knot_distance="true"
       apply_no_radius="true"
       apply_with_radius="true"
       only_selected="false"
       hide_knots="false" /><marker
       style="overflow:visible"
       id="Triangle-3-7-7-9-2"
       refX="0"
       refY="0"
       orient="auto-start-reverse"
       inkscape:stockid="Triangle arrow"
       markerWidth="0.5"
       markerHeight="0.5"
       viewBox="0 0 1 1"
       inkscape:isstock="true"
       inkscape:collect="always"
       preserveAspectRatio="xMidYMid"><path
         transform="scale(0.5)"
         style="fill:context-stroke;fill-rule:evenodd;stroke:context-stroke;stroke-width:1pt"
         d="M 5.77,0 -2.88,5 V -5 Z"
         id="path135-6-9-5-1-0" /></marker><inkscape:path-effect
       effect="fillet_chamfer"
       id="path-effect2-9"
       is_visible="true"
       lpeversion="1"
       nodesatellites_param="F,0,0,1,0,11.069581,0,1 @ F,0,0,1,0,0,0,1 @ F,0,0,1,0,0,0,1 @ F,0,0,1,0,0,0,1 @ F,0,0,1,0,0,0,1 @ F,0,1,1,0,11.069581,0,1 @ F,0,0,1,0,0,0,1 @ F,0,0,1,0,0,0,1"
       radius="0"
       unit="px"
       method="auto"
       mode="F"
       chamfer_steps="1"
       flexible="false"
       use_knot_distance="true"
       apply_no_radius="true"
       apply_with_radius="true"
       only_selected="false"
       hide_knots="false" /><marker
       style="overflow:visible"
       id="Triangle-1"
       refX="0"
       refY="0"
       orient="auto-start-reverse"
       inkscape:stockid="Triangle arrow"
       markerWidth="1"
       markerHeight="1"
       viewBox="0 0 1 1"
       inkscape:isstock="true"
       inkscape:collect="always"
       preserveAspectRatio="xMidYMid"><path
         transform="scale(0.5)"
         style="fill:context-stroke;fill-rule:evenodd;stroke:context-stroke;stroke-width:1pt"
         d="M 5.77,0 -2.88,5 V -5 Z"
         id="path135-8" /></marker><marker
       style="overflow:visible"
       id="Triangle-1-9"
       refX="0"
       refY="0"
       orient="auto-start-reverse"
       inkscape:stockid="Triangle arrow"
       markerWidth="1"
       markerHeight="1"
       viewBox="0 0 1 1"
       inkscape:isstock="true"
       inkscape:collect="always"
       preserveAspectRatio="xMidYMid"><path
         transform="scale(0.5)"
         style="fill:context-stroke;fill-rule:evenodd;stroke:context-stroke;stroke-width:1pt"
         d="M 5.77,0 -2.88,5 V -5 Z"
         id="path135-8-7" /></marker><marker
       style="overflow:visible"
       id="Triangle-3"
       refX="0"
       refY="0"
       orient="auto-start-reverse"
       inkscape:stockid="Triangle arrow"
       markerWidth="1"
       markerHeight="1"
       viewBox="0 0 1 1"
       inkscape:isstock="true"
       inkscape:collect="always"
       preserveAspectRatio="xMidYMid"><path
         transform="scale(0.5)"
         style="fill:context-stroke;fill-rule:evenodd;stroke:context-stroke;stroke-width:1pt"
         d="M 5.77,0 -2.88,5 V -5 Z"
         id="path135-1" /></marker><marker
       style="overflow:visible"
       id="Triangle-3-5"
       refX="0"
       refY="0"
       orient="auto-start-reverse"
       inkscape:stockid="Triangle arrow"
       markerWidth="1"
       markerHeight="1"
       viewBox="0 0 1 1"
       inkscape:isstock="true"
       inkscape:collect="always"
       preserveAspectRatio="xMidYMid"><path
         transform="scale(0.5)"
         style="fill:context-stroke;fill-rule:evenodd;stroke:context-stroke;stroke-width:1pt"
         d="M 5.77,0 -2.88,5 V -5 Z"
         id="path135-1-0" /></marker><marker
       style="overflow:visible"
       id="Triangle-3-3"
       refX="0"
       refY="0"
       orient="auto-start-reverse"
       inkscape:stockid="Triangle arrow"
       markerWidth="1"
       markerHeight="1"
       viewBox="0 0 1 1"
       inkscape:isstock="true"
       inkscape:collect="always"
       preserveAspectRatio="xMidYMid"><path
         transform="scale(0.5)"
         style="fill:context-stroke;fill-rule:evenodd;stroke:context-stroke;stroke-width:1pt"
         d="M 5.77,0 -2.88,5 V -5 Z"
         id="path135-1-2" /></marker></defs><g
     id="g2"
     inkscape:label="air-passage"><path
       style="fill:none;stroke:#000000;stroke-width:2;stroke-linecap:round;stroke-linejoin:round;stroke-dasharray:none"
       d="m 952.9731,252.98326 v -103.888 h 271.605"
       id="path2"
       sodipodi:nodetypes="ccc" /><path
       style="fill:none;stroke:#000000;stroke-width:2;stroke-linecap:round;stroke-linejoin:round;stroke-dasharray:none"
       d="m 967.0271,252.98284 -2.8e-4,-89.83358 h 257.55128"
       id="path2-3"
       sodipodi:nodetypes="ccc" /></g><g
     id="g9"
     transform="translate(518.57838,10.09526)"
     inkscape:label="valve"><path
       id="path3-2-8-7-8-5-5"
       style="fill:#000000;fill-opacity:1;stroke:#000000;stroke-width:2;stroke-linecap:round;stroke-linejoin:round;stroke-dasharray:none"
       d="m 490.28466,481.56419 v 22.24024 h -22.80469 v 54.02342 l -17.06252,-1.9e-4 v -76.25585 z"
       sodipodi:nodetypes="ccccccc" /><path
       id="path3-2-8-7-8-5"
       style="fill:#000000;fill-opacity:1;stroke:#000000;stroke-width:2;stroke-linecap:round;stroke-linejoin:round;stroke-dasharray:none"
       d="m 392.55859,481.56445 v 22.24024 h 22.80469 v 54.02343 l 17.06248,-4.6e-4 v -76.25585 z"
       sodipodi:nodetypes="ccccccc" /><rect
       style="fill:#9a9996;stroke:#000000;stroke-width:2;stroke-linecap:round;stroke-linejoin:round"
       id="rect4-9"
       width="72.321709"
       height="15.421095"
       x="475.32797"
       y="195.66956"
       ry="7.7105474"
       rx="7.7105474"
       transform="rotate(15)" /><path
       id="rect4"
       style="fill:#9a9996;stroke:#000000;stroke-width:2;stroke-linecap:round;stroke-linejoin:round"
       d="m 477.90852,182.31534 54.31955,-3.5e-4 c 4.27165,0 7.71021,-3.4398 7.71021,-7.71144 0,-3.53235 -2.35025,-6.49419 -5.5797,-7.41396 z"
       transform="rotate(15)" /><rect
       style="fill:#9a9996;stroke:#000000;stroke-width:2;stroke-linecap:round;stroke-linejoin:round"
       id="rect4-9-6"
       width="72.321709"
       height="15.421095"
       x="483.03851"
       y="224.44568"
       ry="7.7105474"
       rx="7.7105474"
       transform="rotate(15)" /><rect
       style="fill:#9a9996;stroke:#000000;stroke-width:2;stroke-linecap:round;stroke-linejoin:round"
       id="rect4-9-9"
       width="72.321709"
       height="15.421095"
       x="490.74902"
       y="253.22177"
       ry="7.7105474"
       rx="7.7105474"
       transform="rotate(15)" /><rect
       style="fill:#9a9996;stroke:#000000;stroke-width:2;stroke-linecap:round;stroke-linejoin:round"
       id="rect4-9-6-1"
       width="72.321709"
       height="15.421095"
       x="498.45956"
       y="281.99789"
       ry="7.7105474"
       rx="7.7105474"
       transform="rotate(15)" /><rect
       style="fill:#9a9996;stroke:#000000;stroke-width:2;stroke-linecap:round;stroke-linejoin:round"
       id="rect4-9-7"
       width="72.321709"
       height="15.421095"
       x="506.17007"
       y="310.77399"
       ry="7.7105474"
       rx="7.7105474"
       transform="rotate(15)" /><path
       id="rect4-9-6-5"
       style="fill:#9a9996;stroke:#000000;stroke-width:2;stroke-linecap:round;stroke-linejoin:round"
       d="m 519.29288,339.89557 c -3.14255,0.97335 -5.41305,3.89413 -5.41305,7.36484 0,4.27165 3.43979,7.71022 7.71143,7.71022 l 14.29362,-2.6e-4 10.03519,-2.68689 10.20259,-2.73378 -5e-4,-0.002 28.0424,-7.52 c -1.40693,-1.52539 -3.42407,-2.47762 -5.67243,-2.47762 l -56.90159,6.7e-4 c -0.80093,0 -1.57246,0.12009 -2.29766,0.34471 z"
       transform="rotate(15)" /><path
       id="path3-2"
       style="fill:#c0bfbc;fill-opacity:1;stroke:#000000;stroke-width:2;stroke-linecap:round;stroke-linejoin:round;stroke-dasharray:none"
       d="m 236.92578,298.04102 v 22.24023 h 32.91406 v 57.8457 c 6.7e-4,6.11337 4.95695,11.06877 11.07032,11.06836 h 63.24414 v 118.83399 22.24023 51.73633 c -11.68276,18.2227 -17.89258,39.41445 -17.89258,61.06055 2.1e-4,19.02133 4.78732,37.48249 13.62305,53.82031 h -28.99024 v 22.24023 h 117.53125 v -22.24023 h -61.03125 c -11.61564,-15.5393 -17.89236,-34.41946 -17.89258,-53.82031 -2e-4,-19.40152 5.27653,-38.28244 16.89258,-53.82227 v -32.60937 -26.36524 h 48.96875 V 508.0293 H 366.39453 V 366.95508 h -63.24414 c -6.11337,4e-4 -11.06964,-4.95499 -11.07031,-11.06836 v -57.8457 z"
       sodipodi:nodetypes="ccccccccccccccccsccccccccccc" /><path
       id="rect2"
       style="fill:#c0bfbc;stroke:#000000;stroke-width:2;stroke-linecap:round;stroke-linejoin:round;stroke-dasharray:none"
       d="m 649.03589,139.02823 v 21.84448 h -32.91406 v 22.24024 h 55.15429 V 161.26847 A 11.069581,11.069581 135 0 1 682.3457,150.19889 H 813.59058 V 127.95865 H 660.10547 a 11.069581,11.069581 135 0 0 -11.06958,11.06958 z"
       sodipodi:nodetypes="ccccccccc"
       inkscape:path-effect="#path-effect2"
       inkscape:original-d="m 649.03589,127.95865 v 32.91406 h -32.91406 v 22.24024 h 55.15429 v -32.91406 h 142.31446 v -22.24024 z"
       transform="translate(-379.19596,114.92893)" /><path
       id="rect2-2"
       style="fill:#c0bfbc;stroke:#000000;stroke-width:2;stroke-linecap:round;stroke-linejoin:round;stroke-dasharray:none"
       d="m 649.03589,139.02823 v 21.84448 h -32.91406 v 22.24024 h 55.15429 V 161.26847 A 11.069581,11.069581 135 0 1 682.3457,150.19889 H 813.59058 V 127.95865 H 660.10547 a 11.069581,11.069581 135 0 0 -11.06958,11.06958 z"
       sodipodi:nodetypes="ccccccccc"
       inkscape:path-effect="#path-effect2-9"
       inkscape:original-d="m 649.03589,127.95865 v 32.91406 h -32.91406 v 22.24024 h 55.15429 v -32.91406 h 142.31446 v -22.24024 z"
       transform="matrix(-1,0,0,1,1262.0393,114.92893)" /><path
       style="fill:#c0bfbc;fill-opacity:1;stroke:#000000;stroke-width:2;stroke-linecap:round;stroke-linejoin:round;stroke-dasharray:none"
       d="M 250.44727,854.36523 V 920.5 h 22.24023 v -43.89453 h 31.32812 l 30.05274,30.05078 v 17.78516 h -8.24219 v 22.24023 h 44.56836 v -22.24023 h -14.08594 v -26.99805 l -42.99023,-43.07813 z"
       id="path8" /><path
       style="fill:#c0bfbc;fill-opacity:1;stroke:#000000;stroke-width:2;stroke-linecap:round;stroke-linejoin:round;stroke-dasharray:none"
       d="m 310.89453,719.12695 v 22.24024 h 11.32227 v 43.89453 h -49.5293 v -43.89453 h -22.24023 v 66.13476 h 76.66015 l 35.61133,35.67969 h 60.29102 V 820.94141 H 372 l -27.54297,-27.54297 v -52.03125 h 11.32227 72.64648 v -22.24024 z"
       id="path3-2-8-7"
       sodipodi:nodetypes="ccccccccccccccccccc" /><path
       style="fill:none;stroke:#000000;stroke-width:4;stroke-linecap:round;stroke-linejoin:miter;stroke-dasharray:none"
       d="m 487.36995,605.21412 10e-6,62.21151"
       id="path10-5-0-7-7-0-2-5-3"
       sodipodi:nodetypes="cc" /><path
       id="path3-2-8"
       style="fill:#c0bfbc;fill-opacity:1;stroke:#000000;stroke-width:2;stroke-linecap:round;stroke-linejoin:round;stroke-dasharray:none"
       d="m 645.91747,298.04188 v 22.24023 h -32.91405 v 57.8457 c -6.8e-4,6.11337 -4.95696,11.06877 -11.07033,11.06836 h -63.24414 v 118.83399 22.24023 51.73633 c 11.68276,18.2227 17.89258,39.41445 17.89258,61.06055 -2.1e-4,19.02133 -4.78732,37.48249 -13.62305,53.82031 h 28.99024 v 22.24023 H 454.41747 v -22.24023 h 61.03125 c 11.61564,-15.5393 17.89237,-34.41946 17.89258,-53.82031 2e-4,-19.40152 -5.27653,-38.28244 -16.89258,-53.82227 v -32.60937 -26.36524 h -48.96875 v -22.24023 h 48.96875 V 366.95594 h 63.24414 c 6.11338,4e-4 11.06965,-4.95499 11.07031,-11.06836 v -57.8457 z"
       sodipodi:nodetypes="ccccccccccccccccsccccccccccc" /><path
       id="path10"
       style="fill:#c0bfbc;fill-opacity:1;stroke:#000000;stroke-width:2;stroke-linecap:round;stroke-linejoin:round;stroke-dasharray:none"
       d="m 459.83398,820.94141 v 22.24023 h 41.79688 l 39.58398,39.58398 -14.67968,14.67774 v 26.99805 h -14.08594 v 22.24023 h 44.56836 v -22.24023 h -8.24219 v -17.78516 l 30.05273,-30.05078 h 31.32813 V 920.5 h 22.24023 v -66.13477 h -62.87109 l -12.60351,12.65625 -46.07813,-46.08007 z"
       sodipodi:nodetypes="ccccccccccccccccccccc" /><path
       style="fill:#c0bfbc;fill-opacity:1;stroke:#000000;stroke-width:2;stroke-linecap:round;stroke-linejoin:round;stroke-dasharray:none"
       d="m 538.38622,793.3993 v -52.03125 h -11.32227 -72.64648 v -22.24024 h 117.53125 v 22.24024 h -11.32227 v 43.89453 h 49.5293 v -43.89453 h 22.24023 v 66.13476 h -76.66015 z"
       id="path3-2-8-7-84"
       sodipodi:nodetypes="ccccccccccccccc" /><path
       id="path3-2-8-7-8"
       style="fill:#c0bfbc;fill-opacity:1;stroke:#000000;stroke-width:2;stroke-linecap:round;stroke-linejoin:round;stroke-dasharray:none"
       d="m 326.1631,968.9219 h 230.854 v -22.24026 h -230.854 z"
       sodipodi:nodetypes="ccccc" /><rect
       style="fill:#c64600;stroke:#000000;stroke-width:2;stroke-linecap:round;stroke-linejoin:round"
       id="rect3-9-5"
       width="476.09042"
       height="17.99169"
       x="298.04187"
       y="-450.41745"
       transform="rotate(90)" /><rect
       style="fill:#000000;stroke:none;stroke-width:2;stroke-linecap:round;stroke-linejoin:round"
       id="rect3"
       width="211.52296"
       height="4.7523022"
       x="335.66016"
       y="299.0419" /><path
       style="fill:none;stroke:#000000;stroke-width:2;stroke-linecap:round;stroke-linejoin:round;stroke-dasharray:none"
       d="m 292.08008,298.04188 h 12.39413 c 0,0 2.13486,-7.20246 9.89309,-7.20246 7.75823,0 9.89309,7.20246 9.89309,7.20246 h 234.32247 c 0,0 2.10172,-7.20246 9.89309,-7.20246 7.79137,0 9.89309,7.20246 9.89309,7.20246 h 12.39413"
       id="path2-3-9"
       sodipodi:nodetypes="cczcczcc" /><path
       id="rect4-2"
       style="fill:#9a9996;stroke:#000000;stroke-width:2;stroke-linecap:round;stroke-linejoin:round"
       d="m -355.54065,409.77848 38.8633,3e-5 c 4.27165,0 7.71144,3.43857 7.71144,7.71021 0,4.27164 -3.43907,7.70955 -7.71072,7.70955 l -56.90159,6.8e-4 c -4.27164,0 -7.70955,-3.43908 -7.70955,-7.71072 0,-0.27825 0.0141,-0.55177 0.0426,-0.82223 z"
       transform="matrix(-0.96592583,0.25881905,0.25881905,0.96592583,0,0)" /><rect
       style="fill:#9a9996;stroke:#000000;stroke-width:2;stroke-linecap:round;stroke-linejoin:round"
       id="rect4-2-1"
       width="72.321709"
       height="15.421095"
       x="-373.57785"
       y="438.55426"
       ry="7.7105474"
       rx="7.7105474"
       transform="matrix(-0.96592583,0.25881905,0.25881905,0.96592583,0,0)" /><rect
       style="fill:#9a9996;stroke:#000000;stroke-width:2;stroke-linecap:round;stroke-linejoin:round"
       id="rect4-2-3"
       width="72.321709"
       height="15.421095"
       x="-365.86731"
       y="467.33038"
       ry="7.7105474"
       rx="7.7105474"
       transform="matrix(-0.96592583,0.25881905,0.25881905,0.96592583,0,0)" /><rect
       style="fill:#9a9996;stroke:#000000;stroke-width:2;stroke-linecap:round;stroke-linejoin:round"
       id="rect4-2-1-9"
       width="72.321709"
       height="15.421095"
       x="-358.15677"
       y="496.10651"
       ry="7.7105474"
       rx="7.7105474"
       transform="matrix(-0.96592583,0.25881905,0.25881905,0.96592583,0,0)" /><rect
       style="fill:#9a9996;stroke:#000000;stroke-width:2;stroke-linecap:round;stroke-linejoin:round"
       id="rect4-2-4"
       width="72.321709"
       height="15.421095"
       x="-350.44623"
       y="524.88257"
       ry="7.7105474"
       rx="7.7105474"
       transform="matrix(-0.96592583,0.25881905,0.25881905,0.96592583,0,0)" /><rect
       style="fill:#9a9996;stroke:#000000;stroke-width:2;stroke-linecap:round;stroke-linejoin:round"
       id="rect4-2-1-0"
       width="72.321709"
       height="15.421095"
       x="-342.73569"
       y="553.65875"
       ry="7.7105474"
       rx="7.7105474"
       transform="matrix(-0.96592583,0.25881905,0.25881905,0.96592583,0,0)" /><path
       id="path9"
       style="fill:#c64600;stroke:#000000;stroke-width:2;stroke-linecap:round;stroke-linejoin:round"
       inkscape:transform-center-x="0.0071790323"
       inkscape:transform-center-y="5.6040475"
       d="m 441.41793,806.94141 c -12.64906,-1.4e-4 -19.067,-32.80913 -19.067,-32.80913 h 38.135 c 0,0 -6.41877,32.80927 -19.068,32.80913 z"
       sodipodi:nodetypes="sccs" /><rect
       style="fill:#f5c211;stroke:#000000;stroke-width:1.99999;stroke-linecap:round;stroke-linejoin:round"
       id="rect9"
       width="21.991709"
       height="38.537319"
       x="430.42575"
       y="607.05121" /><path
       style="fill:none;stroke:#000000;stroke-width:2;stroke-linecap:round;stroke-linejoin:miter;stroke-dasharray:none"
       d="m 503.0451,605.21411 -15.67515,10e-6"
       id="path10-5-0-7-7-0-2-5-3-7"
       sodipodi:nodetypes="cc" /><path
       style="fill:none;stroke:#000000;stroke-width:2;stroke-linecap:round;stroke-linejoin:miter;stroke-dasharray:none"
       d="m 503.04511,667.42562 -15.67516,10e-6"
       id="path10-5-0-7-7-0-2-5-3-7-6"
       sodipodi:nodetypes="cc" /><path
       style="fill:none;stroke:#000000;stroke-width:2;stroke-linecap:round;stroke-linejoin:miter;stroke-dasharray:none"
       d="m 503.0451,627.83648 -15.67515,10e-6"
       id="path10-5-0-7-7-0-2-5-3-7-8"
       sodipodi:nodetypes="cc" /><path
       style="fill:none;stroke:#000000;stroke-width:2;stroke-linecap:round;stroke-linejoin:miter;stroke-dasharray:none"
       d="m 503.0451,661.77003 -15.67515,10e-6"
       id="path10-5-0-7-7-0-2-5-3-7-3"
       sodipodi:nodetypes="cc" /><path
       style="fill:none;stroke:#000000;stroke-width:2;stroke-linecap:round;stroke-linejoin:miter;stroke-dasharray:none"
       d="m 503.0451,656.11444 -15.67515,1e-5"
       id="path10-5-0-7-7-0-2-5-3-7-4"
       sodipodi:nodetypes="cc" /><path
       style="fill:none;stroke:#000000;stroke-width:2;stroke-linecap:round;stroke-linejoin:miter;stroke-dasharray:none"
       d="m 503.0451,650.45884 -15.67515,10e-6"
       id="path10-5-0-7-7-0-2-5-3-7-2"
       sodipodi:nodetypes="cc" /><path
       style="fill:none;stroke:#000000;stroke-width:2;stroke-linecap:round;stroke-linejoin:miter;stroke-dasharray:none"
       d="m 503.0451,616.52529 -15.67515,10e-6"
       id="path10-5-0-7-7-0-2-5-3-7-68"
       sodipodi:nodetypes="cc" /><path
       style="fill:none;stroke:#000000;stroke-width:2;stroke-linecap:round;stroke-linejoin:miter;stroke-dasharray:none"
       d="m 503.0451,610.8697 -15.67515,1e-5"
       id="path10-5-0-7-7-0-2-5-3-7-26"
       sodipodi:nodetypes="cc" /><path
       style="fill:none;stroke:#000000;stroke-width:2;stroke-linecap:round;stroke-linejoin:miter;stroke-dasharray:none"
       d="m 503.0451,633.49207 -15.67515,10e-6"
       id="path10-5-0-7-7-0-2-5-3-7-49"
       sodipodi:nodetypes="cc" /><path
       style="fill:none;stroke:#000000;stroke-width:2;stroke-linecap:round;stroke-linejoin:miter;stroke-dasharray:none"
       d="m 503.0451,639.14766 -15.67515,10e-6"
       id="path10-5-0-7-7-0-2-5-3-7-0"
       sodipodi:nodetypes="cc" /><path
       style="fill:none;stroke:#000000;stroke-width:2;stroke-linecap:round;stroke-linejoin:miter;stroke-dasharray:none"
       d="m 503.0451,644.80325 -15.67515,10e-6"
       id="path10-5-0-7-7-0-2-5-3-7-87"
       sodipodi:nodetypes="cc" /><path
       style="fill:none;stroke:#000000;stroke-width:2;stroke-linecap:round;stroke-linejoin:miter;stroke-dasharray:none"
       d="m 503.0451,622.18089 -15.67515,10e-6"
       id="path10-5-0-7-7-0-2-5-3-7-7"
       sodipodi:nodetypes="cc" /><path
       style="fill:none;stroke:#000000;stroke-width:4;stroke-linecap:butt;stroke-linejoin:miter;stroke-dasharray:none;stroke-opacity:1;marker-end:url(#Triangle-3-7-7-9-2)"
       d="m 452.41746,626.31986 h 24.29723"
       id="path10-5-0-7-7-0-2-5-3-72"
       sodipodi:nodetypes="cc" /></g><g
     id="g3"
     inkscape:label="fluid-flow"><path
       style="fill:none;stroke:#1a5fb4;stroke-width:7.6181;stroke-linecap:round;stroke-linejoin:miter;stroke-dasharray:none;marker-end:url(#Triangle-1)"
       d="M 300.19279,841.0434 H 710.6367"
       id="path10-5-0-7-7-0-2-5-6-9"
       sodipodi:nodetypes="cc" /><path
       style="fill:none;stroke:#1a5fb4;stroke-width:7.6181;stroke-linecap:round;stroke-linejoin:miter;stroke-dasharray:none;marker-end:url(#Triangle-1-9)"
       d="M 1185.3131,841.04317 H 1595.757"
       id="path10-5-0-7-7-0-2-5-6-9-6"
       sodipodi:nodetypes="cc" /></g><g
     id="g4"
     inkscape:label="text"><path
       id="use5-7"
       d="m 718.74371,441.88655 c 0.11782,-0.47127 0.35345,-1.17816 0.35345,-1.76725 0,-1.17816 -1.17816,-1.17816 -1.41379,-1.17816 -0.11783,0 -4.35922,0.35344 -6.47991,0.58908 -2.00289,0.11783 -3.77014,0.35345 -5.89083,0.47128 -2.8276,0.23566 -3.65232,0.35344 -3.65232,2.47415 0,1.17816 1.17817,1.17816 2.35633,1.17816 6.00865,0 6.00865,1.06035 6.00865,2.23851 0,0.47128 0,0.7069 -0.58908,2.8276 l -16.84777,67.39106 c -0.47127,1.76725 -0.47127,2.00288 -0.47127,2.70978 0,2.59196 2.00289,3.06323 3.18105,3.06323 3.29886,0 4.00576,-2.59197 4.9483,-6.24428 l 5.53737,-22.03169 c 8.48279,0.94253 13.5489,4.47703 13.5489,10.13222 0,0.7069 0,1.17817 -0.35344,2.94541 -0.47127,1.76725 -0.47127,3.18105 -0.47127,3.77013 0,6.83336 4.47703,11.42821 10.48567,11.42821 5.41956,0 8.24716,-4.9483 9.18969,-6.59773 2.47415,-4.35921 4.00577,-10.95694 4.00577,-11.42821 0,-0.58908 -0.47128,-1.06034 -1.17817,-1.06034 -1.06035,0 -1.17816,0.47126 -1.64943,2.35633 -1.64943,6.12646 -4.12358,14.37361 -10.13222,14.37361 -2.35633,0 -3.88795,-1.17816 -3.88795,-5.65519 0,-2.23851 0.47126,-4.83047 0.94253,-6.59772 0.47127,-2.1207 0.47127,-2.23852 0.47127,-3.65232 0,-6.95117 -6.24428,-10.83912 -17.0834,-12.25292 4.2414,-2.59196 8.48279,-7.18681 10.13222,-8.95405 6.71555,-7.54027 11.31039,-11.31039 16.72995,-11.31039 2.70978,0 3.41668,0.7069 4.2414,1.41379 -4.35922,0.47128 -6.00865,3.5345 -6.00865,5.89083 0,2.8276 2.23852,3.77013 3.88795,3.77013 3.18104,0 6.00864,-2.70978 6.00864,-6.47991 0,-3.41668 -2.70978,-6.95118 -8.01152,-6.95118 -6.47991,0 -11.78166,4.59485 -20.14663,14.02018 -1.17817,1.41379 -5.53738,5.89082 -9.89659,7.54025 z"
       style="fill:#000000;stroke-width:4.75315" /><path
       style="fill:none;stroke:#000000;stroke-width:3.45426;stroke-linecap:round;stroke-linejoin:miter;stroke-dasharray:none;marker-end:url(#Triangle)"
       d="m 928.75115,296.91314 c 0,0 -48.01396,-12.19852 -69.20041,-73.35194 -21.18645,-61.15342 -75.13859,-78.79662 -75.13859,-78.79662"
       id="path10-5-0-7-7-0-2-5-6"
       sodipodi:nodetypes="czc" /><path
       id="use1-1-2"
       d="m 732.49711,131.1588 h 19.79318 c 16.25868,0 32.51736,-12.01729 32.51736,-25.44838 0,-9.189685 -7.77589,-17.554656 -22.62078,-17.554656 h -36.40531 c -2.23851,0 -3.29886,0 -3.29886,2.238514 0,1.178163 1.06035,1.178163 2.8276,1.178163 7.18681,0 7.18681,0.94253 7.18681,2.238514 0,0.235614 0,0.94253 -0.47127,2.70978 L 716.1206,159.90604 c -1.06034,4.12358 -1.29598,5.30174 -9.54314,5.30174 -2.23851,0 -3.41667,0 -3.41667,2.1207 0,1.29598 1.06034,1.29598 1.76724,1.29598 2.23852,0 4.59485,-0.23563 6.83336,-0.23563 h 13.78454 c 2.23851,0 4.71266,0.23563 6.95118,0.23563 0.94253,0 2.23851,0 2.23851,-2.23851 0,-1.17817 -1.06035,-1.17817 -2.8276,-1.17817 -7.06899,0 -7.18681,-0.82471 -7.18681,-2.00288 0,-0.58908 0.11782,-1.4138 0.23563,-2.00288 z m 8.48279,-34.991514 c 1.06034,-4.359213 1.53161,-4.594845 6.12645,-4.594845 h 11.66385 c 8.83624,0 16.14086,2.827596 16.14086,11.663839 0,3.06323 -1.53162,13.07763 -6.95117,18.4972 -2.00289,2.1207 -7.65808,6.59772 -18.37938,6.59772 h -16.61214 z"
       style="fill:#000000;stroke-width:4.75315" /><path
       style="fill:none;stroke:#000000;stroke-width:3.45426;stroke-linecap:round;stroke-linejoin:miter;stroke-dasharray:none;marker-end:url(#Triangle-3)"
       d="m 1017.7048,600.77647 c 0,0 21.7714,-38.01654 67.4578,-61.66996 45.6864,-23.65342 102.6931,-16.75678 102.6931,-16.75678"
       id="path10-5-0-7-7-0-2-5-6-4"
       sodipodi:nodetypes="czc" /><path
       style="fill:none;stroke:#000000;stroke-width:3.45426;stroke-linecap:round;stroke-linejoin:miter;stroke-dasharray:none;marker-end:url(#Triangle-3-3)"
       d="m 924.2279,434.94033 c 0,0 -18.94297,17.51045 -56.8512,38.33544 -37.90822,20.82499 -97.03624,19.58521 -97.03624,19.58521"
       id="path10-5-0-7-7-0-2-5-6-4-61"
       sodipodi:nodetypes="czc" /><path
       style="fill:none;stroke:#000000;stroke-width:3.45426;stroke-linecap:round;stroke-linejoin:miter;stroke-dasharray:none;marker-end:url(#Triangle-3-5)"
       d="m 1006.0114,302.45676 c 0,0 3.7654,-48.63785 84.7091,-79.94813 80.9437,-31.31028 139.0804,-15.86339 139.0804,-15.86339"
       id="path10-5-0-7-7-0-2-5-6-4-6"
       sodipodi:nodetypes="czc" /><path
       id="use4-8"
       d="m 1263.5779,507.31267 c -3.7701,0.7069 -5.1839,3.5345 -5.1839,5.77301 0,2.8276 2.2385,3.77013 3.8879,3.77013 3.5345,0 6.0087,-3.06323 6.0087,-6.24427 0,-4.9483 -5.6552,-7.18682 -10.6035,-7.18682 -7.1868,0 -11.1926,7.069 -12.2529,9.30751 -2.7098,-8.83624 -10.0145,-9.30751 -12.1352,-9.30751 -12.0172,0 -18.3793,15.43397 -18.3793,18.02594 0,0.47126 0.4712,1.06035 1.2959,1.06035 0.9426,0 1.1782,-0.7069 1.4138,-1.17817 4.0058,-13.07763 11.8995,-15.55178 15.3162,-15.55178 5.3017,0 6.3621,4.94829 6.3621,7.77589 0,2.59196 -0.7069,5.30174 -2.1207,10.95694 l -4.0058,16.14086 c -1.7672,7.069 -5.1839,13.5489 -11.4282,13.5489 -0.5891,0 -3.5345,0 -6.0086,-1.53161 4.2414,-0.82472 5.1839,-4.35921 5.1839,-5.77301 0,-2.35633 -1.7672,-3.77013 -4.0058,-3.77013 -2.8275,0 -5.8908,2.47415 -5.8908,6.24428 0,4.9483 5.5374,7.18681 10.6035,7.18681 5.6552,0 9.661,-4.47703 12.1351,-9.30751 1.8851,6.95117 7.7759,9.30751 12.1351,9.30751 12.0173,0 18.3794,-15.43397 18.3794,-18.02594 0,-0.58908 -0.4713,-1.06034 -1.1782,-1.06034 -1.0603,0 -1.1781,0.58908 -1.5316,1.53161 -3.181,10.36786 -10.0144,15.19833 -15.3161,15.19833 -4.1236,0 -6.3621,-3.06322 -6.3621,-7.8937 0,-2.59196 0.4712,-4.47703 2.3563,-12.25292 l 4.1236,-16.02305 c 1.7672,-7.069 5.773,-12.25292 11.1926,-12.25292 0.2356,0 3.5345,0 6.0086,1.53161 z"
       style="fill:#000000;stroke-width:4.75315" /><path
       id="use2-2-0"
       d="m 1235.662,248.10571 c -4.1235,6.95117 -8.1293,9.3075 -13.7845,9.66095 -1.296,0.11782 -2.2385,0.11782 -2.2385,2.23851 0,0.70691 0.5891,1.17817 1.4138,1.17817 2.1207,0 7.4224,-0.23563 9.5431,-0.23563 3.4167,0 7.1868,0.23563 10.4857,0.23563 0.7069,0 2.1207,0 2.1207,-2.23851 0,-1.06035 -0.9425,-1.17817 -1.6494,-1.17817 -2.7098,-0.23563 -4.9483,-1.17816 -4.9483,-4.00576 0,-1.64943 0.7069,-2.94542 2.2385,-5.53738 l 8.954,-14.84488 h 30.0433 c 0.1178,1.06035 0.1178,2.00288 0.2356,3.06323 0.3534,3.06323 1.7672,15.31615 1.7672,17.55466 0,3.5345 -6.0086,3.77013 -7.8937,3.77013 -1.296,0 -2.5919,0 -2.5919,2.1207 0,1.29598 1.0603,1.29598 1.7672,1.29598 2.0029,0 4.3592,-0.23563 6.3621,-0.23563 h 6.7156 c 7.1868,0 12.3707,0.23563 12.4885,0.23563 0.8247,0 2.1207,0 2.1207,-2.23851 0,-1.17817 -1.0603,-1.17817 -2.8276,-1.17817 -6.4799,0 -6.5977,-1.06035 -6.9512,-4.59484 l -7.1868,-73.51753 c -0.2356,-2.35633 -0.7069,-2.59196 -2.0029,-2.59196 -1.1781,0 -1.885,0.23561 -2.9454,2.00288 z m 14.138,-18.14375 23.6812,-39.58636 4.0057,39.58636 z"
       style="fill:#000000;stroke-width:4.75315" /></g><g
     id="g1"
     transform="matrix(3.0484876,0,0,3.0484876,503.77474,174.74551)"
     style="fill:#000000"
     inkscape:label="fluid-flow-text"><path
       id="use6-0-0"
       d="m -37.813469,194.47003 h -12.220017 v 0.64446 c 1.710306,0 1.982964,0 1.982964,1.11542 v 13.36022 c 0,1.11542 -0.272658,1.11542 -1.982964,1.11542 v 0.64446 c 0.718824,-0.0496 2.106899,-0.0496 2.875298,-0.0496 1.016269,0 2.206048,0 3.222317,0.0496 v -0.64446 h -0.545315 c -1.883816,0 -1.93339,-0.24787 -1.93339,-1.14021 v -6.34548 h 2.230834 c 2.305196,0 2.52828,0.81797 2.52828,2.90008 h 0.446167 v -6.44463 h -0.446167 c 0,2.08211 -0.223084,2.90009 -2.52828,2.90009 h -2.230834 v -6.49421 c 0,-0.84276 0.04957,-0.9667 1.041056,-0.9667 h 3.19753 c 3.742845,0 4.164225,1.5368 4.511243,4.83348 h 0.446167 z"
       style="fill:#000000" /><path
       id="use7-9-2"
       d="m -32.581211,194.1478 -2.949659,0.27266 v 0.64446 c 1.462436,0 1.685519,0.14872 1.685519,1.3385 v 13.23629 c 0,0.9419 -0.09915,1.06584 -1.685519,1.06584 v 0.64446 c 0.594889,-0.0496 1.685519,-0.0496 2.305196,-0.0496 0.644463,0 1.735094,0 2.329983,0.0496 v -0.64446 c -1.586372,0 -1.68552,-0.0991 -1.68552,-1.06584 z"
       style="fill:#000000" /><path
       id="use8-3-3"
       d="m -22.898324,200.76594 v 0.64446 c 1.462436,0 1.685519,0.14873 1.685519,1.3385 v 4.51125 c 0,2.08211 -1.115417,3.89157 -2.949659,3.89157 -2.032538,0 -2.206048,-1.21457 -2.206048,-2.5035 v -8.15494 l -2.999233,0.27266 v 0.64446 c 0.991482,0 1.660732,0 1.685519,0.99149 v 4.75911 c 0,1.66073 0,2.72658 0.644464,3.42061 0.322231,0.32224 0.941908,0.9667 2.726576,0.9667 2.106899,0 2.924872,-1.78467 3.123168,-2.3052 h 0.02479 v 2.3052 l 2.94966,-0.1983 v -0.64446 c -1.462436,0 -1.68552,-0.14872 -1.68552,-1.3385 v -8.87377 z"
       style="fill:#000000" /><path
       id="use9-6-7"
       d="m -13.680944,196.08119 c 0,-0.54532 -0.446167,-1.01627 -1.016269,-1.01627 -0.545315,0 -1.016269,0.44617 -1.016269,1.01627 0,0.54531 0.446167,1.01627 1.016269,1.01627 0.545315,0 1.016269,-0.44617 1.016269,-1.01627 z m -2.900085,4.68475 v 0.64446 c 1.388075,0 1.586371,0.14873 1.586371,1.3385 v 6.89081 c 0,0.9419 -0.09915,1.06584 -1.685519,1.06584 v 0.64446 c 0.594889,-0.0496 1.660732,-0.0496 2.280409,-0.0496 0.594889,0 1.611158,0 2.18126,0.0496 v -0.64446 c -1.462436,0 -1.51201,-0.14872 -1.51201,-1.04106 v -9.17121 z"
       style="fill:#000000" /><path
       id="use10-5"
       d="m -4.0972054,194.42046 v 0.64446 c 1.462436,0 1.685519,0.14872 1.685519,1.3385 v 5.80017 c -0.099148,-0.12394 -1.115417,-1.71031 -3.123168,-1.71031 -2.52828,0 -4.9821976,2.25562 -4.9821976,5.52752 0,3.2471 2.3051956,5.52751 4.7343266,5.52751 2.1069,0 3.19753,-1.63595 3.321465,-1.80946 v 1.80946 l 2.99923395,-0.1983 v -0.64446 c -1.462437,0 -1.68551995,-0.14872 -1.68551995,-1.3385 V 194.1478 Z m 1.635945,13.95511 c 0,0.74361 -0.446167,1.41286 -1.016269,1.9086 -0.84276,0.74361 -1.68552,0.86755 -2.156474,0.86755 -0.718824,0 -3.296678,-0.37181 -3.296678,-5.10614 0,-4.85826 2.875298,-5.1557 3.519762,-5.1557 1.140204,0 2.057325,0.64446 2.627427,1.53679 0.322232,0.52053 0.322232,0.59489 0.322232,1.04106 z"
       style="fill:#000000" /><path
       id="use11-0-9"
       d="m 18.700699,194.1478 c -0.272657,0.0496 -0.495741,0.0992 -0.817972,0.17351 -0.718825,-0.37181 -1.660733,-0.37181 -1.908604,-0.37181 -2.106899,0 -4.70954,1.18978 -4.70954,3.84199 v 2.90009 H 9.2816195 v 0.64446 h 1.9829635 v 8.30367 c 0,0.9419 -0.09915,1.06584 -1.6855185,1.06584 v 0.64446 c 0.5948885,-0.0496 1.6855185,-0.0496 2.3051955,-0.0496 0.644463,0 1.735093,0 2.329983,0.0496 v -0.64446 c -1.586372,0 -1.68552,-0.0991 -1.68552,-1.06584 v -8.30367 h 4.907837 v 8.30367 c 0,0.9419 -0.09915,1.06584 -1.68552,1.06584 v 0.64446 c 0.594889,-0.0496 1.68552,-0.0496 2.305196,-0.0496 0.644463,0 1.735094,0 2.329983,0.0496 v -0.64446 c -1.586371,0 -1.68552,-0.0991 -1.68552,-1.06584 z m -6.22155,6.54378 v -2.90009 c 0,-2.18126 1.635945,-3.4454 3.4454,-3.4454 0.123936,0 1.487224,0.0496 1.487224,0.29745 0,0.0248 -0.02479,0.0496 -0.148723,0.17351 -0.223083,0.14872 -0.322231,0.39659 -0.322231,0.64446 0,0.34702 0.173509,0.64446 0.495741,0.7684 v 4.46167 z"
       style="fill:#000000" /><path
       id="use12-6-2"
       d="m 31.86974,206.04558 c 0,-3.17274 -2.305196,-5.65145 -5.006985,-5.65145 -2.701789,0 -5.006985,2.47871 -5.006985,5.65145 0,3.12317 2.305196,5.50273 5.006985,5.50273 2.701789,0 5.006985,-2.37956 5.006985,-5.50273 z m -5.006985,5.05656 c -1.164991,0 -2.156473,-0.69404 -2.726576,-1.66073 -0.619676,-1.11542 -0.694037,-2.50349 -0.694037,-3.59412 0,-1.04106 0.04957,-2.32999 0.694037,-3.4454 0.495741,-0.81798 1.462437,-1.61116 2.726576,-1.61116 1.115418,0 2.057326,0.61967 2.652215,1.48722 0.768399,1.16499 0.768399,2.80094 0.768399,3.56934 0,0.96669 -0.04957,2.45391 -0.718825,3.64369 -0.694037,1.14021 -1.759881,1.61116 -2.701789,1.61116 z"
       style="fill:#000000" /><path
       id="use13-2"
       d="m 46.332861,202.87284 c 0.495741,-1.46244 1.487223,-1.51201 1.859029,-1.5368 v -0.64446 c -0.495741,0.0248 -0.991482,0.0496 -1.487223,0.0496 -0.470954,0 -1.536797,0 -1.958177,-0.0496 v 0.64446 c 0.768398,0.0496 1.189778,0.49574 1.189778,1.11542 0,0.17351 -0.04957,0.39659 -0.09915,0.5701 l -2.329983,6.74208 -2.528279,-7.31218 c -0.04957,-0.17351 -0.123936,-0.37181 -0.123936,-0.47095 0,-0.64447 0.84276,-0.64447 1.239353,-0.64447 v -0.64446 c -0.570102,0.0496 -1.611159,0.0496 -2.206048,0.0496 -0.619676,0 -1.26414,0 -1.834242,-0.0496 v 0.64446 c 1.363288,0 1.363288,0.0496 1.883816,1.61116 l -2.280407,6.64293 -2.453918,-7.16346 c -0.123935,-0.32223 -0.123935,-0.3718 -0.123935,-0.44616 0,-0.64447 0.84276,-0.64447 1.239353,-0.64447 v -0.64446 c -0.59489,0.0496 -1.635946,0.0496 -2.255622,0.0496 -0.545316,0 -1.388075,0 -1.908603,-0.0496 v 0.64446 c 1.09063,0 1.363287,0.0744 1.635945,0.89234 l 3.048808,8.92334 c 0.09915,0.32223 0.173509,0.39659 0.371805,0.39659 0.17351,0 0.272658,-0.0496 0.396593,-0.42138 l 2.553067,-7.48569 2.577853,7.48569 c 0.123936,0.3718 0.223084,0.42138 0.396593,0.42138 0.198297,0 0.272658,-0.0744 0.371806,-0.39659 z"
       style="fill:#000000" /></g></svg>
