<?xml version="1.0" encoding="UTF-8" standalone="no"?>
<svg
   width="1920"
   height="1080"
   version="1.1"
   id="svg3"
   sodipodi:docname="diagram.svg"
   inkscape:version="1.4.2 (ebf0e940d0, 2025-05-08)"
   xml:space="preserve"
   xmlns:inkscape="http://www.inkscape.org/namespaces/inkscape"
   xmlns:sodipodi="http://sodipodi.sourceforge.net/DTD/sodipodi-0.dtd"
   xmlns="http://www.w3.org/2000/svg"
   xmlns:svg="http://www.w3.org/2000/svg"><sodipodi:namedview
     id="namedview3"
     pagecolor="#ffffff"
     bordercolor="#000000"
     borderopacity="0.25"
     inkscape:showpageshadow="2"
     inkscape:pageopacity="0.0"
     inkscape:pagecheckerboard="0"
     inkscape:deskcolor="#d1d1d1"
     inkscape:zoom="0.35355339"
     inkscape:cx="674.57987"
     inkscape:cy="538.81537"
     inkscape:window-width="1920"
     inkscape:window-height="1016"
     inkscape:window-x="0"
     inkscape:window-y="0"
     inkscape:window-maximized="1"
     inkscape:current-layer="svg3"
     showgrid="false"
     showguides="false" /><rect
     style="fill:#ffffff;stroke:none;stroke-width:4;stroke-linecap:round;stroke-linejoin:round;stroke-dasharray:none"
     id="rect17"
     width="1920"
     height="1080"
     x="0"
     y="0"
     inkscape:label="background" /><!-- Tank --><!-- Inlet arrow --><!-- Outlet arrow --><!-- Labels --><!-- Arrowhead definition --><defs
     id="defs3"><marker
       style="overflow:visible"
       id="Triangle-3-7-7-9"
       refX="0"
       refY="0"
       orient="auto-start-reverse"
       inkscape:stockid="Triangle arrow"
       markerWidth="1"
       markerHeight="1"
       viewBox="0 0 1 1"
       inkscape:isstock="true"
       inkscape:collect="always"
       preserveAspectRatio="xMidYMid"><path
         transform="scale(0.5)"
         style="fill:context-stroke;fill-rule:evenodd;stroke:context-stroke;stroke-width:1pt"
         d="M 5.77,0 -2.88,5 V -5 Z"
         id="path135-6-9-5-1" /></marker></defs><path
     style="fill:#ffffff;stroke:#000000;stroke-width:7.99998;stroke-linecap:round;stroke-linejoin:round;stroke-dasharray:none;marker-end:url(#Triangle-3-7-7-9)"
     d="m 348.50734,172.45772 h 387.8343"
     id="path10-5-0-7-7"
     sodipodi:nodetypes="cc" /><path
     d="M 1603.8247,385.93064 V 475.173 l 35.1066,12.34801 -67.5807,20.20585 68.4585,22.45089 -67.5808,19.64455 66.703,21.32837 -67.1419,21.32837 32.0353,11.78668 v 89.80364"
     style="fill:none;fill-rule:evenodd;stroke:#000000;stroke-width:8;stroke-linecap:butt;stroke-linejoin:miter;stroke-miterlimit:5;stroke-dasharray:none;stroke-opacity:1"
     id="path4178"
     sodipodi:nodetypes="cccccccccc"
     inkscape:label="resistor" /><g
     id="g8"
     transform="rotate(-90,-245.27613,499.58604)"
     style="stroke:#000000"
     inkscape:label="dc-source"><path
       d="m -418.60807,1040.9191 h 108.38687 v -34.6391 70.3956"
       style="fill:none;fill-rule:evenodd;stroke:#000000;stroke-width:8;stroke-linecap:butt;stroke-linejoin:miter;stroke-dasharray:none;stroke-opacity:1"
       id="path5149" /><path
       d="M -152.77211,1040.9191 H -266.57253 V 968.04643 1115.2476"
       style="fill:none;fill-rule:evenodd;stroke:#000000;stroke-width:8;stroke-linecap:butt;stroke-linejoin:miter;stroke-dasharray:none;stroke-opacity:1"
       id="path5151" /><path
       d="m -238.53376,1004.0372 h 40.26375"
       style="fill:none;fill-rule:evenodd;stroke:#000000;stroke-width:8;stroke-linecap:butt;stroke-linejoin:miter;stroke-dasharray:none;stroke-opacity:1"
       id="path5153" /><path
       d="m -218.40185,983.90533 v 40.26377"
       style="fill:none;fill-rule:evenodd;stroke:#000000;stroke-width:8;stroke-linecap:butt;stroke-linejoin:miter;stroke-dasharray:none;stroke-opacity:1"
       id="path5153-6" /></g><g
     id="g11"
     inkscape:label="wires"><path
       style="fill:none;stroke:#000000;stroke-width:7.99998;stroke-linecap:butt;stroke-linejoin:miter;stroke-dasharray:none"
       d="M 1603.8247,675.70955 V 854.69929 H 297.22043 l -1.16351,-199.92582"
       id="path10" /><path
       style="fill:none;stroke:#000000;stroke-width:7.99998;stroke-linecap:butt;stroke-linejoin:miter;stroke-dasharray:none"
       d="m 296.057,425.22653 0.65819,-199.92582 H 1603.8247 v 178.98974"
       id="path10-5-0-7-7-0"
       sodipodi:nodetypes="cccc" /></g><path
     id="use1-9"
     d="m 1708.3538,513.56744 c 0.8377,-3.44368 1.21,-3.62983 4.8398,-3.62983 h 6.7012 c 8.0042,0 13.9609,2.41988 13.9609,9.67954 0,4.74669 -2.4199,18.42833 -21.1275,18.42833 h -10.5172 z m 12.9371,25.59491 c 11.541,-2.51296 20.569,-9.95875 20.569,-17.96297 0,-7.25965 -7.3527,-13.96086 -20.2898,-13.96086 h -25.2226 c -1.8615,0 -2.6991,0 -2.6991,1.76837 0,0.93072 0.6515,0.93072 2.4199,0.93072 5.5843,0 5.5843,0.74458 5.5843,1.76838 0,0.18613 0,0.74458 -0.3723,2.14066 l -12.5648,50.07296 c -0.8376,3.25753 -1.0237,4.18825 -7.4457,4.18825 -2.1407,0 -2.7922,0 -2.7922,1.76838 0,0.93072 1.0238,0.93072 1.303,0.93072 1.6753,0 3.6298,-0.18614 5.3982,-0.18614 h 10.9825 c 1.6753,0 3.6299,0.18614 5.3052,0.18614 0.7445,0 1.7683,0 1.7683,-1.76837 0,-0.93073 -0.8376,-0.93073 -2.2337,-0.93073 -5.6774,0 -5.6774,-0.74457 -5.6774,-1.6753 0,-0.0931 0,-0.74458 0.1861,-1.48916 l 6.2359,-25.03647 h 11.1687 c 8.8418,0 10.5172,5.58434 10.5172,8.65573 0,1.39609 -0.9308,5.02591 -1.5823,7.44579 -1.0238,4.28133 -1.303,5.30513 -1.303,7.07351 0,6.60813 5.3982,9.67952 11.6341,9.67952 7.5388,0 10.7964,-9.21416 10.7964,-10.51718 0,-0.6515 -0.4654,-0.93072 -1.0238,-0.93072 -0.7446,0 -0.9308,0.55843 -1.1169,1.30301 -2.2337,6.60814 -6.0497,8.28345 -8.3765,8.28345 -2.3268,0 -3.816,-1.0238 -3.816,-5.21206 0,-2.23373 1.1169,-10.70332 1.2099,-11.16868 0.4654,-3.44368 0.4654,-3.81598 0.4654,-4.56055 0,-6.79429 -5.4913,-9.67953 -9.028,-10.7964 z"
     style="stroke-width:1.50666"
     inkscape:label="R" /><g
     id="g10"
     transform="matrix(0.84071208,0,0,0.84071208,-454.7408,-92.900038)"
     style="stroke-width:1.18946"
     inkscape:label="V"><path
       id="use2-2"
       d="m 723.10233,533.85081 c 3.76402,-5.97815 7.19593,-8.63511 12.84197,-9.07794 1.10706,-0.11072 1.99271,-0.11072 1.99271,-2.10343 0,-0.44283 -0.22139,-1.10706 -1.21777,-1.10706 -1.99271,0 -6.7531,0.2214 -8.74582,0.2214 -3.21049,0 -6.53169,-0.2214 -9.63148,-0.2214 -0.88565,0 -1.99272,0 -1.99272,2.10343 0,0.99635 0.99636,1.10706 1.43919,1.10706 4.09614,0.33212 4.53897,2.32484 4.53897,3.65332 0,1.6606 -1.54989,4.20685 -1.6606,4.31756 l -34.76188,55.1319 -7.74947,-59.67087 c 0,-3.2105 5.75675,-3.43191 6.97452,-3.43191 1.6606,0 2.65696,0 2.65696,-2.10343 0,-1.10706 -1.21777,-1.10706 -1.54989,-1.10706 -1.88202,0 -4.09615,0.2214 -5.97816,0.2214 h -6.19957 c -8.08158,0 -11.40278,-0.2214 -11.51349,-0.2214 -0.66424,0 -1.99272,0 -1.99272,1.99272 0,1.21777 0.77495,1.21777 2.54625,1.21777 5.64604,0 5.97816,0.99636 6.31028,3.76403 l 8.85653,68.30599 c 0.33212,2.32484 0.33212,2.65696 1.88201,2.65696 1.32848,0 1.88202,-0.33212 2.98908,-2.10343 z"
       style="stroke-width:1.79212" /><path
       id="use3-2"
       d="m 775.73424,624.18743 c 0,-0.11071 0,-0.33212 -0.33212,-0.66424 -5.0925,-5.20322 -18.70942,-19.37367 -18.70942,-53.91413 0,-34.54047 13.39551,-48.60022 18.82013,-54.13554 0,-0.11072 0.22141,-0.33212 0.22141,-0.66425 0,-0.33211 -0.33212,-0.55353 -0.77494,-0.55353 -1.21778,0 -10.62784,8.19229 -16.05247,20.37002 -5.53533,12.28844 -7.08522,24.24476 -7.08522,34.87259 0,7.97088 0.77495,21.47709 7.41734,35.75824 5.31392,11.51349 14.39187,19.59508 15.72035,19.59508 0.55353,0 0.77494,-0.22142 0.77494,-0.66424 z"
       style="stroke-width:1.79212" /><path
       id="use4-8"
       d="m 803.31469,552.67094 h 10.18501 c 2.10343,0 3.21049,0 3.21049,-1.99272 0,-1.21777 -0.66424,-1.21777 -2.87837,-1.21777 h -9.74218 l 4.09614,-16.16317 c 0.44283,-1.54989 0.44283,-1.77131 0.44283,-2.54625 0,-1.77131 -1.43919,-2.76766 -2.87837,-2.76766 -0.88566,0 -3.43191,0.33211 -4.31756,3.87472 l -4.31756,17.60236 H 786.7087 c -2.21414,0 -3.2105,0 -3.2105,2.10343 0,1.10706 0.77495,1.10706 2.87838,1.10706 h 9.85288 l -7.30663,29.22655 c -0.88566,3.87473 -1.21778,4.9818 -1.21778,6.42099 0,5.20321 3.65332,9.9636 9.8529,9.9636 11.18136,0 17.15952,-16.16317 17.15952,-16.93812 0,-0.66424 -0.44282,-0.99636 -1.10706,-0.99636 -0.22141,0 -0.66424,0 -0.88566,0.44283 -0.1107,0.1107 -0.22141,0.22141 -0.99636,1.99272 -2.32483,5.53533 -7.41734,13.28479 -13.83833,13.28479 -3.32119,0 -3.54261,-2.76766 -3.54261,-5.20321 0,-0.11071 0,-2.21413 0.33212,-3.54261 z"
       style="stroke-width:1.79212" /><path
       id="use5"
       d="m 849.32263,569.60906 c 0,-7.97088 -0.77495,-21.47709 -7.41735,-35.75825 -5.31391,-11.51348 -14.39186,-19.59507 -15.72034,-19.59507 -0.33212,0 -0.77494,0.11072 -0.77494,0.66424 0,0.22139 0.1107,0.33211 0.22141,0.55354 5.31392,5.53532 18.82013,19.59507 18.82013,54.02483 0,34.54047 -13.39551,48.60021 -18.82013,54.13554 -0.11071,0.22142 -0.22141,0.33212 -0.22141,0.55354 0,0.55353 0.44282,0.66424 0.77494,0.66424 1.21777,0 10.62784,-8.1923 16.05246,-20.37002 5.53533,-12.28844 7.08523,-24.24476 7.08523,-34.87259 z"
       style="stroke-width:1.79212" /></g><g
     id="g9"
     transform="matrix(0.67184797,0,0,0.67184797,43.467484,-800.72385)"
     style="stroke-width:1.48843"
     inkscape:label="I"><path
       id="use6"
       d="m 706.37278,1285.6869 c 1.24678,-4.8486 1.52385,-6.2339 11.63668,-6.2339 3.0477,0 4.15596,0 4.15596,-2.6321 0,-1.3853 -1.52385,-1.3853 -1.93945,-1.3853 -2.49357,0 -5.54127,0.277 -8.03485,0.277 h -17.03943 c -2.77064,0 -5.95687,-0.277 -8.72751,-0.277 -1.10825,0 -2.63211,0 -2.63211,2.6321 0,1.3853 1.10826,1.3853 3.87889,1.3853 8.58899,0 8.58899,1.1082 8.58899,2.6321 0,0.9697 -0.27707,1.8009 -0.55413,3.0477 l -18.70181,74.6687 c -1.24679,4.8486 -1.52385,6.234 -11.63668,6.234 -3.04771,0 -4.2945,0 -4.2945,2.6321 0,1.3853 1.38533,1.3853 2.07798,1.3853 2.49358,0 5.54128,-0.2771 8.03486,-0.2771 h 17.03943 c 2.77063,0 5.81834,0.2771 8.58897,0.2771 1.10826,0 2.77064,0 2.77064,-2.4936 0,-1.5238 -0.83119,-1.5238 -3.87889,-1.5238 -8.58898,0 -8.58898,-1.1083 -8.58898,-2.7707 0,-0.277 0,-0.9697 0.55412,-3.1862 z"
       style="stroke-width:2.24256" /><path
       id="use7"
       d="m 768.50044,1403.8547 c 0,-0.1386 0,-0.4156 -0.41559,-0.8312 -6.37247,-6.511 -23.4119,-24.2431 -23.4119,-67.4651 0,-43.2219 16.76237,-60.8155 23.55043,-67.7421 0,-0.1385 0.27706,-0.4156 0.27706,-0.8312 0,-0.4156 -0.41559,-0.6926 -0.96972,-0.6926 -1.52385,0 -13.29906,10.2513 -20.08713,25.4898 -6.92659,15.3771 -8.86604,30.3385 -8.86604,43.6376 0,9.9743 0.96972,26.8752 9.28163,44.7458 6.64954,14.4073 18.00916,24.5202 19.67154,24.5202 0.69266,0 0.96972,-0.2771 0.96972,-0.8312 z"
       style="stroke-width:2.24256" /><path
       id="use8"
       d="m 803.01304,1314.363 h 12.74494 c 2.6321,0 4.01742,0 4.01742,-2.4935 0,-1.5239 -0.83119,-1.5239 -3.60183,-1.5239 h -12.19081 l 5.12568,-20.2256 c 0.55413,-1.9395 0.55413,-2.2166 0.55413,-3.1863 0,-2.2165 -1.80091,-3.4633 -3.60183,-3.4633 -1.10826,0 -4.29449,0.4156 -5.40275,4.8486 l -5.40274,22.0266 h -13.022 c -2.77064,0 -4.01743,0 -4.01743,2.6321 0,1.3853 0.96973,1.3853 3.60183,1.3853 h 12.32934 l -9.1431,36.5725 c -1.10826,4.8486 -1.52386,6.2339 -1.52386,8.0348 0,6.511 4.57156,12.4679 12.32935,12.4679 13.99172,0 21.47245,-20.2257 21.47245,-21.1954 0,-0.8312 -0.55413,-1.2468 -1.38532,-1.2468 -0.27706,0 -0.8312,0 -1.10826,0.5542 -0.13853,0.1385 -0.27706,0.277 -1.24678,2.4935 -2.90917,6.9266 -9.28165,16.6239 -17.3165,16.6239 -4.15595,0 -4.43302,-3.4633 -4.43302,-6.511 0,-0.1386 0,-2.7707 0.4156,-4.4331 z"
       style="stroke-width:2.24256" /><path
       id="use9"
       d="m 860.58473,1335.5584 c 0,-9.9743 -0.96972,-26.8752 -9.28164,-44.7458 -6.64953,-14.4073 -18.00914,-24.5201 -19.67153,-24.5201 -0.4156,0 -0.96972,0.1385 -0.96972,0.8311 0,0.2771 0.13853,0.4156 0.27706,0.6927 6.64953,6.9266 23.55043,24.5202 23.55043,67.6036 0,43.222 -16.76237,60.8155 -23.55043,67.7421 -0.13853,0.2771 -0.27706,0.4156 -0.27706,0.6927 0,0.6926 0.55412,0.8312 0.96972,0.8312 1.52385,0 13.29907,-10.2514 20.08713,-25.4899 6.9266,-15.3771 8.86604,-30.3385 8.86604,-43.6376 z"
       style="stroke-width:2.24256" /></g></svg>
