<?xml version="1.0" encoding="UTF-8" standalone="no"?>
<svg
   width="1920"
   height="1080"
   version="1.1"
   id="svg3"
   sodipodi:docname="diagram.svg"
   inkscape:version="1.4.2 (ebf0e940d0, 2025-05-08)"
   xml:space="preserve"
   xmlns:inkscape="http://www.inkscape.org/namespaces/inkscape"
   xmlns:sodipodi="http://sodipodi.sourceforge.net/DTD/sodipodi-0.dtd"
   xmlns="http://www.w3.org/2000/svg"
   xmlns:svg="http://www.w3.org/2000/svg"><sodipodi:namedview
     id="namedview3"
     pagecolor="#ffffff"
     bordercolor="#000000"
     borderopacity="0.25"
     inkscape:showpageshadow="2"
     inkscape:pageopacity="0.0"
     inkscape:pagecheckerboard="0"
     inkscape:deskcolor="#d1d1d1"
     inkscape:zoom="0.5"
     inkscape:cx="907"
     inkscape:cy="445"
     inkscape:window-width="1920"
     inkscape:window-height="1016"
     inkscape:window-x="0"
     inkscape:window-y="0"
     inkscape:window-maximized="1"
     inkscape:current-layer="svg3"
     showgrid="false"
     showguides="false" /><rect
     style="fill:#ffffff;stroke:none;stroke-width:4;stroke-linecap:round;stroke-linejoin:round;stroke-dasharray:none"
     id="rect17"
     width="1920"
     height="1080"
     x="0"
     y="0"
     inkscape:label="background" /><!-- Tank --><!-- Inlet arrow --><!-- Outlet arrow --><!-- Labels --><!-- Arrowhead definition --><defs
     id="defs3"><marker
       style="overflow:visible"
       id="Stop"
       refX="0"
       refY="0"
       orient="auto"
       inkscape:stockid="Stop"
       markerWidth="1"
       markerHeight="1"
       viewBox="0 0 1 1"
       inkscape:isstock="true"
       inkscape:collect="always"
       preserveAspectRatio="xMidYMid"><path
         style="fill:none;stroke:context-stroke;stroke-width:1"
         d="M 0,4 V -4"
         id="path23" /></marker><marker
       style="overflow:visible"
       id="Triangle-3-7-7-9"
       refX="0"
       refY="0"
       orient="auto-start-reverse"
       inkscape:stockid="Triangle arrow"
       markerWidth="1.2"
       markerHeight="0.8"
       viewBox="0 0 1 1"
       inkscape:isstock="true"
       inkscape:collect="always"
       preserveAspectRatio="none"><path
         transform="scale(0.5)"
         style="fill:context-stroke;fill-rule:evenodd;stroke:context-stroke;stroke-width:1pt"
         d="M 5.77,0 -2.88,5 V -5 Z"
         id="path135-6-9-5-1" /></marker><marker
       style="overflow:visible"
       id="Triangle-3-7-7-9-2"
       refX="0"
       refY="0"
       orient="auto-start-reverse"
       inkscape:stockid="Triangle arrow"
       markerWidth="1"
       markerHeight="1"
       viewBox="0 0 1 1"
       inkscape:isstock="true"
       inkscape:collect="always"
       preserveAspectRatio="xMidYMid"><path
         transform="scale(0.5)"
         style="fill:context-stroke;fill-rule:evenodd;stroke:context-stroke;stroke-width:1pt"
         d="M 5.77,0 -2.88,5 V -5 Z"
         id="path135-6-9-5-1-0" /></marker></defs><path
     style="fill:#ffffff;stroke:#000000;stroke-width:7.99998;stroke-linecap:round;stroke-linejoin:round;stroke-dasharray:none;marker-start:url(#Stop);marker-end:url(#Triangle-3-7-7-9)"
     d="M 733.19365,364.68607 H 858.10684"
     id="path10-5-0-7-7"
     sodipodi:nodetypes="cc"
     inkscape:label="reference" /><g
     id="g39"
     transform="translate(45.876235,-33.73777)"
     inkscape:label="wall-and-ground"><path
       style="fill:none;stroke:#000000;stroke-width:7.99998;stroke-linecap:round;stroke-linejoin:miter;stroke-dasharray:none"
       d="m 152.66667,169.87622 v 757.45709 l 1573.18013,-10e-6"
       id="path10-5-0-7-7-0-2"
       sodipodi:nodetypes="ccc" /><path
       style="fill:none;stroke:#000000;stroke-width:7.99999;stroke-linecap:round;stroke-linejoin:miter;stroke-dasharray:none"
       d="m 102.40073,220.14216 50.26594,-50.26594"
       id="path10-5-0-7-7-0-1"
       sodipodi:nodetypes="cc" /><path
       style="fill:none;stroke:#000000;stroke-width:7.99999;stroke-linecap:round;stroke-linejoin:miter;stroke-dasharray:none"
       d="m 102.40073,278.40809 50.26594,-50.26594"
       id="path10-5-0-7-7-0-1-1"
       sodipodi:nodetypes="cc" /><path
       style="fill:none;stroke:#000000;stroke-width:7.99999;stroke-linecap:round;stroke-linejoin:miter;stroke-dasharray:none"
       d="m 102.40073,336.67402 50.26594,-50.26594"
       id="path10-5-0-7-7-0-1-1-6"
       sodipodi:nodetypes="cc" /><path
       style="fill:none;stroke:#000000;stroke-width:7.99999;stroke-linecap:round;stroke-linejoin:miter;stroke-dasharray:none"
       d="m 102.40073,394.93995 50.26594,-50.26594"
       id="path10-5-0-7-7-0-1-2"
       sodipodi:nodetypes="cc" /><path
       style="fill:none;stroke:#000000;stroke-width:7.99999;stroke-linecap:round;stroke-linejoin:miter;stroke-dasharray:none"
       d="m 102.40073,453.20588 50.26594,-50.26594"
       id="path10-5-0-7-7-0-1-1-0"
       sodipodi:nodetypes="cc" /><path
       style="fill:none;stroke:#000000;stroke-width:7.99999;stroke-linecap:round;stroke-linejoin:miter;stroke-dasharray:none"
       d="m 102.40073,511.47181 50.26594,-50.26594"
       id="path10-5-0-7-7-0-1-1-6-6"
       sodipodi:nodetypes="cc" /><path
       style="fill:none;stroke:#000000;stroke-width:7.99999;stroke-linecap:round;stroke-linejoin:miter;stroke-dasharray:none"
       d="M 102.40073,569.73774 152.66667,519.4718"
       id="path10-5-0-7-7-0-1-5"
       sodipodi:nodetypes="cc" /><path
       style="fill:none;stroke:#000000;stroke-width:7.99999;stroke-linecap:round;stroke-linejoin:miter;stroke-dasharray:none"
       d="m 102.40073,628.00367 50.26594,-50.26594"
       id="path10-5-0-7-7-0-1-1-5"
       sodipodi:nodetypes="cc" /><path
       style="fill:none;stroke:#000000;stroke-width:7.99999;stroke-linecap:round;stroke-linejoin:miter;stroke-dasharray:none"
       d="m 102.40073,686.2696 50.26594,-50.26594"
       id="path10-5-0-7-7-0-1-1-6-4"
       sodipodi:nodetypes="cc" /><path
       style="fill:none;stroke:#000000;stroke-width:7.99999;stroke-linecap:round;stroke-linejoin:miter;stroke-dasharray:none"
       d="m 102.40073,744.53553 50.26594,-50.26594"
       id="path10-5-0-7-7-0-1-2-7"
       sodipodi:nodetypes="cc" /><path
       style="fill:none;stroke:#000000;stroke-width:7.99999;stroke-linecap:round;stroke-linejoin:miter;stroke-dasharray:none"
       d="m 102.40073,802.80146 50.26594,-50.26594"
       id="path10-5-0-7-7-0-1-1-0-6"
       sodipodi:nodetypes="cc" /><path
       style="fill:none;stroke:#000000;stroke-width:7.99999;stroke-linecap:round;stroke-linejoin:miter;stroke-dasharray:none"
       d="m 102.40073,861.06739 50.26594,-50.26594"
       id="path10-5-0-7-7-0-1-1-6-6-5"
       sodipodi:nodetypes="cc" /><path
       style="fill:none;stroke:#000000;stroke-width:7.99999;stroke-linecap:round;stroke-linejoin:miter;stroke-dasharray:none"
       d="m 102.40073,919.33332 50.26594,-50.26594"
       id="path10-5-0-7-7-0-1-1-0-6-9"
       sodipodi:nodetypes="cc" /><path
       style="fill:none;stroke:#000000;stroke-width:7.99999;stroke-linecap:round;stroke-linejoin:miter;stroke-dasharray:none"
       d="m 102.40073,977.59925 50.26594,-50.26594"
       id="path10-5-0-7-7-0-1-1-6-6-5-3"
       sodipodi:nodetypes="cc" /><path
       style="fill:none;stroke:#000000;stroke-width:7.99999;stroke-linecap:round;stroke-linejoin:miter;stroke-dasharray:none"
       d="m 918.12373,977.59931 50.26594,-50.266"
       id="path10-5-0-7-7-0-1-4"
       sodipodi:nodetypes="cc" /><path
       style="fill:none;stroke:#000000;stroke-width:7.99999;stroke-linecap:round;stroke-linejoin:miter;stroke-dasharray:none"
       d="m 859.8578,977.59931 50.26594,-50.266"
       id="path10-5-0-7-7-0-1-1-52"
       sodipodi:nodetypes="cc" /><path
       style="fill:none;stroke:#000000;stroke-width:7.99999;stroke-linecap:round;stroke-linejoin:miter;stroke-dasharray:none"
       d="m 801.59187,977.59931 50.26594,-50.266"
       id="path10-5-0-7-7-0-1-1-6-5"
       sodipodi:nodetypes="cc" /><path
       style="fill:none;stroke:#000000;stroke-width:7.99999;stroke-linecap:round;stroke-linejoin:miter;stroke-dasharray:none"
       d="m 743.32594,977.59931 50.26594,-50.266"
       id="path10-5-0-7-7-0-1-2-4"
       sodipodi:nodetypes="cc" /><path
       style="fill:none;stroke:#000000;stroke-width:7.99999;stroke-linecap:round;stroke-linejoin:miter;stroke-dasharray:none"
       d="m 685.06001,977.59931 50.26594,-50.266"
       id="path10-5-0-7-7-0-1-1-0-7"
       sodipodi:nodetypes="cc" /><path
       style="fill:none;stroke:#000000;stroke-width:7.99999;stroke-linecap:round;stroke-linejoin:miter;stroke-dasharray:none"
       d="m 626.79408,977.59931 50.26594,-50.266"
       id="path10-5-0-7-7-0-1-1-6-6-4"
       sodipodi:nodetypes="cc" /><path
       style="fill:none;stroke:#000000;stroke-width:7.99999;stroke-linecap:round;stroke-linejoin:miter;stroke-dasharray:none"
       d="m 568.52816,977.59931 50.26593,-50.266"
       id="path10-5-0-7-7-0-1-5-4"
       sodipodi:nodetypes="cc" /><path
       style="fill:none;stroke:#000000;stroke-width:7.99999;stroke-linecap:round;stroke-linejoin:miter;stroke-dasharray:none"
       d="m 510.26226,977.59931 50.2659,-50.266"
       id="path10-5-0-7-7-0-1-1-5-3"
       sodipodi:nodetypes="cc" /><path
       style="fill:none;stroke:#000000;stroke-width:7.99999;stroke-linecap:round;stroke-linejoin:miter;stroke-dasharray:none"
       d="m 451.99626,977.59931 50.266,-50.266"
       id="path10-5-0-7-7-0-1-1-6-4-0"
       sodipodi:nodetypes="cc" /><path
       style="fill:none;stroke:#000000;stroke-width:7.99999;stroke-linecap:round;stroke-linejoin:miter;stroke-dasharray:none"
       d="m 393.73036,977.59931 50.2659,-50.266"
       id="path10-5-0-7-7-0-1-2-7-7"
       sodipodi:nodetypes="cc" /><path
       style="fill:none;stroke:#000000;stroke-width:7.99999;stroke-linecap:round;stroke-linejoin:miter;stroke-dasharray:none"
       d="m 335.46446,977.59931 50.2659,-50.266"
       id="path10-5-0-7-7-0-1-1-0-6-8"
       sodipodi:nodetypes="cc" /><path
       style="fill:none;stroke:#000000;stroke-width:7.99999;stroke-linecap:round;stroke-linejoin:miter;stroke-dasharray:none"
       d="m 277.19846,977.59931 50.266,-50.266"
       id="path10-5-0-7-7-0-1-1-6-6-5-6"
       sodipodi:nodetypes="cc" /><path
       style="fill:none;stroke:#000000;stroke-width:7.99999;stroke-linecap:round;stroke-linejoin:miter;stroke-dasharray:none"
       d="m 1617.315,977.59932 50.2659,-50.26602"
       id="path10-5-0-7-7-0-1-4-3"
       sodipodi:nodetypes="cc" /><path
       style="fill:none;stroke:#000000;stroke-width:7.99999;stroke-linecap:round;stroke-linejoin:miter;stroke-dasharray:none"
       d="m 1675.5809,977.59932 50.2659,-50.26602"
       id="path10-5-0-7-7-0-1-4-3-9"
       sodipodi:nodetypes="cc" /><path
       style="fill:none;stroke:#000000;stroke-width:7.99999;stroke-linecap:round;stroke-linejoin:miter;stroke-dasharray:none"
       d="m 1559.049,977.59932 50.266,-50.26602"
       id="path10-5-0-7-7-0-1-1-52-1"
       sodipodi:nodetypes="cc" /><path
       style="fill:none;stroke:#000000;stroke-width:7.99999;stroke-linecap:round;stroke-linejoin:miter;stroke-dasharray:none"
       d="M 1500.7831,977.59932 1551.049,927.3333"
       id="path10-5-0-7-7-0-1-1-6-5-4"
       sodipodi:nodetypes="cc" /><path
       style="fill:none;stroke:#000000;stroke-width:7.99999;stroke-linecap:round;stroke-linejoin:miter;stroke-dasharray:none"
       d="m 1442.5172,977.59932 50.2659,-50.26602"
       id="path10-5-0-7-7-0-1-2-4-9"
       sodipodi:nodetypes="cc" /><path
       style="fill:none;stroke:#000000;stroke-width:7.99999;stroke-linecap:round;stroke-linejoin:miter;stroke-dasharray:none"
       d="m 1384.2512,977.59932 50.266,-50.26602"
       id="path10-5-0-7-7-0-1-1-0-7-2"
       sodipodi:nodetypes="cc" /><path
       style="fill:none;stroke:#000000;stroke-width:7.99999;stroke-linecap:round;stroke-linejoin:miter;stroke-dasharray:none"
       d="m 1325.9853,977.59932 50.266,-50.26602"
       id="path10-5-0-7-7-0-1-1-6-6-4-0"
       sodipodi:nodetypes="cc" /><path
       style="fill:none;stroke:#000000;stroke-width:7.99999;stroke-linecap:round;stroke-linejoin:miter;stroke-dasharray:none"
       d="m 1267.7194,977.59932 50.2659,-50.26602"
       id="path10-5-0-7-7-0-1-5-4-6"
       sodipodi:nodetypes="cc" /><path
       style="fill:none;stroke:#000000;stroke-width:7.99999;stroke-linecap:round;stroke-linejoin:miter;stroke-dasharray:none"
       d="m 1209.4535,977.59932 50.2659,-50.26602"
       id="path10-5-0-7-7-0-1-1-5-3-8"
       sodipodi:nodetypes="cc" /><path
       style="fill:none;stroke:#000000;stroke-width:7.99999;stroke-linecap:round;stroke-linejoin:miter;stroke-dasharray:none"
       d="m 1151.1875,977.59932 50.266,-50.26602"
       id="path10-5-0-7-7-0-1-1-6-4-0-9"
       sodipodi:nodetypes="cc" /><path
       style="fill:none;stroke:#000000;stroke-width:7.99999;stroke-linecap:round;stroke-linejoin:miter;stroke-dasharray:none"
       d="m 1092.9216,977.59932 50.2659,-50.26602"
       id="path10-5-0-7-7-0-1-2-7-7-2"
       sodipodi:nodetypes="cc" /><path
       style="fill:none;stroke:#000000;stroke-width:7.99999;stroke-linecap:round;stroke-linejoin:miter;stroke-dasharray:none"
       d="m 1034.6557,977.59932 50.2659,-50.26602"
       id="path10-5-0-7-7-0-1-1-0-6-8-6"
       sodipodi:nodetypes="cc" /><path
       style="fill:none;stroke:#000000;stroke-width:7.99999;stroke-linecap:round;stroke-linejoin:miter;stroke-dasharray:none"
       d="M 976.38966,977.59932 1026.6557,927.3333"
       id="path10-5-0-7-7-0-1-1-6-6-5-6-6"
       sodipodi:nodetypes="cc" /><path
       style="fill:none;stroke:#000000;stroke-width:7.99999;stroke-linecap:round;stroke-linejoin:miter;stroke-dasharray:none"
       d="m 218.93256,977.59931 50.266,-50.266"
       id="path10-5-0-7-7-0-1-1-0-6-9-8"
       sodipodi:nodetypes="cc" /><path
       style="fill:none;stroke:#000000;stroke-width:7.99999;stroke-linecap:round;stroke-linejoin:miter;stroke-dasharray:none"
       d="m 160.66666,977.59931 50.2659,-50.266"
       id="path10-5-0-7-7-0-1-1-6-6-5-3-8"
       sodipodi:nodetypes="cc" /></g><g
     id="g44"
     inkscape:label="mass"><rect
       style="fill:#ffffff;stroke:#000000;stroke-width:8;stroke-linecap:round"
       id="rect39"
       width="611.79236"
       height="389.32239"
       x="733.19366"
       y="460.57401"
       inkscape:label="mass" /><circle
       style="fill:#ffffff;stroke:#000000;stroke-width:8;stroke-linecap:round"
       id="path39"
       cx="837.72546"
       cy="849.89642"
       r="43.699448" /><circle
       style="fill:#ffffff;stroke:#000000;stroke-width:8;stroke-linecap:round"
       id="path39-4"
       cx="1240.4541"
       cy="849.89642"
       r="43.699448" /><circle
       style="fill:#000000;stroke:none;stroke-width:8.00002;stroke-linecap:round"
       id="path40"
       cx="837.72546"
       cy="849.89642"
       r="7.5" /><circle
       style="fill:#000000;stroke:none;stroke-width:8.00002;stroke-linecap:round"
       id="path40-7"
       cx="1240.4541"
       cy="849.89642"
       r="7.5" /></g><g
     id="g43"
     transform="translate(1.4550781e-5,15.355014)"
     inkscape:label="damper"><path
       style="fill:none;stroke:#000000;stroke-width:7.99998;stroke-linecap:round;stroke-linejoin:round;stroke-dasharray:none"
       d="m 474.67934,468.37689 -167.5026,-10e-6 v 171.50329"
       id="path10-5-0-7-7-0-10"
       sodipodi:nodetypes="ccc" /><path
       id="path41"
       style="fill:#000000;stroke:#000000;stroke-width:8.00002;stroke-linecap:round;stroke-linejoin:round"
       d="m 474.67934,436.25986 v 64.23406 z"
       sodipodi:nodetypes="ccc" /><path
       id="path41-2"
       style="fill:none;stroke:#000000;stroke-width:8.00002;stroke-linecap:round;stroke-linejoin:round"
       d="m 392.77615,406.95243 h 120.2895 v 122.8489 H 390.66579"
       sodipodi:nodetypes="cccc" /><path
       id="path10-5-0-7-7-0-10-1"
       style="fill:none;stroke:#000000;stroke-width:7.99998;stroke-linecap:round;stroke-linejoin:round;stroke-dasharray:none"
       d="M 618.56824,639.88017 V 468.37688 H 513.06565"
       sodipodi:nodetypes="ccc" /></g><path
     id="path10-5-0-7-7-0-10-1-1"
     style="fill:none;stroke:#000000;stroke-width:7.99998;stroke-linecap:butt;stroke-linejoin:miter;stroke-dasharray:none"
     d="M 733.19366,655.23518 H 561.69038 l -21.014,35.1066 -34.38639,-67.5807 -38.20713,68.4585 -33.43138,-67.5808 -36.29665,66.703 -36.29689,-67.1419 -20.05873,32.0353 H 198.54292"
     sodipodi:nodetypes="cccccccccc"
     inkscape:label="spring" /><path
     style="fill:none;stroke:#a51d2d;stroke-width:7.99998;stroke-linecap:square;stroke-linejoin:round;stroke-dasharray:none;marker-end:url(#Triangle-3-7-7-9-2)"
     d="m 1352.986,655.2352 h 202.9996"
     id="path10-5-0-7-7-3"
     sodipodi:nodetypes="cc"
     inkscape:label="external-force" /><path
     id="use10"
     d="m 834.61322,281.31596 c -3.7703,0.70693 -5.1842,3.53465 -5.1842,5.77326 0,2.82771 2.2386,3.77029 3.8881,3.77029 3.5347,0 6.0089,-3.06336 6.0089,-6.24455 0,-4.9485 -5.6554,-7.18712 -10.6039,-7.18712 -7.1871,0 -11.1931,7.0693 -12.2535,9.30791 -2.7099,-8.83662 -10.0148,-9.30791 -12.1356,-9.30791 -12.0178,0 -18.3802,15.43463 -18.3802,18.02671 0,0.47129 0.4713,1.0604 1.2961,1.0604 0.9426,0 1.1782,-0.70693 1.4138,-1.17822 4.006,-13.0782 11.9,-15.55245 15.3169,-15.55245 5.3019,0 6.3623,4.94851 6.3623,7.77622 0,2.59208 -0.7069,5.30197 -2.1208,10.95741 l -4.0059,16.14157 c -1.7673,7.06929 -5.1842,13.54948 -11.4287,13.54948 -0.5891,0 -3.5347,0 -6.0089,-1.53168 4.2416,-0.82475 5.1841,-4.3594 5.1841,-5.77326 0,-2.35643 -1.7673,-3.77029 -4.0059,-3.77029 -2.8277,0 -5.8911,2.47426 -5.8911,6.24454 0,4.94851 5.5376,7.18712 10.604,7.18712 5.6554,0 9.6613,-4.47722 12.1356,-9.3079 1.8851,6.95147 7.7762,9.3079 12.1356,9.3079 12.0178,0 18.3802,-15.43463 18.3802,-18.02671 0,-0.5891 -0.4713,-1.06039 -1.1782,-1.06039 -1.0604,0 -1.1782,0.58911 -1.5317,1.53169 -3.1812,10.36829 -10.0148,15.19898 -15.3168,15.19898 -4.1238,0 -6.3624,-3.06336 -6.3624,-7.89405 0,-2.59207 0.4713,-4.47722 2.3565,-12.25344 l 4.1237,-16.02374 c 1.7673,-7.0693 5.7733,-12.25345 11.1931,-12.25345 0.2356,0 3.5346,0 6.0089,1.53168 z"
     style="fill:#000000;stroke-width:1.80742"
     inkscape:label="x" /><path
     id="use1"
     d="m 481.9596,356.71132 c -2.23861,0 -3.299,0 -4.9485,1.41386 -0.70693,0.58911 -2.00297,2.35644 -2.00297,4.24158 0,2.35643 1.76733,3.77029 4.00594,3.77029 2.82771,0 6.00889,-2.35643 6.00889,-7.0693 0,-5.65543 -5.41979,-10.01483 -13.54948,-10.01483 -15.43462,0 -30.86925,16.84849 -30.86925,33.57915 0,10.25048 6.36236,19.55838 18.38016,19.55838 16.02374,0 26.15639,-12.48908 26.15639,-14.02077 0,-0.70692 -0.70692,-1.29603 -1.17821,-1.29603 -0.35346,0 -0.47129,0.11782 -1.53168,1.17821 -7.54058,10.01484 -18.73363,11.78216 -23.21085,11.78216 -8.12969,0 -10.72176,-7.0693 -10.72176,-12.96037 0,-4.12376 2.00296,-15.55245 6.24454,-23.56432 3.06336,-5.53761 9.42573,-11.89998 16.84848,-11.89998 1.53169,0 8.01187,0.23563 10.3683,5.30197 z"
     style="stroke-width:1.50667"
     inkscape:label="c" /><path
     id="use2"
     d="m 466.22175,723.66899 c 0.11782,-0.4713 0.35347,-1.17821 0.35347,-1.76733 0,-1.17821 -1.17822,-1.17821 -1.41386,-1.17821 -0.11782,0 -4.3594,0.35346 -6.48019,0.58911 -2.00296,0.11783 -3.77029,0.35346 -5.89108,0.47129 -2.82771,0.23567 -3.65247,0.35346 -3.65247,2.47426 0,1.17821 1.17822,1.17821 2.35643,1.17821 6.00891,0 6.00891,1.0604 6.00891,2.23861 0,0.4713 0,0.70693 -0.58911,2.82772 l -16.84849,67.39394 c -0.47128,1.76732 -0.47128,2.00296 -0.47128,2.70989 0,2.59207 2.00296,3.06336 3.18118,3.06336 3.299,0 4.00593,-2.59207 4.94851,-6.24454 l 5.53761,-22.03264 c 8.48315,0.94258 13.54948,4.47722 13.54948,10.13266 0,0.70693 0,1.17822 -0.35346,2.94554 -0.47129,1.76732 -0.47129,3.18118 -0.47129,3.77029 0,6.83365 4.47722,11.42869 10.48612,11.42869 5.41979,0 8.24751,-4.94851 9.19008,-6.598 2.47426,-4.3594 4.00594,-10.95741 4.00594,-11.4287 0,-0.58911 -0.4713,-1.06039 -1.17822,-1.06039 -1.06039,0 -1.17821,0.47128 -1.6495,2.35643 -1.6495,6.12672 -4.12376,14.37423 -10.13266,14.37423 -2.35643,0 -3.88811,-1.17821 -3.88811,-5.65543 0,-2.23861 0.47129,-4.83069 0.94257,-6.59801 0.47129,-2.12079 0.47129,-2.23861 0.47129,-3.65247 0,-6.95148 -6.24454,-10.83959 -17.08413,-12.25345 4.24158,-2.59207 8.48316,-7.18712 10.13266,-8.95443 6.71583,-7.54059 11.31087,-11.31088 16.73066,-11.31088 2.7099,0 3.41683,0.70693 4.24158,1.41386 -4.3594,0.47129 -6.0089,3.53465 -6.0089,5.89108 0,2.82772 2.23861,3.77029 3.88811,3.77029 3.18118,0 6.0089,-2.7099 6.0089,-6.48018 0,-3.41683 -2.70989,-6.95148 -8.01187,-6.95148 -6.48018,0 -11.78215,4.59504 -20.14749,14.02077 -1.17821,1.41385 -5.53761,5.89107 -9.89701,7.54058 z"
     style="stroke-width:1.50667"
     inkscape:label="k" /><path
     id="use3"
     d="m 1013.0513,646.10402 c 0.2356,-0.70693 3.1812,-6.59801 7.5406,-10.36829 3.0633,-2.82772 7.0693,-4.71287 11.6643,-4.71287 4.7129,0 6.3624,3.53465 6.3624,8.24751 0,0.70693 0,3.06337 -1.4139,8.60098 l -2.9455,12.13562 c -0.9426,3.53465 -3.1812,12.25344 -3.4169,13.54948 -0.4713,1.76733 -1.1782,4.83069 -1.1782,5.30197 0,1.64951 1.2961,2.94554 3.0634,2.94554 3.5346,0 4.1237,-2.7099 5.1841,-6.95147 l 7.0693,-28.15936 c 0.2357,-0.94257 6.3624,-15.67027 19.3228,-15.67027 4.7128,0 6.3623,3.53465 6.3623,8.24751 0,6.59801 -4.595,19.44056 -7.1871,26.50986 -1.0604,2.82772 -1.6495,4.3594 -1.6495,6.48018 0,5.30198 3.6525,9.54355 9.3079,9.54355 10.9574,0 15.0812,-17.31977 15.0812,-18.0267 0,-0.58911 -0.4713,-1.06039 -1.1782,-1.06039 -1.0604,0 -1.1783,0.35346 -1.7674,2.35643 -2.7099,9.42572 -7.0693,14.37423 -11.7821,14.37423 -1.1782,0 -3.0634,-0.11782 -3.0634,-3.88811 0,-3.06336 1.4139,-6.83365 1.8852,-8.12969 2.1208,-5.65544 7.4227,-19.55838 7.4227,-26.39203 0,-7.0693 -4.1237,-12.37127 -13.0782,-12.37127 -7.894,0 -14.2564,4.47722 -18.9692,11.4287 -0.3535,-6.36237 -4.2416,-11.4287 -13.0782,-11.4287 -10.4862,0 -16.0238,7.42276 -18.1446,10.3683 -0.3534,-6.71583 -5.1841,-10.3683 -10.3683,-10.3683 -3.4168,0 -6.12669,1.6495 -8.3653,6.12672 -2.12079,4.24158 -3.77029,11.42869 -3.77029,11.89998 0,0.47129 0.47129,1.0604 1.29604,1.0604 0.94257,0 1.0604,-0.11783 1.76733,-2.82772 1.76732,-6.95147 4.00593,-13.90295 8.71882,-13.90295 2.7099,0 3.6524,1.88515 3.6524,5.41979 0,2.59208 -1.1782,7.18712 -2.0029,10.83959 l -3.299,12.72473 c -0.4713,2.23861 -1.7674,7.54058 -2.35646,9.66137 -0.82475,3.06336 -2.12079,8.60098 -2.12079,9.19008 0,1.64951 1.29604,2.94554 3.06335,2.94554 1.4139,0 3.0634,-0.70693 4.0059,-2.47425 0.2357,-0.58911 1.2961,-4.71287 1.8852,-7.0693 l 2.5921,-10.60394 z"
     style="stroke-width:1.50667"
     inkscape:label="m" /><g
     id="g4"
     inkscape:label="Fext"
     style="fill:#a51d2d;stroke-width:1.5"
     transform="matrix(0.66666661,0,0,0.66666661,706.53413,427.24906)"><path
       id="use4-0"
       d="m 1346.3633,333.28257 h 11.3109 c 8.9544,0 9.6613,2.00297 9.6613,5.4198 0,1.53168 -0.2356,3.18118 -0.8247,5.77326 -0.2357,0.47128 -0.3535,1.06039 -0.3535,1.29603 0,0.82475 0.4713,1.29604 1.2961,1.29604 0.9425,0 1.0604,-0.47129 1.5316,-2.35643 l 6.8337,-27.45244 c 0,-0.47129 -0.3535,-1.17821 -1.1782,-1.17821 -1.0604,0 -1.1782,0.47128 -1.6495,2.47425 -2.4743,8.83662 -4.8307,11.31087 -15.0812,11.31087 h -10.7218 l 7.6584,-30.51579 c 1.0604,-4.12376 1.2961,-4.47723 6.1268,-4.47723 h 15.7881 c 14.7277,0 16.8485,4.35941 16.8485,12.72474 0,0.70693 0,3.299 -0.3535,6.36237 -0.1178,0.47128 -0.3535,2.00297 -0.3535,2.47425 0,0.94257 0.5891,1.29604 1.296,1.29604 0.8248,0 1.2961,-0.47129 1.5317,-2.59208 l 2.4743,-20.61878 c 0,-0.35348 0.2356,-1.53168 0.2356,-1.76732 0,-1.29604 -1.0604,-1.29604 -3.1811,-1.29604 h -55.8475 c -2.2386,0 -3.4168,0 -3.4168,2.12079 0,1.29603 0.8247,1.29603 2.8277,1.29603 7.305,0 7.305,0.82476 7.305,2.1208 0,0.5891 -0.1179,1.06039 -0.4713,2.35643 l -15.906,63.62367 c -1.0603,4.12376 -1.296,5.30197 -9.5435,5.30197 -2.2386,0 -3.4168,0 -3.4168,2.12079 0,1.29604 1.0604,1.29604 1.7673,1.29604 2.2386,0 4.595,-0.23564 6.8336,-0.23564 h 15.3169 c 2.592,0 5.4198,0.23564 8.0118,0.23564 1.0604,0 2.4743,0 2.4743,-2.12079 0,-1.29604 -0.707,-1.29604 -3.299,-1.29604 -9.3079,0 -9.5436,-0.82475 -9.5436,-2.59208 0,-0.5891 0.2357,-1.53167 0.4713,-2.35643 z"
       style="fill:#a51d2d;stroke-width:2.71113" /><path
       id="use5-6"
       d="m 1403.6322,368.73425 c 2.6519,0 9.3306,-0.19644 14.045,-1.96433 7.4644,-2.84827 8.1519,-8.54482 8.1519,-10.31271 0,-4.32151 -3.7322,-8.25016 -10.2145,-8.25016 -10.3127,0 -25.1434,9.33054 -25.1434,26.81304 0,10.31271 5.893,17.48249 14.8307,17.48249 13.3574,0 21.804,-10.41092 21.804,-11.68773 0,-0.5893 -0.5893,-1.08038 -0.9821,-1.08038 -0.2947,0 -0.3929,0.0982 -1.2769,0.98216 -6.2858,8.34839 -15.6163,9.82163 -19.3486,9.82163 -5.5983,0 -8.5448,-4.41973 -8.5448,-11.68774 0,-1.37503 0,-3.83043 1.4733,-10.11627 z m -4.7144,-1.96433 c 4.2233,-15.12531 13.5539,-16.59855 16.6968,-16.59855 4.3215,0 7.268,2.55362 7.268,6.28584 0,10.31271 -15.7146,10.31271 -19.8397,10.31271 z"
       style="fill:#a51d2d;stroke-width:2.26" /><path
       id="use6-2"
       d="m 1477.1781,351.44818 c -3.1429,0.5893 -4.3215,2.94649 -4.3215,4.8126 0,2.35719 1.8661,3.14292 3.2412,3.14292 2.9465,0 5.009,-2.55362 5.009,-5.20546 0,-4.12509 -4.7144,-5.99119 -8.8395,-5.99119 -5.9912,0 -9.3305,5.89297 -10.2145,7.75908 -2.2589,-7.36622 -8.3483,-7.75908 -10.1162,-7.75908 -10.0181,0 -15.3218,12.86633 -15.3218,15.02709 0,0.39286 0.3929,0.88394 1.0804,0.88394 0.7857,0 0.9822,-0.58929 1.1786,-0.98216 3.3394,-10.902 9.9198,-12.96455 12.7681,-12.96455 4.4197,0 5.3037,4.12509 5.3037,6.48228 0,2.16075 -0.5893,4.41973 -1.7679,9.13411 l -3.3393,13.45563 c -1.4733,5.89297 -4.3216,11.29487 -9.527,11.29487 -0.4911,0 -2.9465,0 -5.0091,-1.27681 3.5358,-0.68752 4.3216,-3.634 4.3216,-4.8126 0,-1.96432 -1.4733,-3.14292 -3.3394,-3.14292 -2.3572,0 -4.9108,2.06254 -4.9108,5.20546 0,4.12508 4.6162,5.99119 8.8395,5.99119 4.7143,0 8.0537,-3.73222 10.1162,-7.75908 1.5715,5.79476 6.4823,7.75908 10.1163,7.75908 10.0181,0 15.3217,-12.86633 15.3217,-15.02709 0,-0.49108 -0.3928,-0.88394 -0.9821,-0.88394 -0.884,0 -0.9822,0.49108 -1.2768,1.27681 -2.6519,8.64303 -8.3484,12.6699 -12.7681,12.6699 -3.4376,0 -5.3037,-2.55362 -5.3037,-6.58049 0,-2.16076 0.3928,-3.73222 1.9643,-10.21449 l 3.4376,-13.35742 c 1.4732,-5.89297 4.8126,-10.21449 9.3305,-10.21449 0.1964,0 2.9465,0 5.009,1.27681 z"
       style="fill:#a51d2d;stroke-width:2.26" /><path
       id="use7-6"
       d="m 1505.0145,352.03748 h 9.0359 c 1.8661,0 2.8483,0 2.8483,-1.76789 0,-1.08038 -0.5893,-1.08038 -2.5536,-1.08038 h -8.6431 l 3.634,-14.33958 c 0.3929,-1.37503 0.3929,-1.57146 0.3929,-2.25897 0,-1.57146 -1.2768,-2.45541 -2.5536,-2.45541 -0.7857,0 -3.0447,0.29466 -3.8304,3.43757 l -3.8305,15.61639 h -9.2323 c -1.9643,0 -2.8483,0 -2.8483,1.86611 0,0.98216 0.6875,0.98216 2.5536,0.98216 h 8.7413 l -6.4823,25.9291 c -0.7857,3.43756 -1.0804,4.41973 -1.0804,5.69654 0,4.61617 3.2412,8.83946 8.7413,8.83946 9.9198,0 15.2235,-14.33957 15.2235,-15.02709 0,-0.58929 -0.3929,-0.88394 -0.9822,-0.88394 -0.1964,0 -0.5893,0 -0.7857,0.39286 -0.098,0.0982 -0.1964,0.19644 -0.8839,1.7679 -2.0626,4.91081 -6.5805,11.78595 -12.2771,11.78595 -2.9465,0 -3.1429,-2.45541 -3.1429,-4.61617 0,-0.0982 0,-1.96432 0.2947,-3.14291 z"
       style="fill:#a51d2d;stroke-width:2.26" /></g></svg>
